<?xml version="1.0" encoding="UTF-8"?> <svg xmlns="http://www.w3.org/2000/svg" width="100" height="100" viewBox="0 0 100 100" fill="none"> <path d="M76.3395 5.08517C73.5266 3.99551 70.6209 2.99877 67.7151 2.27233C63.6268 1.27559 59.5469 0.642067 55.3657 0.278848C53.3722 0.101461 51.4632 0.00854492 49.4613 0.00854492H49.2839C47.1975 0.00854492 45.3814 0.101461 43.3794 0.278848C39.2066 0.63362 35.1268 1.26714 31.0384 2.27233C28.1327 2.99877 25.2269 3.99551 22.4141 5.08517C22.3212 5.17808 22.2367 5.17808 22.2367 5.17808C22.2367 5.17808 22.5999 26.2448 22.8702 36.6852C22.9631 39.7684 23.5037 42.7671 24.5005 45.6728C25.6831 48.9418 27.3133 52.1178 29.2223 55.0236C31.2158 58.0223 33.6739 60.7422 36.4867 63.0144C37.5764 63.9182 38.7589 64.7376 39.9331 65.557C41.8421 66.7395 43.8356 67.7363 45.8375 68.5556C46.471 68.8259 47.1045 69.0962 47.6536 69.2821C48.1942 69.4595 48.7433 69.6453 49.3768 69.8227C49.9174 69.6453 50.5594 69.5524 51.1 69.2821C51.6406 69.1047 52.1896 68.8259 52.9161 68.5556C55.0025 67.7363 56.9115 66.7395 58.8205 65.557C60.0031 64.8305 61.1772 63.9267 62.2668 63.0144C65.0797 60.7422 67.5293 58.0223 69.5312 55.0236C71.4402 52.1178 73.0705 48.9418 74.2531 45.6728C75.2498 42.7671 75.7989 39.7684 75.8833 36.6852C76.1536 26.2448 76.5169 5.17808 76.5169 5.17808C76.4324 5.08517 76.4324 5.08517 76.3395 5.08517Z" fill="url(#paint0_linear)"></path> <path d="M48.6505 58.6473H33.2179C34.4005 59.9143 35.5746 61.0969 36.943 62.1865C38.0327 63.0904 39.1224 63.9097 40.3049 64.6362C42.121 65.7258 44.03 66.7226 46.0235 67.5419C46.6571 67.8122 47.2061 68.0825 47.7467 68.2684C48.1099 68.3613 48.4732 68.5387 48.7435 68.6316L48.6505 58.6473ZM48.6505 47.1172C46.2938 46.9398 44.1145 46.0275 42.3829 44.4817C42.29 44.3888 42.2055 44.3043 42.0197 44.2114H24.9568C25.0497 44.5746 25.2271 44.9378 25.32 45.3011C25.9535 47.1172 26.7729 48.9332 27.6767 50.5635H48.6505V47.1172ZM75.0727 29.4123H60.0033V36.0432H74.8953C74.9797 34.1342 74.9797 31.8704 75.0727 29.4123ZM75.343 15.6184H49.6473V21.9705H75.25C75.25 19.7912 75.25 17.6119 75.343 15.6184Z" fill="#B12B28"></path> <path d="M75.0724 42.9444C74.7092 44.3044 74.2531 45.5799 74.2531 45.5799C73.0705 48.8489 71.4402 52.0249 69.5312 54.9307C67.5377 57.9294 65.0797 60.6493 62.2668 62.9215C61.1772 63.8253 59.9946 64.6447 58.8205 65.464C56.9115 66.6466 54.918 67.6434 52.916 68.4627C52.2825 68.733 51.649 69.0033 51.0999 69.1892C50.5593 69.3665 50.0103 69.5524 49.3768 69.7298C48.8362 69.5524 48.1942 69.4595 47.6536 69.1892C47.113 69.0118 46.5639 68.733 45.8375 68.4627C43.7511 67.6434 41.8421 66.6466 39.9331 65.464C38.7505 64.7376 37.5764 63.8338 36.4867 62.9215C34.13 61.0125 32.0352 58.8332 30.2191 56.3836L30.312 56.4765C32.1281 59.019 34.3074 61.2912 36.6641 63.1918C37.7537 64.0956 38.9363 64.915 40.2034 65.7343C42.0195 66.9169 43.9285 67.9137 45.922 68.733C46.5555 69.0033 47.189 69.2736 47.7381 69.4595C48.2871 69.6453 48.8277 69.8227 49.4612 70.0001C50.0018 69.8227 50.6438 69.6368 51.1844 69.4595C51.725 69.2821 52.2741 69.0033 53.0005 68.733C55.0869 67.9137 56.9959 66.9169 58.9049 65.7343C60.0875 65.0079 61.2616 64.1041 62.3513 63.1918C65.1641 60.9196 67.6138 58.1997 69.6157 55.201C71.5247 52.2952 73.155 49.1192 74.3375 45.8502C74.5234 44.9379 74.7937 43.9412 75.0724 42.9444ZM75.5201 6.3522C75.4272 6.3522 75.4272 6.25928 75.3427 6.25928H75.2498C72.5299 5.16963 69.7086 4.2658 66.8958 3.53936C62.9933 2.63554 58.9979 1.9091 55.0024 1.63035C53.009 1.45296 51.2773 1.36005 49.2838 1.36005H49.1065C47.113 1.36005 45.3814 1.45296 43.3879 1.63035C39.3925 1.99357 35.397 2.62709 31.4945 3.53936C28.6817 4.2658 25.9533 5.16963 23.2334 6.25928C20.5135 7.34894 23.1405 6.25928 23.1405 6.3522V5.98898L23.3179 5.89606C26.0378 4.80641 28.7662 3.90258 31.579 3.17614C35.4815 2.27232 39.4769 1.54588 43.4723 1.26713C45.4658 1.08974 47.1974 0.996826 49.1909 0.996826H49.3683C51.3618 0.996826 53.0934 1.08974 55.0869 1.26713C59.0823 1.63035 63.0777 2.26387 66.9802 3.17614C69.7931 3.90258 72.6059 4.80641 75.3343 5.89606H75.4272C75.5201 5.89606 75.5201 5.98898 75.6046 5.98898L75.5201 6.3522ZM48.6503 8.89474C46.9271 8.89474 45.2884 8.98765 43.4723 9.16504C39.4769 9.52826 35.4815 10.1618 31.579 11.0741C28.7662 11.8005 25.9533 12.7043 23.225 13.794V13.4308C25.9449 12.3411 28.6733 11.4373 31.579 10.7108C35.4815 9.80701 39.4769 9.08057 43.4723 8.80182C45.1955 8.62443 46.8342 8.62443 48.6503 8.53152V8.89474Z" fill="#613E18"></path> <path d="M67.901 48.3927V48.5701C67.901 48.663 67.901 48.663 67.8081 48.7474C67.1746 48.9248 66.6255 49.2036 66.1778 49.5668L66.0849 49.6597V49.5668C66.0849 49.4739 66.1778 49.3894 66.2623 49.2965C66.6255 48.9333 67.1746 48.663 67.901 48.3927C67.901 48.4771 67.901 48.4771 67.901 48.3927ZM64.9024 46.6695C64.4462 46.8469 63.9985 47.2101 63.6353 47.5733C63.365 47.8436 63.1792 48.1139 63.0947 48.4771V48.5701C63.1876 48.2998 63.365 48.0294 63.6353 47.7507C63.9985 47.3875 64.4547 47.0243 64.9024 46.8469L64.9953 46.754L64.9024 46.6695ZM61.7263 46.0275C61.0928 46.3907 60.4593 47.0243 60.096 47.7507C59.9186 48.1139 59.8257 48.4771 59.8257 48.9333V49.0262C59.8257 48.663 59.9186 48.2998 60.096 47.9365C60.4593 47.2101 60.9999 46.6695 61.6418 46.3063C61.7347 46.1289 61.7347 46.036 61.7347 45.8501C61.8108 45.943 61.8108 45.9431 61.7263 46.0275ZM57.638 46.8469C57.3677 47.0243 57.1818 47.303 57.0044 47.5733C56.6412 48.2068 56.4638 48.9333 56.5483 49.6597C56.5483 49.0262 56.7257 48.3927 57.0044 47.8436C57.1818 47.5733 57.3677 47.303 57.5451 47.1172C57.638 47.0243 57.638 46.9398 57.638 46.8469ZM51.0071 52.2952C51.0071 52.2952 51.1 52.2952 51.0071 52.2952C50.7368 52.0249 50.551 51.6616 50.551 51.3913C50.4581 51.7546 50.6439 52.1178 50.9142 52.3881C50.9226 52.3881 51.0071 52.3881 51.0071 52.2952ZM64.8094 39.0419C64.3533 39.2193 63.9901 39.498 63.7198 39.8612C63.4495 40.1315 63.1792 40.5877 63.0863 40.9509V41.0438C63.2636 40.6806 63.4495 40.3174 63.7198 40.0471C63.9901 39.6839 64.3533 39.4135 64.8094 39.2277C64.9024 39.1348 64.9024 39.0503 64.9024 38.8645C64.9024 38.949 64.9024 39.0419 64.8094 39.0419ZM68.8978 39.6754C68.3572 39.7683 67.901 39.9457 67.4449 40.3089C67.0817 40.5792 66.8114 40.9424 66.5411 41.3057C66.5411 41.3057 66.4482 41.3986 66.5411 41.4831C66.7185 41.1198 66.9972 40.8495 67.3604 40.6637C67.8166 40.3005 68.2643 40.1231 68.8133 40.0302C68.9062 40.0302 68.9062 39.9373 68.9062 39.9373V39.6754C68.9907 39.6754 68.9907 39.6754 68.8978 39.6754ZM71.9809 41.7618C71.9809 41.7618 71.9809 41.8547 71.9809 41.7618C71.3474 41.8547 70.7983 42.0321 70.3506 42.3953C70.2577 42.4882 70.0804 42.5727 69.9874 42.6656L69.8945 42.7585L69.9874 42.8515C70.0804 42.7585 70.1648 42.6741 70.2577 42.6741C70.7139 42.3109 71.2545 42.0406 71.888 42.0406C71.9809 42.0321 71.9809 41.8547 71.9809 41.7618ZM53.7355 46.9398C53.7355 47.0243 53.7355 47.0243 53.7355 46.9398C53.7355 47.303 53.4652 47.5733 53.1949 47.6662C52.8317 47.8436 52.3755 47.7591 52.1052 47.4888C51.9278 47.7591 51.5646 47.8521 51.2014 47.7591C50.9311 47.6662 50.6608 47.5818 50.5679 47.303C50.475 47.2101 50.475 47.0327 50.475 47.0327C50.2047 47.0327 49.8414 47.1256 49.5711 47.1256V47.3959C49.8414 47.3959 50.2047 47.3959 50.475 47.303C50.475 47.3959 50.5679 47.4804 50.5679 47.5733C50.7453 47.7507 50.9311 47.9365 51.2014 48.0294C51.5646 48.1224 51.9278 47.9365 52.1052 47.7591C52.3755 48.0294 52.8317 48.1224 53.1949 47.9365C53.4652 47.8436 53.651 47.5733 53.7355 47.303V46.9398ZM54.5548 54.8377C54.1916 55.108 53.651 55.108 53.2878 54.8377C53.1104 54.7448 53.0175 54.5674 52.8316 54.3816L52.7387 54.2886C52.4684 54.5589 52.1052 54.6519 51.742 54.6519C51.3788 54.6519 50.9226 54.3816 50.7453 54.1113C50.5679 53.841 50.475 53.5707 50.475 53.2919C50.475 53.6551 50.5679 54.0183 50.7453 54.3816C50.9226 54.7448 51.2859 54.9222 51.6491 55.0151C52.0123 55.0151 52.3755 54.9222 52.7387 54.6519C52.7387 54.6519 52.8316 54.6519 52.8316 54.7448C52.9246 54.9222 53.102 55.108 53.2878 55.2009C53.651 55.4712 54.1916 55.4712 54.5548 55.2009C54.918 54.9306 55.1884 54.4745 55.1884 54.0183C55.0954 54.2886 54.918 54.6519 54.5548 54.8377ZM63.9901 56.7467C63.7198 56.8396 63.4495 57.017 63.1707 57.2028C62.8075 57.4731 62.4443 57.9293 62.2669 58.3854C62.4443 58.0222 62.723 57.659 63.0863 57.3887C63.3566 57.2113 63.6269 57.1184 63.9056 56.9325C64.083 57.017 64.083 56.8312 63.9901 56.7467C64.083 56.7467 64.083 56.7467 63.9901 56.7467ZM61.9037 55.4712C61.9037 55.5641 61.8108 55.5641 61.9037 55.4712C60.9999 55.7415 60.2734 56.2906 59.8173 57.1015V57.1944H59.9102C60.3663 56.468 60.9999 55.9274 61.8192 55.6486C61.8108 55.7415 61.9037 55.6571 61.9037 55.4712ZM58.0941 55.2009C57.7309 55.5641 57.3677 55.9274 57.1903 56.3835C57.0129 56.7467 56.92 57.1099 57.0129 57.5661V57.659C57.0129 57.2958 57.1058 57.0255 57.1903 56.7552C57.4606 56.299 57.7309 55.9358 58.0941 55.5726C58.0941 55.3783 58.187 55.2938 58.0941 55.2009ZM54.8251 56.5609C54.4619 57.017 54.2845 57.5576 54.369 58.1911C54.369 57.735 54.4619 57.1944 54.8251 56.8312C54.9181 56.6538 54.9181 56.5609 54.8251 56.5609C54.8251 56.468 54.8251 56.468 54.8251 56.5609ZM53.1864 59.7369C53.2793 59.644 53.2793 59.644 53.1864 59.5595C53.0935 59.2892 52.9161 59.1034 52.9161 58.8331C52.8232 58.6557 52.8232 58.377 52.8232 58.1067C52.8232 58.377 52.8232 58.6473 52.9161 59.0105C53.009 59.2808 53.009 59.5595 53.1864 59.7369ZM54.8251 62.913C54.5548 63.1833 54.1916 63.1833 53.9213 63.0904C53.651 62.9975 53.3807 62.8201 53.1949 62.5498H53.102C52.9246 63.0059 52.5613 63.2762 52.1052 63.4536C51.8349 63.4536 51.4717 63.3607 51.2859 63.1833C51.1 63.0059 50.9226 62.7272 50.9226 62.4569C50.9226 63.1833 51.0156 63.2762 51.2859 63.4536C51.5562 63.631 51.8265 63.7239 52.1897 63.7239C52.6458 63.5465 53.009 63.2678 53.1864 62.8201C53.1864 62.8201 53.2793 62.7272 53.2793 62.8201C53.4567 63.0904 53.7355 63.2762 54.0058 63.3607C54.369 63.4536 54.7322 63.3607 54.9096 63.1833C55.1799 62.913 55.2728 62.5498 55.2728 62.1866C55.1884 62.4653 55.0025 62.7356 54.8251 62.913ZM51.2859 61.553C51.3788 61.553 51.3788 61.4601 51.3788 61.4601V61.3672C51.0156 61.1898 50.6523 60.8266 50.6523 60.4634C50.6439 60.8266 50.9226 61.2827 51.2859 61.553ZM24.7708 18.8874C24.7708 18.8874 24.8638 18.7945 24.7708 18.7945C24.6779 18.6171 24.6779 18.5242 24.6779 18.3384C24.6864 18.4313 24.7708 18.6087 24.7708 18.8874ZM25.5902 33.2304C25.6831 33.1375 25.6831 33.1375 25.6831 33.053C25.5902 32.8756 25.5057 32.7827 25.4128 32.5968C25.4128 32.5039 25.3199 32.4195 25.3199 32.2336C25.3199 32.411 25.3199 32.6898 25.4128 32.8672C25.4044 33.0445 25.4973 33.1375 25.5902 33.2304ZM29.3998 34.4129C29.3998 34.7762 29.2224 35.0465 28.8592 35.1394C28.5889 35.3168 28.2257 35.4097 27.8624 35.3168C27.5921 35.2239 27.4063 35.0465 27.2289 34.8606C27.136 34.7677 27.0515 34.8606 27.0515 34.9536C26.8741 35.0465 26.5954 35.2239 26.418 35.3168C25.9619 35.4942 25.4213 35.4097 25.151 34.9536C24.9736 34.7762 24.9736 34.4974 24.8807 34.32C24.8807 34.6832 24.9736 34.9536 25.058 35.2239C25.3283 35.68 25.8774 35.7645 26.3251 35.5871C26.5954 35.4942 26.7812 35.4097 26.9586 35.2239C27.0515 35.1309 27.0515 35.0465 27.136 35.1309C27.3134 35.3083 27.5921 35.4942 27.7695 35.5871C28.1327 35.68 28.496 35.5871 28.7663 35.4097C29.3153 35.3168 29.4927 34.8606 29.3998 34.4129ZM28.403 27.3259C28.403 27.6892 28.2257 27.9595 27.8624 28.1453C27.3218 28.5085 26.6799 28.3227 26.4096 27.7821C26.1393 27.2415 26.2322 27.6892 26.2322 27.7821C25.9619 27.9595 25.5057 28.1453 25.1425 28.0524C24.7793 28.0524 24.4161 27.7821 24.3232 27.4189C24.2302 27.3259 24.2302 27.2415 24.2302 27.0556C24.2302 27.233 24.2302 27.4189 24.3232 27.5963C24.4161 27.9595 24.7793 28.2298 25.1425 28.2298C25.5057 28.2298 25.9619 28.1369 26.2322 27.8666H26.4096C26.6799 28.4072 27.4063 28.593 27.9554 28.3227C28.2257 28.2382 28.403 28.0524 28.403 27.3259ZM24.9567 25.966C25.0496 25.966 25.0496 25.966 24.9567 25.966C25.0496 25.8731 25.0496 25.8731 25.0496 25.7886C24.8722 25.6112 24.7793 25.4254 24.7793 25.1551C24.7708 25.4169 24.8638 25.6957 24.9567 25.966ZM30.405 27.7821C30.0418 28.1453 29.7714 28.6859 29.5856 29.235C29.4927 29.5982 29.4927 30.0543 29.5856 30.4175C29.5856 30.1472 29.5856 29.784 29.6785 29.5137C29.7714 28.9731 30.0418 28.517 30.405 28.0608V27.7821C30.405 27.7821 30.4894 27.6892 30.405 27.7821ZM33.8513 26.5995C32.7617 27.233 32.2211 28.4156 32.3985 29.5982C32.3055 28.5085 32.8546 27.4189 33.8513 26.8783C33.9442 26.8698 33.8513 26.6924 33.8513 26.5995ZM35.5745 28.6859L35.6674 28.7788H35.7603C36.1236 27.7821 36.85 26.9627 37.6694 26.3292V25.966C37.6694 25.966 37.6694 26.0589 37.5764 26.0589C36.7571 26.6924 36.0306 27.5962 35.5745 28.6859ZM30.6753 20.9738C30.405 21.1512 30.1347 21.43 29.9488 21.7003C29.5856 22.2409 29.4082 22.9673 29.4927 23.6938V23.7867C29.4927 23.1531 29.5856 22.6041 29.9488 22.0635C30.1262 21.7932 30.3121 21.5229 30.5824 21.43L30.6753 20.9738ZM34.3075 20.0616C33.9442 20.2389 33.581 20.6022 33.3107 20.8809C32.9475 21.3371 32.7701 21.8777 32.5843 22.4267C32.5843 22.5196 32.5843 22.6041 32.6772 22.6041C32.7701 22.148 33.0404 21.7003 33.3107 21.2441C33.581 20.8809 33.8513 20.6106 34.2145 20.3403C34.3075 20.3403 34.3075 20.2474 34.3075 20.1629V19.9855C34.4004 19.9771 34.4004 19.9771 34.3075 20.0616ZM38.5732 19.9771C38.0326 19.9771 37.4835 20.1545 37.0274 20.5177C36.4868 20.788 36.1236 21.3371 36.0306 21.8777C36.0306 21.9706 36.0306 22.055 36.1236 22.055C36.301 21.5144 36.6642 21.1512 37.1203 20.788C37.5764 20.5177 38.0241 20.2474 38.5732 20.2474C38.6661 20.2474 38.6661 20.1545 38.6661 20.07V19.8926L38.5732 19.9771ZM40.3893 21.9706L40.5667 21.8777C41.1073 21.5144 41.6563 21.3371 42.2898 21.2441C42.3828 21.2441 42.3828 21.2441 42.3828 21.0667V20.8894H42.2898C41.5634 21.0667 40.837 21.3455 40.2034 21.7932C40.1105 21.8861 40.0261 21.9706 40.2034 21.9706H40.3893ZM31.5791 13.0759C31.0385 13.4391 30.4894 13.8953 30.1262 14.4359C29.763 14.9765 29.5856 15.7029 29.6701 16.3449H29.763C29.763 15.8043 29.9404 15.2552 30.3036 14.7146C30.7597 14.174 31.2074 13.7179 31.7565 13.3547V12.8985C31.672 12.983 31.672 13.0759 31.5791 13.0759ZM36.3009 11.9863C35.7603 12.3495 35.3042 12.7127 34.8481 13.1688C34.3919 13.625 34.1216 14.2585 34.1216 14.892C34.1216 14.892 34.1216 14.9849 34.2145 14.9849H34.3075C34.4004 14.4443 34.6707 13.9882 35.0339 13.5321C35.49 13.0759 35.9377 12.7127 36.3939 12.4424V12.265L36.3009 11.9863ZM41.2086 11.7075C40.4822 11.8849 39.8487 12.341 39.2152 12.7972C38.8519 13.2533 38.5816 13.701 38.4887 14.343H38.5816C38.6745 13.8868 38.9448 13.4391 39.3081 13.1604C39.8487 12.6198 40.5751 12.2566 41.3016 12.0707C41.3945 12.0707 41.3945 11.9778 41.3945 11.8933V11.623C41.2931 11.623 41.2931 11.7075 41.2086 11.7075ZM45.2885 13.6165C44.7479 13.6165 44.1059 13.7094 43.5653 13.7939C43.2021 13.8868 42.8389 14.1571 42.5686 14.4274V14.5204L42.746 14.6133C42.9234 14.4359 43.2021 14.2501 43.4724 14.1571C44.013 14.0642 44.655 13.9797 45.1956 13.9797L45.2885 13.8868V13.6165C45.3814 13.6165 45.3814 13.6165 45.2885 13.6165ZM28.496 20.1545C28.403 20.6106 28.2257 20.6106 27.8624 20.8809C27.5921 21.0583 27.136 21.1512 26.7728 21.0583C26.5025 20.9654 26.3166 20.8809 26.2322 20.6951H26.1393C25.9619 20.8725 25.6831 20.9654 25.4128 21.0583C24.9567 21.2357 24.4161 21.0583 24.1458 20.6951C24.1458 20.6951 24.1458 20.6022 24.0529 20.6022V20.3319V20.4248C24.0529 20.6951 24.0529 20.9654 24.2302 21.2441C24.5005 21.6074 25.0496 21.7847 25.4973 21.7003C25.7676 21.6074 25.9534 21.43 26.2237 21.3371H26.3166C26.6799 21.8777 27.4063 21.9706 27.9469 21.6074H28.0398C28.2172 21.5144 28.403 21.3371 28.496 21.0667V20.1545C28.496 20.1545 28.496 20.0616 28.496 20.1545ZM45.0182 17.519C45.0182 17.6119 44.9253 17.6119 44.8408 17.6964C44.7479 17.6964 44.7479 17.6964 44.6634 17.6035C43.4809 16.6068 42.028 16.0577 40.4906 15.9732C36.2249 16.0661 32.0437 17.1558 28.327 19.0564C28.327 19.0564 28.2341 19.1493 28.327 19.1493L28.5044 19.3267C32.314 17.4177 36.4023 16.328 40.668 16.2435C42.2138 16.3365 43.6667 16.8771 44.8408 17.8738C44.8408 17.9667 44.9337 17.9667 45.0182 17.9667C45.1027 17.9667 45.1111 17.7893 45.1111 17.7893C45.1111 17.519 45.204 17.3332 45.204 17.0629C45.1111 17.2487 45.0182 17.4346 45.0182 17.519ZM38.7506 24.1499C38.2944 23.9725 37.8467 23.8796 37.3906 23.8796C34.2146 23.9725 31.0385 24.8763 28.2172 26.4221C28.2172 26.4221 28.1243 26.515 28.1243 26.5995C28.1243 26.684 28.2172 26.7769 28.2172 26.8698L28.3101 26.7769C31.123 25.1466 34.2146 24.3273 37.4835 24.2344C37.9397 24.2344 38.3029 24.3273 38.7506 24.5047H38.8435L38.7506 24.1499C38.8435 24.1499 38.8435 24.1499 38.7506 24.1499ZM38.8435 30.502C38.8435 30.5949 38.7506 30.5949 38.7506 30.5949C37.1203 30.502 35.3887 30.6878 33.8513 31.1355C32.1282 31.6761 30.5824 32.3181 29.0366 33.2219C28.9436 33.3148 28.9436 33.3148 29.0366 33.3993L29.1295 33.4922C30.6753 32.5884 32.2126 31.9464 33.9442 31.4058C35.5745 30.9497 37.2132 30.6794 38.8435 30.7723H38.9364L38.8435 30.502ZM55.729 45.0308C55.0954 45.4869 54.369 45.9346 53.5496 46.2133L53.6426 46.3907C54.369 46.1204 55.0025 45.6643 55.636 45.2082H55.729C56.8186 44.9379 61.1772 43.3921 63.8127 43.2991C65.443 43.2991 67.0817 43.6624 68.5346 44.4817C69.261 44.9379 69.9874 45.4785 70.528 46.112C70.528 46.112 70.528 46.2049 70.621 46.2049C70.621 46.2049 70.7139 46.2049 70.7139 46.112C70.8913 45.6559 70.9842 45.2082 70.9842 44.6591C70.9842 45.0223 70.8913 45.4785 70.7139 45.8417L70.621 45.9346C70.528 45.9346 70.528 45.8417 70.528 45.8417C69.9874 45.2082 69.261 44.6591 68.5346 44.2114C67.0817 43.3921 65.4514 43.0288 63.8127 43.0288C61.1772 43.0288 56.8186 44.6591 55.729 44.9379C55.8219 45.0308 55.729 45.0308 55.729 45.0308ZM67.0817 52.8358C66.9888 52.9287 66.9043 52.9287 66.7185 52.9287C66.3552 52.4725 65.992 52.1093 65.5359 51.7461C64.9953 51.29 64.3533 51.0197 63.7198 50.8423C62.723 50.6649 61.6334 50.572 60.6366 50.7494C58.6432 51.0197 56.7342 51.6532 54.9181 52.7429L54.8251 52.8358L54.9181 52.9287C56.6412 51.9319 58.6432 51.2984 60.6366 51.0197C61.6334 50.8423 62.723 50.8423 63.7198 51.1126C64.3533 51.29 64.9868 51.5687 65.5359 52.0164C65.992 52.3796 66.3552 52.7429 66.7185 53.199C66.8114 53.199 66.9888 53.199 67.0817 53.1061C67.1746 52.8358 67.2591 52.6499 67.2591 52.3796C67.2591 52.5655 67.1746 52.7513 67.0817 52.8358ZM62.816 60.4634H62.6386C62.3683 60.1931 62.0051 59.9228 61.6418 59.644C60.738 59.1879 59.6483 59.0105 58.6432 59.1879C57.1903 59.4582 55.7374 60.0072 54.5548 61.004C54.4619 61.0969 54.4619 61.1814 54.4619 61.1814L54.5548 61.2743C55.7374 60.3705 57.0974 59.7285 58.6432 59.4582C59.6399 59.3653 60.7296 59.4582 61.6418 59.9143C62.0051 60.0917 62.3683 60.3705 62.6386 60.7337H62.816C63.0863 60.4634 63.1792 60.1931 63.1792 59.8298C63.1792 60.0072 62.9933 60.286 62.816 60.4634Z" fill="#432918"></path> <path d="M58.6345 42.125L58.9048 42.0321L60.3577 41.6689C60.4506 41.6689 60.4506 41.5759 60.4506 41.5759C60.628 40.8495 60.9067 40.216 61.3544 39.5825C62.1738 38.4928 63.7111 38.2225 64.8937 38.856C64.9866 38.9489 64.9866 39.0334 64.8937 39.0334L64.8008 39.1263C64.3447 39.3037 63.9814 39.5825 63.7111 39.9457C63.4408 40.216 63.1705 40.6721 63.0776 41.0353V41.1282C63.1705 41.1282 63.897 41.1282 64.1673 41.2212C64.2602 41.2212 64.2602 41.2212 64.2602 41.1282C64.5305 40.4018 64.8937 39.6754 65.5272 39.1348C66.1607 38.5942 66.9801 38.5012 67.7995 38.7715C68.2556 38.8645 68.7033 39.2277 68.8891 39.6754C68.8891 39.6754 68.8891 39.7683 68.7962 39.7683C68.2556 39.8612 67.7995 40.1315 67.3433 40.4018C66.9801 40.6721 66.7098 41.0353 66.4395 41.3986C66.4395 41.3986 66.3466 41.4915 66.5324 41.5759L67.6221 41.8462H67.7995C68.2556 41.2127 68.8891 40.7566 69.6156 40.6637C70.7052 40.4863 71.702 40.934 71.8878 41.6604C71.8878 41.7533 71.9807 41.9307 71.8878 41.8378C71.2543 41.8378 70.7052 42.1081 70.2575 42.4713L69.9872 42.7416L69.8943 42.8345C70.1646 43.1048 70.984 43.6539 70.984 44.4648C70.984 45.0054 70.984 45.4615 70.7137 46.0106L70.6207 46.1035C70.5278 46.1035 70.5278 46.0106 70.5278 46.0106C69.9872 45.3771 69.2608 44.828 68.5343 44.3803C67.0815 43.561 65.4512 43.1978 63.8125 43.1978C61.177 43.1978 56.8184 44.828 55.7288 45.1068H55.6358C55.7288 45.1237 56.3707 44.4901 58.6345 42.125ZM65.5357 47.4804C64.9951 47.7507 64.5389 48.1139 64.1757 48.6629C64.1757 48.6629 64.0828 48.8403 64.0828 48.7559C63.8125 48.7559 63.3564 48.6629 63.0861 48.6629C62.9931 48.6629 62.9931 48.57 62.9931 48.57C63.0861 48.2068 63.2634 47.9365 63.5337 47.6662C63.897 47.303 64.3531 46.9398 64.8008 46.7624C64.8008 46.7624 64.8937 46.7624 64.8937 46.6695C64.5305 46.3062 64.0743 46.0359 63.5337 46.0359C62.9002 46.0359 62.1738 46.2133 61.7176 46.7624C61.177 47.303 60.8138 48.1223 60.7209 48.9417C60.7209 49.0346 60.628 49.0346 60.628 49.0346C60.3577 49.0346 60.0874 49.1275 59.8086 49.1275V49.0346C59.8086 48.5785 59.9015 48.2152 60.0789 47.852C60.4422 47.1256 60.9828 46.585 61.7092 46.1288C61.8021 46.0359 61.8021 45.9515 61.8021 45.8585C60.9828 45.4953 60.0789 45.5882 59.2596 46.1288C58.8034 46.3992 58.3558 46.8553 58.077 47.3114C57.8067 48.0379 57.6209 48.7643 57.5364 49.5837C57.5364 49.6766 57.4435 49.6766 57.4435 49.6766C57.0803 49.7695 56.81 49.854 56.4467 49.9469C56.4467 49.9469 56.3538 49.9469 56.3538 49.854C56.2609 49.1275 56.4467 48.4011 56.81 47.7676C56.9874 47.4973 57.1732 47.227 57.4435 47.0411C57.5364 47.0411 57.5364 46.9482 57.4435 46.8637L57.3506 46.7708C56.717 46.6779 56.0835 46.7708 55.4416 47.134C54.7151 47.4973 54.259 48.2237 54.1745 49.043C54.0816 49.5837 54.1745 50.2256 54.2674 50.7662C54.2674 50.7662 54.2674 50.8591 54.1745 50.8591C53.9971 50.9521 53.3552 51.3153 53.1778 51.3998H53.0848C52.9919 50.9436 52.7216 50.5804 52.2655 50.403C51.8094 50.2256 51.3617 50.2256 50.9985 50.4959C50.7281 50.6733 50.5423 50.8591 50.3649 51.1294C50.1875 51.5856 50.272 52.1262 50.7282 52.4894C50.7282 52.4894 50.8211 52.5823 50.7282 52.5823C50.4579 52.7597 50.4578 52.7597 50.272 53.0385C50.0946 53.4946 50.0946 53.9423 50.4494 54.3055C50.9055 54.939 51.7164 55.1249 52.3584 54.6687C52.4513 54.6687 52.4513 54.5758 52.5358 54.5758C52.5358 54.5758 52.6287 54.5758 52.6287 54.6687C52.7216 54.8461 52.899 55.0319 53.0848 55.1249C53.541 55.3952 53.9887 55.3952 54.4448 55.1249C54.901 54.8546 55.0783 54.3984 55.0783 53.9423C55.0783 53.672 54.9854 53.4017 54.7151 53.2158C54.7151 53.2158 54.7151 53.1229 54.808 53.1229C56.5312 52.1262 58.5331 51.4927 60.5266 51.2139C61.5234 51.0365 62.613 51.0365 63.6098 51.3068C64.2433 51.4842 64.8768 51.763 65.4259 52.2107C65.882 52.5739 66.2452 52.9371 66.6084 53.3932C66.7014 53.3932 66.8787 53.3932 66.9717 53.3003C67.149 52.8442 67.242 52.3036 66.9717 51.7545C66.7014 51.121 66.3381 50.4875 65.882 50.0313V49.9384C65.882 49.8455 65.882 49.8455 66.0594 49.6681C66.5155 49.212 67.0561 48.9417 67.6896 48.7643C67.7826 48.7643 67.7826 48.6714 67.7826 48.5869C67.4447 47.5733 66.4479 47.2101 65.5357 47.4804ZM76.5252 5.17799C76.5252 5.17799 76.1619 26.2447 75.8916 36.6851C75.7987 39.7683 75.2581 42.767 74.2614 45.6727C73.0788 48.9417 71.4485 52.1177 69.5395 55.0235C67.546 58.0222 65.088 60.7421 62.2751 63.0143C61.1855 63.9181 60.0029 64.7375 58.8288 65.5569C56.9198 66.7394 54.9263 67.7362 52.9244 68.5555C52.2908 68.8258 51.6573 69.0961 51.1083 69.282C50.5677 69.4594 50.0186 69.6452 49.3851 69.8226C48.8445 69.6452 48.2025 69.5523 47.6619 69.282C47.1213 69.1046 46.5722 68.8258 45.8458 68.5555C43.7594 67.7362 41.8504 66.7394 39.9414 65.5569C38.7588 64.8304 37.5847 63.9266 36.495 63.0143C33.6822 60.7421 31.2326 58.0222 29.2306 55.0235C27.3216 52.1177 25.6914 48.9417 24.5088 45.6727C23.512 42.767 22.963 39.7683 22.8785 36.6851C22.6082 26.2447 22.245 5.17799 22.245 5.17799C22.245 5.17799 22.3379 5.17799 22.4224 5.08507C25.2352 3.99541 28.141 2.99867 31.0467 2.27223C35.1266 1.26704 39.2065 0.633522 43.3877 0.270303C45.3812 0.0929166 47.2902 0 49.2922 0H49.4696C51.556 0 53.3721 0.0929166 55.374 0.270303C59.5468 0.633522 63.6351 1.26704 67.7234 2.26379C70.6292 2.99022 73.5349 3.98697 76.3478 5.07662C76.4322 5.08507 76.5252 5.17799 76.5252 5.17799ZM24.7706 43.4849H41.2929C39.7471 41.8547 38.9362 39.6754 38.8433 37.4031V37.1328H23.7739C23.8668 39.2192 24.23 41.3986 24.7706 43.4849ZM48.6502 58.6472H33.2176C34.4002 59.9143 35.5743 61.0969 36.9427 62.1865C38.0324 63.0903 39.122 63.9097 40.3046 64.6361C42.1207 65.7258 44.0297 66.7225 46.0232 67.5419C46.6567 67.8122 47.2058 68.0825 47.7464 68.2683C48.1096 68.3612 48.4728 68.5386 48.7431 68.6316L48.6502 58.6472ZM48.6502 51.4758H28.1325C28.6731 52.4725 29.2222 53.4693 29.8557 54.3815C30.6751 55.5641 31.486 56.7382 32.4912 57.8279H48.6502V51.4758ZM48.6502 47.1171C46.2935 46.9398 44.1142 46.0275 42.3826 44.4817C42.2896 44.3888 42.2052 44.3043 42.0193 44.2114H24.9565C25.0494 44.5746 25.2268 44.9378 25.3197 45.301C25.9532 47.1171 26.7726 48.9332 27.6764 50.5635H48.6502V47.1171ZM48.6502 8.62435C46.927 8.62435 45.2883 8.71726 43.4722 8.89465C39.4768 9.25787 35.4814 9.89139 31.5789 10.8037C28.766 11.5301 25.9532 12.4339 23.2248 13.5236C23.3178 20.2389 23.4951 30.1388 23.681 36.3135H38.7504V30.6878H38.6659C37.0356 30.5949 35.304 30.7807 33.7667 31.3213C32.0435 31.8619 30.4977 32.5039 28.9519 33.4077C28.859 33.5006 28.859 33.5006 28.9519 33.5851C29.1293 33.8554 29.3151 34.1257 29.408 34.4045C29.5009 34.7677 29.3151 35.2238 28.9519 35.4012C28.6816 35.5786 28.3184 35.6715 27.9551 35.5786C27.6848 35.4857 27.499 35.3083 27.3216 35.1225C27.2287 35.0295 27.2287 35.1225 27.1442 35.2154C26.9668 35.3083 26.6881 35.4857 26.5107 35.5786C26.0546 35.756 25.514 35.6715 25.2437 35.2154C24.9734 34.7592 24.9734 34.2186 25.2437 33.8554C25.4211 33.678 25.6069 33.5851 25.7843 33.4922C25.7843 33.4922 25.8772 33.3993 25.7843 33.3993C25.6914 33.2219 25.6069 33.129 25.514 32.9431C25.3366 32.487 25.514 32.0393 25.8772 31.6761C26.2404 31.4058 26.6965 31.4058 27.1442 31.5832C27.4145 31.6761 27.6004 32.0393 27.7778 32.3096C27.7778 32.4025 27.8707 32.4025 27.8707 32.4025L28.2339 32.1322C28.3268 32.1322 28.2339 31.9548 28.2339 31.9548C27.7778 30.7723 27.6004 29.8685 28.0565 29.0491C28.3268 28.5085 28.8759 28.1453 29.4165 27.9594C29.7797 27.8665 30.1429 27.8665 30.5061 28.0524V28.1453C30.1429 28.5085 29.8726 29.0491 29.6868 29.5981C29.5939 30.0543 29.5939 30.5949 29.7797 31.051C29.7797 31.1439 29.8726 31.1439 29.9571 31.1439C30.1345 31.051 30.6835 30.8736 30.8609 30.8736C30.9538 30.8736 30.8609 30.7807 30.8609 30.6963C30.6835 29.9698 30.6835 29.1505 30.9538 28.424C31.41 27.4273 32.4996 26.7938 33.5893 26.8782C33.7667 26.8782 34.0454 27.0556 33.8596 27.1485C32.7699 27.7821 32.2293 28.9646 32.4067 30.1472L32.4996 30.2401C32.8628 30.1472 33.319 30.0627 33.5893 29.8769C33.6822 29.8769 33.6822 29.784 33.6822 29.6995C33.6822 28.7957 34.0454 27.8834 34.586 27.157C35.2195 26.4305 36.2163 26.0673 37.2215 26.0673C37.3988 26.1602 37.5847 26.2447 37.6776 26.3376V26.515C36.6809 27.1485 35.9544 28.0608 35.5912 29.1505L35.6841 29.2434C36.2247 29.2434 36.8667 29.1505 37.4073 29.066C37.5002 29.066 37.5002 29.066 37.5002 28.9731C37.6776 28.3396 38.1337 27.706 38.7673 27.3428C38.7673 27.3428 38.8602 27.3428 38.8602 27.2499V24.53H38.7504C38.2942 24.3526 37.8465 24.2597 37.3904 24.2597C34.2143 24.3526 31.0383 25.2564 28.217 26.8022C28.217 26.8022 28.1241 26.8951 28.1241 26.9796C28.4873 27.7989 28.3015 28.2466 27.7609 28.6099C27.2203 28.9731 26.5783 28.7872 26.2151 28.2466C26.2151 28.1537 26.1222 28.1537 26.0377 28.2466C25.7674 28.424 25.3112 28.6099 24.948 28.5169C24.5848 28.5169 24.2216 28.2466 24.1287 27.8834C23.9513 27.2499 24.3061 26.5235 24.948 26.3376C25.0409 26.3376 25.0409 26.2447 24.948 26.2447C24.5848 25.7886 24.5848 25.155 25.0409 24.7918L25.1339 24.6989C25.6745 24.4286 26.4009 24.5215 26.6796 25.0621C26.6796 25.155 26.7726 25.2395 26.7726 25.3324C26.7726 25.4253 26.7726 25.3324 26.8655 25.3324C27.0429 25.3324 27.2287 25.2395 27.4061 25.155C27.499 25.155 27.5835 24.8847 27.5835 24.7918C27.5835 23.4319 27.5835 22.5196 28.4873 21.6158C28.8505 21.2526 30.2105 20.8893 30.5737 21.3455V21.4384C30.3034 21.6158 30.0331 21.8945 29.8473 22.1648C29.484 22.7054 29.3067 23.4319 29.3911 24.1583C29.3911 24.1583 29.3911 24.2512 29.484 24.2512C29.8473 24.1583 30.3034 23.9809 30.6666 23.7951V23.7022C30.5737 22.7983 30.844 21.7932 31.486 21.0667C32.1195 20.4332 33.5724 19.7068 34.2988 20.3403C34.3917 20.4332 34.2988 20.5177 34.2059 20.5177C33.8427 20.6951 33.4795 20.9738 33.2092 21.337C32.8459 21.7932 32.6685 22.3338 32.4827 22.8828C32.4827 22.9757 32.5756 23.0602 32.5756 23.0602C32.9389 22.9673 33.4795 22.8828 33.8427 22.7899C34.0201 22.697 33.9356 22.697 34.0201 22.5196C34.113 21.0667 35.2871 19.8841 36.74 19.7068C37.2806 19.6138 37.7367 19.7068 38.1929 19.8841L38.4632 20.1544V20.3318C37.9226 20.3318 37.3735 20.5092 36.9174 20.8724C36.3768 21.1427 36.0135 21.6918 35.9206 22.2324C35.9206 22.3253 35.9206 22.4098 36.0135 22.4098H37.3735C37.4664 22.4098 37.4664 22.4098 37.4664 22.3169C37.7367 21.4975 38.4632 20.864 39.2825 20.5937C40.1863 20.2305 41.276 20.5008 42.0024 21.2272C42.0954 21.3201 42.0954 21.4046 42.0024 21.4046C41.276 21.582 40.5496 21.8607 39.916 22.3084C39.8231 22.4013 39.7387 22.4858 39.916 22.4858H48.4475L48.6502 8.62435ZM55.7288 45.1237C55.0952 45.5798 54.3688 46.0275 53.5494 46.3062L53.6424 46.4836C53.7353 46.661 53.7353 46.8468 53.7353 47.1171C53.7353 47.3874 53.5579 47.6577 53.1947 47.7507C52.8314 47.9281 52.3753 47.8436 52.105 47.5733C51.9276 47.8436 51.5644 47.9365 51.2012 47.8436C50.9309 47.7507 50.6606 47.5733 50.5677 47.3874C50.4747 47.2945 50.4747 47.1171 50.4747 47.1171C50.2044 47.1171 49.8412 47.2101 49.5709 47.2101V68.8174C49.9341 68.7245 50.3903 68.5471 50.9309 68.3612C51.4715 68.1839 52.0205 67.9051 52.6541 67.6348C54.6475 66.8155 56.5566 65.8187 58.3727 64.7291C59.5552 64.0026 60.6449 63.1833 61.7345 62.2794C64.4545 60.0072 66.8196 57.4647 68.7286 54.5589C70.6376 51.7461 72.0905 48.6545 73.2646 45.4784C74.2614 42.7585 74.7175 39.9372 74.8104 37.0315H59.9184V37.5721C59.91 40.4947 58.3642 43.4005 55.7288 45.1237ZM75.0723 29.5052H60.0029V36.1361H74.8949C74.9794 34.1342 74.9794 31.8704 75.0723 29.5052ZM75.1568 22.9673H59.9945V28.593H75.0723C75.1568 26.6924 75.1568 24.7834 75.1568 22.9673ZM75.3426 15.6184H49.6469V21.9705H75.2497C75.2497 19.7912 75.2497 17.6119 75.3426 15.6184ZM75.3426 13.5236C72.6227 12.4339 69.8014 11.5301 66.9886 10.8037C63.0861 9.89984 59.0906 9.1734 55.0952 8.89465C53.1862 8.71726 51.463 8.62435 49.554 8.62435V14.892H75.2497C75.3426 14.3429 75.3426 13.9797 75.3426 13.5236ZM75.52 6.08181C75.4271 6.08181 75.4271 5.98889 75.3426 5.98889C72.6227 4.89924 69.8943 3.99541 66.9886 3.26897C63.0861 2.36515 59.0906 1.63871 55.0952 1.35996C53.1017 1.18257 51.3701 1.08966 49.3766 1.08966H49.1992C47.2058 1.08966 45.4741 1.18257 43.4807 1.35996C39.4852 1.72318 35.4898 2.3567 31.5873 3.26897C28.7745 3.99541 25.9617 4.89924 23.2333 5.98889C23.1404 5.98889 23.0559 6.08181 23.0559 6.08181C23.0559 6.08181 23.0559 8.80173 23.1488 12.7127H23.2417C25.9617 11.623 28.69 10.7192 31.5958 9.99275C35.4983 9.08893 39.4937 8.36249 43.4891 8.08374C45.4826 7.90635 47.2142 7.81344 49.2077 7.81344H49.3851C51.3786 7.81344 53.1102 7.99082 55.1037 8.08374C59.0991 8.44696 63.0945 9.08048 66.997 9.99275C69.8098 10.7192 72.6227 11.623 75.351 12.7127H75.444C75.4355 8.71726 75.52 6.08181 75.52 6.08181ZM61.5403 56.2905C61.0841 56.5608 60.8138 57.017 60.5435 57.4731C60.5435 57.4731 60.5435 57.566 60.4506 57.566L59.8171 57.3886V57.2957C60.2732 56.4764 60.9997 55.9358 61.8106 55.6655V55.5726C61.4473 54.7532 59.9016 54.8461 59.0906 55.3952C58.3642 55.8513 57.8236 56.5777 57.6378 57.4816V57.5745C57.4604 57.6674 57.1816 57.6674 57.0042 57.7519C57.0042 57.7519 56.9113 57.7519 56.9113 57.6589C56.8184 57.2957 56.9113 56.8396 57.0887 56.4764C57.359 56.0202 57.6293 55.657 57.9925 55.2938C58.0855 55.2009 58.0855 55.2009 57.9925 55.1164C57.5364 54.8461 56.9958 54.8461 56.5397 55.1164C55.9061 55.4796 55.3571 56.0202 55.1797 56.7467C55.0868 57.2873 55.0868 57.8363 55.1797 58.3769V58.4699C55.0023 58.5628 54.8165 58.6472 54.5462 58.7402H54.4533C54.09 58.0137 54.183 57.1944 54.7236 56.5608C54.8165 56.5608 54.8165 56.4679 54.7236 56.4679C54.183 56.375 53.541 56.5608 53.1778 57.0085C52.7216 57.5491 52.6372 58.2756 52.8145 58.9175C52.9075 59.1878 52.9919 59.4582 53.0848 59.644C53.0848 59.644 53.1778 59.7369 53.0848 59.7369C52.9075 59.8298 52.8146 59.9143 52.6287 60.1001H52.5358C52.3584 59.7369 52.0797 59.5595 51.7164 59.3737C51.3532 59.2808 51.0829 59.3737 50.8126 59.644C50.3565 60.0072 50.3565 60.7336 50.8126 61.0969C50.9055 61.1898 51.0829 61.2742 51.2688 61.3672C51.2688 61.3672 51.3617 61.3672 51.2688 61.4601C50.9984 61.6375 50.8126 61.8233 50.7282 62.0936C50.5508 62.4568 50.6352 62.9974 50.9985 63.2762C51.2688 63.4536 51.5391 63.5465 51.8178 63.5465C52.2739 63.3691 52.6372 63.0903 52.8145 62.6427C52.8145 62.6427 52.9075 62.5497 52.9075 62.6427C53.0848 62.913 53.3636 63.0988 53.6339 63.1833C53.9971 63.2762 54.3603 63.1833 54.5377 63.0059C54.901 62.7356 54.9939 62.2794 54.9009 61.8233C54.7236 61.553 54.5377 61.3672 54.3603 61.1898C54.3603 61.1898 54.3603 61.0969 54.4533 61.0124C55.6358 60.1086 56.9958 59.4666 58.5416 59.1963C59.5383 59.1034 60.628 59.1963 61.5403 59.6524C61.9035 59.8298 62.2667 60.1086 62.537 60.4718C62.537 60.4718 62.7144 60.5647 62.7144 60.4718C63.1705 60.0157 63.255 59.3821 62.8073 58.8415C62.6299 58.6641 62.4441 58.4783 62.1738 58.3854C62.3512 57.9293 62.6299 57.566 63.0776 57.2028C63.3479 57.0254 63.6182 56.9325 63.897 56.7467C63.9899 56.7467 63.9899 56.6538 63.897 56.6538C63.7196 55.8344 62.2667 55.8344 61.5403 56.2905ZM43.9283 12.4339C44.6548 12.5268 45.1954 12.9745 45.4741 13.6165L45.3812 13.7094C44.8406 13.7094 44.1986 13.8023 43.658 13.8868C43.2948 14.0642 42.9316 14.25 42.6613 14.5203V14.6132C43.2948 14.7906 43.9283 15.0694 44.4774 15.61C45.018 16.0661 45.2968 16.877 45.1109 17.6035C45.1109 17.6964 45.018 17.6964 44.9335 17.7809C44.8406 17.7809 44.7561 17.7809 44.7561 17.6879C43.5736 16.6912 42.1207 16.1421 40.5834 16.0577C36.3176 16.1506 32.1364 17.2402 28.4197 19.1408C28.4197 19.1408 28.3268 19.2337 28.4197 19.2337C28.5971 19.504 28.69 19.7743 28.69 20.1376C28.5971 20.5937 28.4197 20.5937 28.0565 20.864C27.6004 21.2272 26.8739 21.2272 26.4262 20.6866V20.6106H26.3333C26.1559 20.788 25.8772 20.8809 25.6069 20.9738C25.1508 21.1512 24.6101 20.9738 24.3398 20.6106C24.0695 19.9771 24.2469 19.1577 24.8804 18.8874C25.514 18.6171 24.9734 18.7945 24.8804 18.7945C24.6101 18.2539 24.7875 17.6119 25.2437 17.3416C25.6998 17.0713 26.6965 16.8855 26.9668 17.7977C26.9668 17.7977 26.9668 17.8907 27.0598 17.8907C27.3301 17.7977 27.5159 17.7133 27.6933 17.6204C27.7862 17.6204 27.7862 17.443 27.7862 17.3501C27.5159 16.2604 27.6933 15.0778 28.3268 14.0811C29.2306 12.9914 30.4132 12.5353 31.5958 12.9914C31.6887 12.9914 31.5958 13.0843 31.5958 13.1688C31.1396 13.6249 30.5061 13.9882 30.1429 14.5288C29.7797 15.0694 29.6023 15.7958 29.6023 16.4378H29.6952C30.3287 16.2604 31.0552 15.9816 31.7816 15.7113C31.8745 15.7113 31.959 15.7113 31.8745 15.6184C31.8745 15.2552 31.8745 14.7991 31.9675 14.4359C32.1448 13.3462 32.8713 12.3495 33.9609 11.8933C34.6874 11.5301 35.5067 11.5301 36.3176 11.8933C36.4106 11.8933 36.4106 11.9862 36.3176 12.0707C35.777 12.4339 35.3209 12.7971 34.8648 13.2533C34.4086 13.7094 34.1383 14.3429 34.1383 14.9765V15.0694C34.7718 14.892 35.4054 14.7991 36.1318 14.7062C36.2247 14.7062 36.2247 14.6132 36.2247 14.6132C36.3176 13.9797 36.8582 12.341 37.6776 11.8004C38.5814 11.1669 39.6711 10.981 40.6763 11.2598C40.9466 11.3527 41.1324 11.5301 41.2169 11.7159C41.2169 11.7159 41.2169 11.8089 41.124 11.8933C40.3975 12.1636 39.764 12.5268 39.1305 12.983C38.7673 13.4391 38.497 13.8868 38.404 14.5288H40.2201C40.2201 14.5288 40.313 14.5288 40.313 14.4359C40.5833 13.7094 41.1324 13.1688 41.7659 12.8056C42.4755 12.4339 43.2019 12.3495 43.9283 12.4339Z" fill="url(#paint1_linear)"></path> <path d="M67.901 4.08829C70.0803 4.6289 72.1667 5.35533 74.1687 6.17469C74.2616 6.17469 74.2616 6.26761 74.2616 6.35208V7.26435C74.2616 7.35726 74.1687 7.35726 74.0842 7.35726C72.8172 6.90113 71.0011 6.26761 69.3624 5.81147H69.2694V6.35208C69.2694 6.35208 69.2694 6.44499 69.3624 6.44499C70.9926 6.90113 72.6313 7.44173 74.0842 7.99078C74.0842 7.99078 74.1771 7.99078 74.1771 8.0837V9.53658C72.7242 8.99597 71.0011 8.44692 69.2779 7.99078H69.185V8.53139C69.185 8.53139 69.185 8.62431 69.2779 8.62431C70.9081 9.08044 72.5469 9.62105 74.0927 10.1701L74.1856 10.263V11.4456C74.1856 11.4456 74.1856 11.5385 74.0927 11.5385C72.0063 10.7192 69.9198 10.0856 67.825 9.54502L67.7321 9.45211C67.8081 7.53465 67.8081 5.90439 67.901 4.08829ZM60.6366 7.89787C61.0928 7.99078 61.5405 8.07525 61.9037 8.07525C61.9037 8.07525 61.9966 8.07525 61.9966 7.98234V6.17469H62.0895C63.1792 6.35208 64.1759 6.53791 65.2656 6.80821C65.2656 6.80821 65.443 6.80821 65.443 6.90113V8.71722C65.443 8.81014 65.443 8.81014 65.5359 8.81014C65.992 8.90306 66.3552 8.98753 66.7185 9.08044H66.8114C66.9043 7.8134 66.9043 5.63408 66.9043 3.90246V3.80954C66.4482 3.71663 66.0849 3.63216 65.6372 3.53924L65.5443 3.63216C65.5443 4.26568 65.5443 4.8992 65.4514 5.54117C64.3618 5.36378 63.2721 5.08503 62.1824 4.90765V4.81473V2.90572C62.1824 2.90572 62.1824 2.8128 62.0895 2.8128C61.6334 2.71989 61.2702 2.71989 60.907 2.63542C60.5437 2.55095 60.814 2.63542 60.814 2.72833C60.7211 3.53924 60.6366 6.90113 60.6366 7.89787ZM55.0954 1.90898C54.5548 1.90898 54.0058 2.2722 53.9129 2.90572V6.35208C53.9129 6.71529 54.1832 7.07851 54.6393 7.17143C56.4554 7.34882 58.1786 7.53465 60.1805 7.80495C60.1805 7.80495 60.2734 7.80495 60.2734 7.71204V6.52946L60.1805 6.43654C58.8205 6.25916 57.0974 6.07333 55.5516 5.89594C55.4587 5.89594 55.3742 5.80302 55.3742 5.71855V3.36185C55.3742 3.26894 55.5516 3.18447 55.6445 3.18447C57.1903 3.27738 58.7276 3.54769 60.2734 3.72507C60.2734 3.72507 60.3663 3.72507 60.3663 3.63216V2.5425C60.3663 2.44958 60.3663 2.44958 60.2734 2.44958C58.4573 2.2722 57.1818 2.17928 55.0954 1.90898ZM52.7387 1.81606C51.0156 1.72314 49.1995 1.72314 47.4763 1.72314C47.1131 1.72314 46.6569 1.99345 46.6569 2.35667V4.26568C46.6569 4.6289 47.1975 4.99212 47.5608 4.99212C48.9207 4.99212 50.1033 4.99212 51.3703 5.08503C51.4632 5.08503 51.5477 5.17795 51.5477 5.26242V5.62564C51.5477 5.71855 51.4548 5.71855 51.4548 5.71855C49.909 5.71855 48.3717 5.62564 46.8259 5.81147C46.7329 5.81147 46.7329 5.81147 46.7329 5.90439L46.64 6.99404V7.08696C48.4561 6.99404 50.2722 6.99404 52.0883 7.08696C52.5445 7.08696 52.9077 6.72374 52.9921 6.36052V4.53598C52.9921 4.17276 52.536 3.90246 52.2657 3.90246C50.9987 3.80954 49.5458 3.90246 48.1774 3.80954C48.0845 3.80954 48.0845 3.71663 48.0845 3.63216V3.17602C48.0845 3.0831 48.1774 3.0831 48.1774 3.0831C49.4444 2.99019 51.3534 3.0831 52.7134 3.17602C52.8063 3.17602 52.8908 3.0831 52.8908 2.99863V2.08636C52.9161 1.90898 52.8232 1.81606 52.7387 1.81606ZM45.0182 5.17795C45.3814 5.00056 45.6517 4.63734 45.5588 4.27412C45.5588 3.73352 45.5588 3.18447 45.4659 2.64386C45.373 2.28064 45.0098 1.91742 44.5621 1.91742C43.295 1.91742 40.6596 2.28064 39.1138 2.45803V7.8134L40.4738 7.63601V6.08177L43.1937 5.81147C43.464 5.81147 43.7343 5.90439 43.9201 6.26761C44.0975 6.53791 44.1904 6.90113 44.2833 7.26435L45.6433 7.17143H45.7362C45.8376 6.35208 45.5673 5.62564 45.0182 5.17795ZM44.0215 3.99538C44.0215 4.26568 43.8441 4.45151 43.6583 4.45151L40.5751 4.72181V3.63216L43.8441 3.36185C43.937 3.36185 44.1144 3.45477 44.1144 3.53924L44.0215 3.99538ZM38.3874 3.53924C38.3874 3.26894 38.2944 3.0831 38.117 2.99863C37.9397 2.82125 37.6609 2.72833 37.4835 2.72833C35.9377 2.99863 34.3075 3.26894 32.7617 3.63216C32.4914 3.72507 32.3055 3.80954 32.1282 4.08829C31.9508 4.26568 31.8579 4.45151 31.8579 4.72181V7.99078C31.8579 8.26109 31.9508 8.53139 32.1282 8.71722C32.2211 8.89461 32.4914 9.08044 32.7617 9.08044C34.3075 8.71722 35.9377 8.44692 37.4835 8.17662C37.7538 8.0837 38.0241 7.90632 38.3029 7.72048C38.4803 7.5431 38.5732 7.26435 38.5732 7.08696L38.3874 3.53924ZM36.85 6.53791C36.85 6.63083 36.7571 6.80821 36.6726 6.80821C36.5797 6.90113 36.4952 6.90113 36.3094 6.9856C35.49 7.16298 34.223 7.34882 33.4036 7.5262C33.3107 7.5262 33.2263 7.5262 33.1333 7.43329C33.0404 7.34037 33.0404 7.2559 33.0404 7.16298V5.08503C33.0404 4.99212 33.0404 4.90765 33.1333 4.81473C33.2263 4.72181 33.3107 4.63734 33.4966 4.63734C34.3159 4.45996 35.4056 4.27412 36.3094 4.09674C36.4023 4.09674 36.4868 4.09674 36.6726 4.18966C36.7655 4.28257 36.85 4.36704 36.85 4.45996V6.53791V6.53791ZM31.1314 5.08503C31.1314 4.81473 30.954 4.6289 30.7682 4.54443C30.4979 4.36704 30.2276 4.27413 29.9488 4.36704C28.0398 4.82318 26.1393 5.54962 24.2302 6.27605C24.1373 6.27605 24.1373 6.36897 24.1373 6.45344V11.7159C24.1373 11.7159 25.4973 11.1753 25.7676 11.0824V9.45211C25.7676 9.45211 25.7676 9.35919 25.8605 9.35919L30.5824 7.90632C30.7597 7.8134 30.8527 7.72893 30.9456 7.63601C31.0385 7.5431 31.123 7.36571 31.123 7.17988L31.1314 5.08503ZM29.5856 6.63083C29.5856 6.72374 29.4082 6.90113 29.3153 6.99404L25.869 8.0837H25.776V7.07851C25.776 6.9856 25.869 6.9856 25.869 6.9856C27.0515 6.52946 28.1412 6.16624 29.4082 5.80302C29.5012 5.80302 29.5856 5.89594 29.5856 5.98041V6.63083Z" fill="url(#paint2_linear)"></path> <path d="M25.8605 7.17157C25.7676 7.17157 25.7676 7.26448 25.7676 7.26448V6.99418C25.7676 6.90127 25.8605 6.90127 25.8605 6.90127C27.0431 6.44513 28.1327 6.08191 29.3069 5.71869C29.3998 5.71869 29.4842 5.81161 29.4842 5.89608V6.16638C29.4842 6.07347 29.3913 5.989 29.2139 5.989C28.2257 6.35221 27.0431 6.71543 25.8605 7.17157ZM31.2159 7.07865C31.2159 7.25604 31.123 7.44187 31.0385 7.53479C30.9456 7.6277 30.7682 7.80509 30.6753 7.80509L25.9534 9.25796L25.8605 9.35088V9.62118V9.52827L30.5824 8.07539C30.7597 7.98248 30.8527 7.89801 30.9456 7.80509C31.0385 7.71217 31.123 7.53479 31.123 7.34895V7.07865H31.2159ZM25.8605 10.8967C25.8605 10.8967 25.8605 10.9896 25.8605 10.8967C25.4973 11.0741 24.1373 11.6231 24.1373 11.6231V11.8934C24.1373 11.8934 25.4973 11.3528 25.7676 11.2599V10.8967H25.8605ZM36.6642 4.1729C36.5712 4.07999 36.4868 4.07999 36.3009 4.07999C35.3971 4.1729 34.3075 4.4432 33.4881 4.62059C33.3952 4.62059 33.2178 4.71351 33.1249 4.79798C33.032 4.88245 33.032 4.97536 33.032 5.06828V5.33858C33.032 5.24566 33.032 5.16119 33.1249 5.06828C33.2178 4.97536 33.3023 4.89089 33.4881 4.89089C34.3075 4.71351 35.3971 4.52767 36.3009 4.35029C36.3939 4.35029 36.4783 4.35029 36.6642 4.4432C36.7571 4.53612 36.8415 4.62059 36.8415 4.71351V4.53612C36.85 4.35873 36.85 4.26582 36.6642 4.1729ZM37.3906 8.08384C35.8448 8.35414 34.2145 8.62444 32.6687 8.98766C32.3984 8.98766 32.2126 8.89475 32.0352 8.62444C31.8578 8.44706 31.7649 8.16831 31.7649 7.89801V8.16831C31.7649 8.43861 31.8578 8.70891 32.0352 8.89475C32.2126 9.08058 32.3984 9.25796 32.5758 9.25796C34.1216 8.89475 35.7519 8.62444 37.2977 8.35414C37.568 8.26122 37.8383 8.08384 38.117 7.89801C38.2944 7.72062 38.3873 7.44187 38.3873 7.26448V6.99418C38.3873 7.26449 38.2944 7.45032 38.117 7.6277C37.9396 7.80509 37.6609 7.99092 37.3906 8.08384ZM43.7511 3.26908L40.4822 3.53938V3.80968L43.7511 3.53938C43.8441 3.53938 44.0215 3.6323 44.0215 3.71677V3.44646C44.0215 3.36199 43.9285 3.26908 43.7511 3.26908ZM45.5672 4.53612V4.1729C45.5672 4.53612 45.3899 4.89934 45.0266 5.07673L45.204 5.25411C45.4743 5.17809 45.5672 4.81487 45.5672 4.53612ZM45.8375 7.07865L44.4776 7.17157C44.4776 6.80835 44.3002 6.44513 44.1144 6.17483C43.937 5.81161 43.5738 5.63422 43.3879 5.71869L40.668 5.989V6.2593L43.3879 5.989C43.6582 5.989 43.9285 6.08191 44.1144 6.44513C44.2918 6.71543 44.3847 7.07865 44.4776 7.44187L45.8375 7.34895H45.9305L45.8375 7.07865ZM40.5666 7.6277L39.2067 7.80509V8.07539L40.5666 7.89801V7.6277C40.5666 7.6277 40.6596 7.53479 40.5666 7.6277ZM52.7387 3.36199C52.8316 3.36199 52.9161 3.26908 52.9161 3.18461V2.91431C52.9161 3.00722 52.8232 3.09169 52.7387 3.09169C51.3787 3.09169 49.4697 2.99878 48.2027 2.99878C48.1098 2.99878 48.1098 2.99878 48.1098 3.09169V3.36199C48.1098 3.26908 48.2027 3.26908 48.2872 3.26908C49.4697 3.26908 51.3703 3.36199 52.7387 3.36199ZM47.4678 5.26256C48.8278 5.26256 50.0103 5.26256 51.2774 5.35547C51.3703 5.35547 51.4548 5.44839 51.4548 5.53286V5.26256C51.4548 5.16964 51.3619 5.08517 51.2774 5.08517C50.0103 4.99226 48.8278 4.99226 47.4678 4.99226C47.1046 4.99226 46.564 4.72195 46.564 4.26582V4.53612C46.6569 4.89934 47.1046 5.26256 47.4678 5.26256ZM52.0967 7.07865C50.2806 6.98574 48.4645 6.98574 46.6485 7.07865V7.34895C48.4645 7.25604 50.2806 7.25604 52.0967 7.34895C52.5529 7.34895 52.9161 6.98574 53.0006 6.62252V6.35221C52.8232 6.71543 52.46 7.07865 52.0967 7.07865ZM60.0876 3.80968C58.5418 3.6323 57.0044 3.35355 55.4586 3.26908C55.3657 3.26908 55.1883 3.26908 55.1883 3.44646V3.6323C55.1883 3.53938 55.3657 3.45491 55.4586 3.45491C57.0044 3.54783 58.5418 3.81813 60.0876 3.99552C60.0876 3.99552 60.1805 3.99552 60.1805 3.9026V3.6323C60.1805 3.80968 60.1805 3.80968 60.0876 3.80968ZM60.0031 7.80509C58.0096 7.53479 56.278 7.34895 54.4619 7.17157C54.0987 7.07865 53.8284 6.71543 53.7354 6.35221V6.62252C53.7354 6.98574 54.0057 7.34895 54.4619 7.44187C56.278 7.61926 58.0012 7.71217 59.9102 8.07539C59.9102 8.07539 60.0031 8.07539 60.0031 7.98248V7.71217C60.0876 7.80509 60.0876 7.89801 60.0031 7.80509ZM65.4429 7.17157V6.90127C65.4429 6.80835 65.35 6.80835 65.2655 6.80835C64.1759 6.53805 63.1791 6.35221 62.0895 6.17483H61.9966V6.44513H62.0895C63.1791 6.62252 64.1759 6.80835 65.2655 7.07865L65.4429 7.17157ZM61.9036 8.16831C61.5404 8.07539 60.9998 7.99092 60.6366 7.99092V8.16831C61.0927 8.26122 61.5404 8.26123 61.9036 8.34569C61.9036 8.34569 61.9966 8.34569 61.9966 8.25278V8.07539C61.9966 8.16831 61.9966 8.16831 61.9036 8.16831ZM66.7184 9.1735C66.3552 9.08058 65.8991 8.99611 65.5358 8.90319C65.4429 8.90319 65.4429 8.81028 65.4429 8.81028V9.08058C65.4429 9.1735 65.4429 9.1735 65.5358 9.1735C65.992 9.26641 66.3552 9.35088 66.7184 9.4438H66.8113V9.1735H66.7184ZM74.0673 7.3574C72.8002 6.90127 70.9841 6.26775 69.3454 5.81161H69.2525V6.08191H69.3454C70.9757 6.53805 72.7918 7.07865 73.9743 7.6277C74.0673 7.6277 74.1517 7.6277 74.1517 7.53479V7.26448C74.2531 7.3574 74.1602 7.3574 74.0673 7.3574ZM74.1602 9.4438C72.7073 8.90319 70.9841 8.35414 69.2609 7.89801H69.168V8.16831H69.2609C70.9841 8.62444 72.6228 9.16505 74.0757 9.7141V9.62118L74.1602 9.4438ZM74.0673 11.4373C71.9809 10.6179 69.8945 9.9844 67.7996 9.4438L67.7067 9.35088V9.62118C67.7067 9.62118 67.7067 9.7141 67.7996 9.7141C69.886 10.2547 71.9724 10.9811 74.0673 11.7076C74.1602 11.7076 74.1602 11.7076 74.1602 11.6147L74.0673 11.4373C74.1602 11.4373 74.1602 11.4373 74.0673 11.4373Z" fill="#432918"></path> <path d="M74.0674 6.7154V7.17154L73.7042 7.07862L73.4338 6.9857L71.8036 6.4451C71.263 6.26771 70.8068 6.08188 70.3507 5.98896L69.9875 5.89605L69.5314 5.80313L69.1681 5.71021V6.70696L69.3455 6.79987H69.5229L69.7932 6.89279L70.0635 6.9857C70.697 7.16309 71.2461 7.34892 71.8796 7.52631C72.5131 7.7037 73.0622 7.88953 73.6028 8.06692L73.7802 8.15983L74.0505 8.25275V9.34241L73.7802 9.24949L73.6028 9.15657C72.9693 8.97919 72.3357 8.70044 71.6938 8.52305C71.0518 8.34567 70.3338 8.06692 69.7003 7.88953L69.1597 7.71214V8.61597L69.3371 8.70888L69.7932 8.8018L70.1564 8.89472L70.3338 8.98763L70.5112 9.08055L72.1415 9.62116C72.6821 9.79854 73.2311 9.98438 73.6873 10.1618H73.9576L74.1349 10.2547V11.1585L73.8646 11.0656H73.6873C72.6905 10.7024 71.7783 10.4321 70.8744 10.1618C69.9706 9.89146 68.9654 9.52824 68.1545 9.34241V7.35737C68.1545 6.63093 68.1545 4.54453 68.2474 4.45162C68.3403 4.45162 70.1564 4.99222 71.0603 5.27097C71.9641 5.54127 72.8763 5.90449 73.6957 6.1748L73.8731 6.26771L74.1434 6.36063C74.0674 6.35218 74.0674 6.63093 74.0674 6.7154ZM66.6256 4.0884C66.5327 4.0884 66.3553 3.99548 66.2624 3.99548C66.1695 3.99548 65.8992 3.90256 65.7218 3.90256V5.89605L65.4515 5.80313H64.9109C64.5476 5.71021 64.1844 5.62574 63.7283 5.53283C63.2722 5.43991 62.9089 5.35544 62.5457 5.26252H62.3683L62.098 5.16961L61.8277 5.07669H61.7348V3.08321H60.831V8.07536C60.9239 8.07536 61.0084 8.07536 61.1013 8.16828H61.5574C61.6503 8.16828 61.8277 8.16828 61.9206 8.2612V7.62767V7.26445V6.53802V6.36063H62.098C62.2754 6.36063 62.7316 6.45355 63.2806 6.53802C63.8297 6.62249 64.4632 6.80832 65.0967 6.90123H65.6373V8.5315L65.9076 8.62441L66.085 8.71733H66.2624L66.5327 8.81025V8.35411V6.4451V4.26578L66.6256 4.0884ZM56.9116 2.2723C56.0922 2.17938 55.4587 2.09491 55.1884 2.09491C54.9181 2.09491 54.6478 2.18783 54.462 2.36522C54.2846 2.45813 54.0988 2.72844 54.0988 2.90582V6.4451C54.0988 6.53802 54.0988 6.62249 54.1917 6.7154C54.1917 6.80832 54.2846 6.89279 54.2846 6.89279C54.3775 6.9857 54.462 7.07017 54.6478 7.07017H55.011C55.7375 7.16309 56.5568 7.24756 57.2833 7.24756C58.0097 7.24756 58.8291 7.42495 59.64 7.51786L60.0032 7.61078V6.7154L59.547 6.62249L59.1838 6.52957L57.2748 6.25927L55.3658 5.98896C55.3658 5.98896 55.2729 5.98896 55.2729 5.89605V3.17613C55.2729 3.08321 55.2729 2.99874 55.3658 2.90582C55.4587 2.81291 55.5432 2.81291 55.6361 2.81291C56.0922 2.81291 59.6315 3.35351 60.265 3.44643V2.99029V2.44969C59.2767 2.5426 58.0012 2.44969 56.9116 2.2723ZM45.4744 6.08188C45.6518 6.35218 45.6518 6.7154 45.7447 6.9857L44.5621 7.07862C44.4692 6.7154 44.3847 6.4451 44.1989 6.1748C44.0215 5.81158 43.6583 5.63419 43.2951 5.63419C42.839 5.72711 40.3893 5.90449 40.3893 5.90449V7.45029L39.8487 7.5432L39.3081 7.63612V2.63552C39.3081 2.63552 44.03 2.09491 44.4861 2.09491C44.9423 2.09491 45.1196 2.36522 45.1196 2.63552C45.2126 3.17613 45.2126 3.81809 45.2126 4.3587C45.1196 4.629 44.9422 4.89931 44.6719 5.08514C45.1112 5.35544 45.2886 5.71866 45.4744 6.08188ZM44.2918 3.44643C44.2918 3.35351 44.2918 3.26904 44.1989 3.17613C44.106 3.08321 43.9286 3.08321 43.8357 3.08321L40.4738 3.44643V4.89931L42.1041 4.72192L43.7343 4.54453C43.9117 4.54453 44.0976 4.45162 44.1905 4.36715C44.2834 4.27423 44.3679 4.09684 44.3679 3.91101L44.2918 3.44643ZM38.1171 3.53935V6.90123C38.1171 7.35737 37.7539 7.72059 37.2978 7.80506C36.8416 7.88953 33.032 8.62441 32.6688 8.70888C32.3056 8.79335 31.8495 8.34567 31.8495 7.98245V4.629C31.8495 4.26578 32.2127 3.99548 32.5759 3.90256C32.9391 3.80965 36.9345 2.99874 37.2048 2.99874C37.7539 2.90582 38.1171 3.08321 38.1171 3.53935ZM37.1204 4.3587C37.1204 4.0884 37.0274 3.81809 36.5798 3.90256C36.0392 3.99548 34.2231 4.3587 33.5811 4.44317C33.125 4.53609 32.8547 4.71347 32.8547 5.16961V7.26445C32.8547 7.53476 33.032 7.80506 33.3953 7.72059C33.7585 7.62767 36.3939 7.17998 36.6642 7.08707C36.9345 6.99415 37.1204 6.81677 37.1204 6.45355V4.3587ZM52.2827 3.99548H47.924C47.924 3.90256 47.8311 3.90256 47.8311 3.81809V3.45488V2.99874C47.8311 2.90582 47.924 2.90582 48.1014 2.90582H52.6374V1.99355C52.0968 1.99355 51.7336 1.99355 51.2775 1.90063H47.5524C47.375 1.90063 47.2821 1.99355 47.1891 2.07802C47.0962 2.17094 47.0118 2.25541 47.0118 2.34832V4.34181C47.0118 4.43472 47.1047 4.51919 47.1891 4.61211C47.2821 4.70503 47.4594 4.70503 47.6453 4.7895H50.2807C50.2807 4.7895 51.1846 4.78949 51.6407 4.88241C51.7336 4.88241 51.8181 4.97533 51.8181 5.0598V5.87915C51.8181 5.97207 51.7252 5.97207 51.5478 5.97207H48.0085C47.6453 5.97207 47.2821 5.97207 47.0118 6.06499V6.96881C47.4679 6.96881 48.0085 6.96881 48.3717 6.87589C48.7349 6.78298 49.1911 6.87589 49.4614 6.87589H52.3671C52.5445 6.87589 52.6374 6.78298 52.7303 6.69851C52.8233 6.61404 52.9077 6.52112 52.9077 6.33529V4.3587C52.9077 4.26578 52.8148 4.0884 52.7303 4.0884C52.46 4.0884 52.3756 3.99548 52.2827 3.99548ZM30.9456 5.08514L31.0386 7.07862V7.26445C31.0386 7.35737 30.9456 7.44184 30.8612 7.53476C30.7683 7.62767 30.6838 7.71214 30.5909 7.71214L25.6916 9.25794V10.9811L24.4246 11.4373V9.08055V6.63093C24.4246 6.63093 24.4246 6.53802 24.5175 6.53802C24.6104 6.53802 26.0633 5.99741 27.9639 5.35544C28.5045 5.17806 29.78 4.81484 30.0503 4.72192C30.2276 4.72192 30.5064 4.72192 30.6838 4.81484C30.7683 4.72192 30.9456 4.89931 30.9456 5.08514ZM29.856 6.63093V5.90449C29.856 5.81158 29.7631 5.72711 29.7631 5.63419C29.6701 5.54127 29.5857 5.54127 29.4928 5.54127H29.3998C29.3998 5.54127 28.3102 5.81158 27.6767 6.08188C27.0431 6.35218 25.5903 6.80832 25.5903 6.80832V8.2612L29.3154 7.07862C29.4083 7.07862 29.4928 6.9857 29.5857 6.90123C29.7631 6.80832 29.7631 6.7154 29.856 6.63093ZM46.1079 24.2428V25.6028C46.1079 25.7802 46.1079 25.8731 46.015 26.0589C45.9221 26.1519 45.8376 26.2363 45.6518 26.2363C45.466 26.2363 45.3815 26.1434 45.2886 26.0589C45.1957 25.966 45.1957 25.7886 45.1957 25.6028V24.2428C45.1957 24.1499 45.1027 24.0655 45.0183 24.0655C44.9253 24.0655 44.8409 24.1584 44.8409 24.2428V25.5099C44.8409 25.7802 44.9338 26.0505 45.0183 26.2363C45.1957 26.4137 45.3815 26.5995 45.6518 26.5066C45.9221 26.5066 46.1924 26.4137 46.2853 26.2363C46.3782 25.966 46.4627 25.7802 46.4627 25.5099V24.2428C46.4627 24.1499 46.3698 24.0655 46.2853 24.0655C46.2008 24.057 46.1079 24.1499 46.1079 24.2428ZM48.0169 24.4202C48.1099 24.4202 48.1943 24.3273 48.1943 24.2428C48.1943 24.1584 48.1014 24.0655 48.0169 24.0655H47.0202C46.9273 24.0655 46.8428 24.1584 46.8428 24.2428C46.8428 24.3273 46.9357 24.4202 47.0202 24.4202H47.3834V26.4137C47.3834 26.5066 47.4763 26.5911 47.5608 26.5911C47.6453 26.5911 47.7382 26.4982 47.7382 26.4137V24.4202H48.0169ZM49.6472 24.4202C49.7401 24.4202 49.8246 24.3273 49.8246 24.2428C49.8246 24.1584 49.7317 24.0655 49.6472 24.0655H48.6505C48.5575 24.0655 48.4731 24.1584 48.4731 24.2428C48.4731 24.3273 48.566 24.4202 48.6505 24.4202H49.0137V26.4137C49.0137 26.5066 49.1066 26.5911 49.1911 26.5911C49.2755 26.5911 49.3685 26.4982 49.3685 26.4137V24.4202H49.6472ZM51.5562 25.1467H51.0156C50.8382 25.1467 50.8382 25.2396 50.8382 25.3241C50.8382 25.417 50.9311 25.5014 51.0156 25.5014H51.3788V25.5944C51.3788 25.9576 51.2014 26.2279 50.9227 26.3208C50.7453 26.3208 50.5595 26.2279 50.4666 26.0505C50.3736 25.8731 50.2892 25.5944 50.3736 25.417C50.3736 25.2396 50.4666 24.9608 50.551 24.7834C50.6355 24.6061 50.7284 24.5131 50.9143 24.5131C51.0916 24.5131 51.1846 24.6061 51.2775 24.7834C51.2775 24.8764 51.3704 24.8764 51.4549 24.8764C51.5393 24.8764 51.5478 24.7834 51.5478 24.699C51.4549 24.4287 51.1846 24.2428 50.8213 24.2428C50.551 24.2428 50.2807 24.3358 50.1878 24.6061C50.0104 24.8764 49.9175 25.1467 49.9175 25.5099C49.9175 25.7802 50.0104 26.1434 50.0949 26.4137C50.1878 26.684 50.4581 26.8698 50.7284 26.8698C50.9058 26.8698 50.9987 26.8698 51.1846 26.7769C51.3619 26.5995 51.5478 26.3208 51.6407 26.0505V25.5944C51.8265 25.2396 51.7336 25.1467 51.5562 25.1467ZM57.5451 24.4202C57.638 24.4202 57.7225 24.3273 57.7225 24.2428C57.7225 24.1584 57.6296 24.0655 57.5451 24.0655H56.5484C56.4555 24.0655 56.371 24.1584 56.371 24.2428C56.371 24.3273 56.4639 24.4202 56.5484 24.4202H56.9116V26.4137C56.9116 26.5066 57.0045 26.5911 57.089 26.5911C57.1734 26.5911 57.2664 26.4982 57.2664 26.4137V24.4202H57.5451ZM55.4587 25.6957C55.6361 25.6028 55.729 25.5183 55.8219 25.4254C55.9993 25.248 56.0922 25.0622 55.9993 24.8848C55.9993 24.6145 55.9064 24.4287 55.729 24.2513C55.5516 24.1584 55.3658 24.0739 55.0955 24.0739H54.5549C54.462 24.0739 54.462 24.0739 54.3775 24.1668C54.3775 24.1668 54.2846 24.2597 54.2846 24.3442V26.4306C54.2846 26.5235 54.3775 26.608 54.462 26.608C54.5464 26.608 54.6394 26.5151 54.6394 26.4306V25.7971H55.0026L55.5432 26.5235C55.5432 26.6164 55.6361 26.6164 55.7206 26.6164C55.805 26.6164 55.898 26.5235 55.898 26.4391C55.898 26.3546 55.898 26.3461 55.805 26.2617L55.4587 25.6957ZM54.7323 25.3325V24.4287H55.1884C55.3658 24.4287 55.4587 24.4287 55.5516 24.5216C55.6446 24.6145 55.729 24.699 55.729 24.7919C55.729 25.0622 55.4587 25.3325 55.1884 25.3325H54.7323ZM53.2794 24.2428C53.2794 24.1499 53.102 24.0655 53.0091 24.0655C52.9162 24.0655 52.8317 24.1584 52.7388 24.2428L52.1053 26.3292V26.5066L52.1982 26.5995C52.2911 26.5995 52.3756 26.5995 52.3756 26.5066L52.4685 26.1434H53.4652L53.5582 26.5066C53.5582 26.5995 53.6511 26.5995 53.7355 26.5995C53.82 26.5995 53.8285 26.5995 53.9129 26.5066V26.3292L53.2794 24.2428ZM53.3723 25.7802H52.6459L53.0091 24.4202L53.3723 25.7802ZM42.746 25.3325C42.4757 25.1551 42.2054 25.1551 41.9267 25.0622C41.7493 25.0622 41.6564 24.8848 41.6564 24.699C41.7493 24.5216 41.9267 24.4287 42.1125 24.4287C42.2899 24.4287 42.4757 24.5216 42.5687 24.6061C42.6616 24.699 42.839 24.6061 42.839 24.5131C42.839 24.4202 42.6616 24.057 42.1125 24.057C41.9351 24.057 41.7493 24.1499 41.5719 24.2344C41.3945 24.3273 41.3016 24.5047 41.3016 24.6905C41.3016 24.8764 41.3945 25.1467 41.479 25.2311C41.5719 25.3241 41.7493 25.4085 42.0196 25.4085C42.197 25.4085 42.4757 25.5014 42.5602 25.6788C42.6531 25.7717 42.5602 25.9491 42.4673 26.042C42.3744 26.135 42.197 26.2194 42.0112 26.2194C41.8338 26.2194 41.6479 26.1265 41.555 26.042C41.4621 25.9491 41.3776 25.9491 41.2847 25.9491C41.1918 25.9491 41.1918 26.1265 41.1918 26.2194C41.3692 26.4897 41.6479 26.6756 41.9182 26.5827C42.1885 26.5827 42.4588 26.4897 42.6447 26.3123C42.7376 26.135 42.8221 25.9491 42.8221 25.7717C43.0248 25.6028 42.9319 25.417 42.746 25.3325ZM44.3847 24.4202C44.4777 24.4202 44.5621 24.3273 44.5621 24.2428C44.5621 24.1584 44.4692 24.0655 44.3847 24.0655H43.388C43.2951 24.0655 43.2106 24.1584 43.2106 24.2428C43.2106 24.3273 43.3035 24.4202 43.388 24.4202H43.7512V26.4137C43.7512 26.5066 43.8441 26.5911 43.9286 26.5911C44.0215 26.5911 44.106 26.4982 44.106 26.4137V24.4202H44.3847ZM29.5857 14.8921C29.856 14.2585 30.3121 13.7095 30.8527 13.3463C31.123 13.1689 31.123 13.076 31.123 13.076C31.123 13.076 31.0301 12.983 30.6669 12.983C30.1263 13.076 29.5772 13.2533 29.1211 13.6166C28.5805 14.0727 28.2173 14.7062 28.0314 15.3397C27.9385 16.0662 27.9385 16.8855 28.1244 17.6965L26.8573 18.33C26.7644 18.0597 26.6799 17.8738 26.4941 17.6035C26.2238 17.3332 25.7676 17.3332 25.4044 17.5106C25.1341 17.688 24.9483 17.9668 24.9483 18.33C24.9483 18.6003 25.0412 18.7861 25.2186 18.9635C24.9483 19.0564 24.7625 19.2338 24.4922 19.4196C24.2219 19.6899 24.1289 20.0532 24.2219 20.3235C24.3148 20.5938 24.678 20.7796 24.9483 20.7796C25.3115 20.6867 25.6747 20.5093 26.038 20.239C26.1309 20.4164 26.3083 20.5093 26.4941 20.6951C26.6715 20.788 26.8573 20.8725 27.0347 20.8725C27.2121 20.8725 27.305 20.8725 27.4908 20.7796C27.7611 20.6022 27.947 20.3235 27.8541 19.9602C27.7611 19.5041 27.3979 19.3267 27.3979 19.1409C29.5772 17.9583 31.8495 17.0545 34.2062 16.5054C35.8364 16.0493 37.4751 15.779 39.1054 15.6861C40.1951 15.5932 41.1918 15.6861 42.2815 16.0493C43.1008 16.2267 43.9117 16.6828 44.5537 17.3163C44.5537 16.497 44.0975 15.8635 43.3711 15.5002C42.8305 15.137 42.1885 14.9596 41.555 14.8667C41.7324 14.5964 41.9182 14.3261 42.0956 14.1403C42.4588 13.7771 42.915 13.5997 43.3627 13.5068C43.8104 13.4138 44.182 13.4138 44.6297 13.4138C44.4523 13.0506 44.1736 12.8732 43.7259 12.7803C43.2698 12.6874 42.7291 12.7803 42.273 12.8732C41.4537 13.2365 40.7272 13.9629 40.364 14.7822C39.4602 14.6893 38.6408 14.7822 37.7286 14.7822C37.8215 14.0558 38.0918 13.4223 38.455 12.7888C38.9111 12.2482 39.5446 11.792 40.2711 11.6062C40.364 11.6062 40.4485 11.5133 40.5414 11.4288C40.364 11.2514 40.1782 11.1585 39.4517 11.1585C38.455 11.1585 37.6356 11.6991 37.095 12.4255C36.6389 13.152 36.3686 13.8784 36.3686 14.7822C35.0086 15.0526 33.3699 15.4158 33.3699 15.4158C33.3699 14.8752 33.5473 14.2332 33.7331 13.7855C34.0963 13.152 34.5525 12.6029 35.186 12.1552L35.4563 11.9779C35.2789 11.8849 35.0931 11.8849 34.8228 11.8849C34.3667 11.8849 33.919 12.0623 33.4628 12.2482C32.559 12.7043 32.1029 13.6081 32.1029 14.6049V15.8719C31.0132 16.1422 29.9236 16.5054 28.9268 16.8686C29.2225 16.252 29.3154 15.5256 29.5857 14.8921ZM41.3861 20.881C41.3861 20.881 41.7493 20.788 41.8422 20.7036C41.7493 20.6107 41.6648 20.6107 41.5719 20.5262C41.2087 20.3488 40.9384 20.2559 40.5752 20.2559C40.212 20.2559 39.8487 20.3488 39.4855 20.4333C38.7591 20.7965 38.3029 21.43 38.0326 22.2494C38.0326 22.2494 37.2133 22.2494 36.8501 22.3423L35.6675 22.4352C35.6675 22.2578 35.6675 22.072 35.7604 21.8017C35.8533 21.4385 36.0307 20.9823 36.301 20.712C36.7571 20.1714 37.3907 19.8082 38.1171 19.7153H38.2945C38.0242 19.5379 37.7539 19.445 37.4751 19.5379C35.9293 19.5379 34.6623 20.7205 34.4765 22.2578C34.4765 22.3507 34.3835 22.621 34.3835 22.621C34.3835 22.621 33.75 22.7139 33.5642 22.7984C33.1081 22.8913 32.5675 22.9758 32.1113 23.1616C32.1113 22.621 32.2887 21.9791 32.5674 21.5314C32.8378 21.0752 33.201 20.6275 33.5642 20.2643C33.6571 20.1714 33.7416 20.0869 33.9274 19.994C33.75 19.994 33.6571 19.9011 33.4713 19.9011C32.5675 19.9011 31.7481 20.4417 31.4778 21.2611C31.2075 21.9875 31.1146 22.8069 31.1146 23.5333C30.6584 23.6262 29.6617 23.9894 29.2056 24.1668C29.1126 23.6262 29.1126 23.0772 29.2056 22.4436C29.2985 21.9875 29.5688 21.5398 29.932 21.1766L30.2023 20.9063C30.2023 20.9063 30.1094 20.8134 29.6617 20.9063C28.9353 21.0837 28.3017 21.6327 28.1159 22.3592C27.9385 23.0856 27.9385 23.905 27.9385 24.6314C27.6682 24.7243 26.8489 25.0875 26.7559 25.172C26.7559 24.9946 26.663 24.8088 26.5786 24.6314C26.4012 24.454 26.2153 24.2682 25.945 24.2682C25.7677 24.2682 25.6747 24.2682 25.4889 24.3611C25.396 24.454 25.2186 24.5385 25.2186 24.7243C25.1257 24.9017 25.1257 25.0875 25.2186 25.2649C25.3115 25.3578 25.3115 25.4423 25.396 25.5352C25.4889 25.6281 25.5734 25.8055 25.5734 25.8055C25.3031 25.8984 25.0328 25.9829 24.8469 26.1687C24.4837 26.3461 24.3908 26.8023 24.5766 27.1655C24.6695 27.4358 24.9399 27.5287 25.2102 27.5287C25.6663 27.5287 26.0295 27.3513 26.2998 26.9881C26.2998 26.9881 26.5701 27.4442 26.663 27.5287C26.7559 27.7061 27.0262 27.799 27.2966 27.799C27.3895 27.799 27.5669 27.799 27.6598 27.7061C27.9301 27.5287 28.1159 27.25 28.023 26.9797C28.023 26.7094 27.9301 26.4391 27.7527 26.2532L27.6598 26.1603L28.2933 25.89C29.29 25.3494 30.2868 24.8933 31.292 24.53C32.9222 23.9894 34.6539 23.5333 36.377 23.3475C36.7403 23.2545 37.1035 23.2545 37.4667 23.2545C37.9228 23.2545 38.3705 23.3475 38.7337 23.5249V21.7088H39.4602C40.0261 21.43 40.6596 21.0668 41.3861 20.881ZM38.8435 27.5963V30.2317C38.5732 30.2317 38.21 30.1388 38.0242 30.1388C35.6675 30.2317 33.3023 30.8653 31.2159 31.7691C30.2192 32.2252 29.3069 32.6729 28.4031 33.222C28.7663 33.3993 28.9437 33.6781 29.1295 34.0413C29.3069 34.5819 28.9522 35.0381 28.2257 35.0381C27.5922 35.0381 27.4993 34.4975 27.229 34.3116C27.1361 34.3116 26.6884 34.8522 26.5025 34.9451C26.3251 35.0381 26.1393 35.0381 26.0464 35.1225C25.7761 35.1225 25.5903 35.0296 25.4129 34.8522C25.2355 34.6748 25.2355 34.489 25.2355 34.2187C25.3284 33.9484 25.5058 33.7626 25.6916 33.5852C25.869 33.4923 26.0548 33.4078 26.2322 33.222C26.2322 33.0446 25.869 32.7658 25.7761 32.4955C25.6832 32.1323 25.7761 31.7691 26.0464 31.4988C26.3167 31.3214 26.6799 31.3214 26.9502 31.4988C27.3134 31.6762 27.4908 32.3181 27.4908 32.4026C27.6682 32.3097 28.2173 31.862 28.5805 31.6762C28.2173 30.9497 27.947 30.2233 28.0399 29.4039C28.2173 28.2214 29.4928 27.3175 30.0334 27.6808C29.5772 28.2214 29.214 28.8633 29.214 29.5898C29.1211 30.1304 29.214 30.6794 29.4843 31.1356C29.4843 31.1356 30.8443 30.595 31.3004 30.502C30.9372 29.6827 30.9372 28.6859 31.2075 27.8666C31.6636 27.0472 32.4745 26.5066 33.3868 26.5066C32.2042 27.326 31.6636 28.7789 32.1198 30.0459C32.3901 29.953 33.9359 29.5053 34.1132 29.4124C34.0203 28.5086 34.2906 27.5963 34.8397 26.8698C35.2958 26.2363 35.9293 25.8731 36.7487 25.6873C36.9261 25.6873 37.019 25.6873 37.2048 25.7802C37.2048 25.8731 37.2048 25.8731 37.1119 25.9576L37.019 26.0505C36.3855 26.5911 35.8364 27.1401 35.3887 27.8666C35.2114 28.3227 35.0255 28.7704 35.0255 29.2265V29.3195C35.0255 29.3195 35.8449 29.1421 36.4784 29.1421C37.1119 29.1421 37.661 29.0492 37.661 29.0492C37.7539 28.7789 37.8384 28.5086 38.0242 28.3227C38.3874 27.9595 38.5732 27.7821 38.8435 27.5963ZM64.3534 38.949C63.8128 39.1264 63.4495 39.4051 63.1708 39.8528C62.7147 40.5793 62.5373 41.3986 62.8076 41.3986H63.4411C63.8043 41.3986 64.0746 41.3986 64.4378 41.4915C64.5307 41.4915 64.5307 41.4915 64.6152 41.3986C64.6997 41.3057 64.7081 41.3057 64.7081 41.2212C64.9784 40.4019 65.4346 39.6754 66.161 39.2277C66.4313 39.0504 66.7945 38.9574 67.0648 38.8645C67.6054 38.8645 68.0616 39.0419 68.4248 39.4051C68.5177 39.5825 67.8842 39.2278 66.7945 40.309C66.4313 40.6722 66.161 41.0354 65.9752 41.4915C65.9752 41.4915 65.9752 41.5845 66.0681 41.5845C66.5242 41.7618 67.4281 41.9477 67.8842 42.1251C67.9771 42.1251 68.0616 42.1251 68.1545 42.0321C68.4248 41.6689 68.6951 41.3986 69.0583 41.1283C69.4216 40.858 69.8777 40.7651 70.3254 40.7651H70.4183C71.415 40.858 71.5079 41.3986 71.5079 41.4915C71.5079 41.5845 71.3305 41.5845 71.1447 41.5845C70.4183 41.7618 69.8777 42.1251 69.4215 42.6741C69.3286 42.767 69.5989 43.0373 69.5989 43.0373C70.3254 43.4935 70.7815 44.3044 70.5957 45.1237C70.5957 45.3011 70.5957 45.3011 70.5028 45.3011C70.3254 45.2082 70.2324 45.1237 70.1395 45.0308L68.7796 43.9412C67.9602 43.4006 67.1493 43.1218 66.1441 42.9444C65.4177 42.8515 64.6912 42.767 63.9648 42.767C62.3345 42.767 60.7888 43.0373 59.243 43.4935C58.9727 43.5864 57.9759 43.8567 57.0636 44.127L56.523 44.3044L56.8862 44.0341C57.2495 43.6708 57.6127 43.3076 57.9759 42.8515L58.2462 42.5812L58.7023 42.4883L60.5184 42.1251C60.6958 42.0321 60.8817 41.9477 60.8817 41.7618C60.9746 41.0354 61.2449 40.4019 61.701 39.9457C62.0642 39.3122 62.6978 38.949 63.4242 38.8561C64.176 38.5858 64.5392 38.8561 64.3534 38.949ZM51.5562 52.2952C51.2859 52.1178 51.1001 51.7546 51.0156 51.3914C51.0156 51.0282 51.193 50.6649 51.5562 50.572C51.9194 50.3946 52.2827 50.4791 52.6459 50.6649C53.0091 50.9352 53.102 51.2055 53.1865 51.6617H53.2794C53.6426 51.4843 54.1832 51.2055 54.6394 51.0281L54.8167 50.9352C54.8167 50.9352 54.9097 50.9352 54.9097 50.7579C54.7323 50.3017 54.7323 49.854 54.7323 49.3979C54.7323 48.8573 54.9097 48.4011 55.1884 47.945C55.8219 46.8554 57.0045 46.9483 56.9116 47.0412C56.4555 47.4973 56.1852 48.1308 56.0922 48.7644C55.9993 49.1276 55.9993 49.4908 56.0922 49.854C56.0922 50.0314 56.0922 50.2172 56.1852 50.2172C56.2781 50.2172 56.6413 50.0399 56.9116 49.9469C57.1819 49.854 57.638 49.7696 57.9083 49.6766C58.0857 49.6766 58.0013 49.5837 58.0013 49.4993C58.0013 48.5025 58.2715 47.5058 58.8206 46.6864C59.2767 46.1458 59.9103 45.7826 60.5438 45.6897C60.8141 45.6897 61.1773 45.7826 61.0844 45.8671C60.907 45.96 60.8141 46.0444 60.6283 46.1374C60.265 46.4077 59.9018 46.7709 59.6315 47.227C59.3612 47.8605 59.1754 48.4941 59.2683 49.2205C59.8089 49.2205 60.358 49.1276 60.8986 49.0431C60.9915 49.0431 61.076 48.9502 61.076 48.8657C61.2533 48.2322 61.5321 47.0496 62.1656 46.5935C62.5288 46.3232 62.892 46.1374 63.3482 46.1374C63.6185 46.1374 64.4378 46.4077 64.252 46.5006C63.7114 46.678 63.3482 47.0412 62.985 47.4973C62.7147 47.8605 62.5288 48.2238 62.5288 48.6799C62.4359 48.9502 62.7062 48.9502 62.7062 48.9502C63.1623 48.9502 63.61 49.0431 64.0662 49.1276C64.1591 49.1276 64.3365 48.9502 64.3365 48.9502C64.5139 48.587 64.7926 48.3167 65.0629 48.1308C65.3332 47.8605 65.6964 47.6747 66.1526 47.6747C66.9719 47.6747 67.4196 48.3082 67.2422 48.3082C66.5158 48.4856 65.8823 48.9418 65.4261 49.4908C65.4261 49.4908 65.3332 49.5837 65.4261 49.6682C66.1526 50.3017 66.6932 51.1211 66.7861 52.1178C66.7861 52.2107 66.879 52.5739 66.6932 52.5739C66.1526 51.9404 65.5106 51.3914 64.8771 50.9437C63.9733 50.4875 62.8836 50.2172 61.7939 50.2172C60.5269 50.2172 59.2514 50.3946 57.9844 50.7579C56.6244 51.214 55.2644 51.7546 54.0819 52.481C54.2592 52.6584 54.4451 52.8443 54.538 53.0216C54.7154 53.3849 54.6309 53.841 54.2677 54.1113C54.0903 54.2887 53.8116 54.2887 53.5413 54.2042C52.9077 54.1113 52.8148 53.4778 52.7219 53.3004C52.629 53.4778 52.5445 53.6636 52.2658 53.7565C51.9025 54.0268 51.3619 54.0268 50.9987 53.5791C50.9987 53.5791 50.9987 53.4862 50.9058 53.4862C50.6355 53.123 50.7284 52.6669 50.9987 52.3966C51.5562 52.3881 51.5562 52.2952 51.5562 52.2952ZM53.6426 59.6441C53.5497 59.4667 53.4652 59.2808 53.3723 59.0105C53.1949 58.5544 53.102 58.1067 53.1949 57.6506C53.2878 57.11 53.8285 56.6538 54.3775 56.5609C54.1072 56.8312 53.9214 57.2874 54.0143 57.7435C54.0143 58.1996 54.1917 58.5628 54.3775 58.9261C54.4704 59.019 54.4704 58.9261 54.4704 58.9261C54.8336 58.7487 55.1039 58.5628 55.4672 58.4699V58.377C55.1969 57.5577 55.3742 56.7468 55.7375 56.0203C56.0078 55.4797 56.5568 55.1165 57.1903 55.0236C57.8239 54.9307 57.5536 55.0236 57.6465 55.201C57.1903 55.4713 56.92 55.9274 56.6497 56.3835C56.4724 56.8397 56.4724 57.3803 56.5568 57.9293H56.6497C57.013 57.8364 57.3762 57.7519 57.8323 57.659C57.8323 57.659 57.9252 57.659 57.9252 57.5661C58.1026 56.8397 58.4658 56.2061 59.0149 55.6571C59.471 55.2939 59.9187 55.1165 60.4678 55.0236C61.1942 55.0236 61.2871 55.201 61.2871 55.2939C61.38 55.3868 61.1097 55.2939 60.831 55.3868C60.4678 55.5642 60.1045 55.8429 59.8342 56.2061C59.5639 56.4764 59.3781 56.8397 59.3781 57.2958V57.3887C59.7413 57.4816 60.1975 57.5661 60.5607 57.659H60.6536C60.831 57.2029 61.1942 56.8397 61.4729 56.4764C61.8362 56.2061 62.1994 56.0203 62.6555 56.0203C62.9258 56.0203 63.1961 56.1132 63.382 56.2906C63.382 56.2906 63.6523 56.468 63.5593 56.5609C63.1032 56.6538 62.6555 56.9241 62.3768 57.2874C61.9206 57.828 61.9206 58.0138 61.8362 58.1067C61.7433 58.1996 61.8362 58.2841 61.9291 58.377C62.6555 58.8331 62.7484 59.2808 62.8329 59.5596C62.8329 59.8299 62.74 60.286 62.4697 59.9228C62.1994 59.5596 61.7433 59.1964 61.2026 59.019C60.4762 58.7487 59.7498 58.5628 59.0233 58.5628C58.2969 58.5628 57.6634 58.6558 57.0299 58.9261C56.126 59.1964 55.3067 59.5596 54.5802 60.1086C54.4873 60.2016 54.4028 60.286 54.217 60.3789C53.9467 60.5563 53.7609 60.7422 53.5835 60.9195C53.4906 61.0125 53.6764 61.0969 53.6764 61.0969C54.4958 61.4601 54.5802 62.0008 54.3099 62.2795C54.1325 62.4569 53.8538 62.5498 53.5835 62.3724C52.95 61.9163 53.0429 61.5531 52.7641 61.646C52.5868 61.7389 52.4009 62.1866 52.2235 62.3724C52.0461 62.6427 51.59 62.7356 51.3197 62.4653C51.0494 62.195 50.9565 61.7389 51.1423 61.4686C51.3197 61.2912 51.5055 61.1983 51.6829 61.0125C51.6829 61.0125 51.2268 60.7422 51.0494 60.5563C50.7791 60.286 50.7791 59.8299 51.0494 59.5596C51.4126 59.2893 51.8688 59.3822 52.1391 59.737C52.4094 60.1002 52.4094 60.1931 52.5023 60.1931H52.5952C52.9162 60.286 53.5497 59.8299 53.6426 59.6441C53.6426 59.737 53.6426 59.737 53.6426 59.6441ZM57.638 35.68H57.3677C57.2748 35.68 57.1903 35.5871 57.0974 35.5026C57.0045 35.4097 57.0045 35.3253 57.0045 35.2323C57.0045 35.1394 57.0974 35.1394 57.0974 35.055C57.2748 34.962 57.3677 34.7847 57.4606 34.6917C57.5536 34.5143 57.5536 34.4214 57.5536 34.2356H57.4606C57.3677 34.3285 57.2833 34.5059 57.1903 34.5059C57.0974 34.5988 56.92 34.5988 56.8271 34.5988C56.7342 34.5988 56.6497 34.5059 56.5568 34.5059C56.4639 34.413 56.4639 34.3285 56.4639 34.2356C56.4639 34.1427 56.5568 34.1427 56.6413 34.0582C56.8187 34.0582 57.0045 33.9653 57.0974 33.8808C57.1903 33.7964 57.2748 33.7034 57.2748 33.6105V33.2473C57.1819 33.2473 57.0974 33.3402 57.0045 33.3402C56.8271 33.4331 56.7342 33.3402 56.5484 33.3402C56.371 33.2473 56.2781 33.0699 56.1852 32.977V32.8841C56.3625 32.8841 56.4555 32.7067 56.5484 32.5209C56.5484 32.5209 56.5484 32.4279 56.6413 32.4279C56.6413 32.335 56.7342 32.335 56.7342 32.335V31.9718C56.7342 31.8789 56.6413 31.7944 56.6413 31.7015H56.5484C56.4555 31.7944 56.5484 31.9718 56.4555 32.0647L56.1852 32.335C56.0922 32.335 56.0922 32.4279 56.0078 32.4279C55.9149 32.335 55.8304 32.2506 55.8304 32.1576C55.8304 31.9803 55.8304 31.8873 55.9233 31.7944C56.0162 31.5241 56.1936 31.3383 56.3794 31.068C56.4723 30.8906 56.6497 30.7977 56.7427 30.6119C56.8356 30.5189 56.92 30.2486 56.7427 30.1557C56.5653 30.0628 56.5653 30.3331 56.4724 30.426C56.1091 30.6034 55.7459 30.7892 55.4756 30.9666C55.2982 31.144 55.2053 31.4228 55.2053 31.6001C55.1124 31.6931 55.2053 31.9634 55.1124 32.0563C55.1124 32.1492 55.0195 32.1492 54.935 32.1492C54.8421 32.0563 54.7576 31.8789 54.6647 31.6931V31.3298C54.6647 31.3298 54.6647 31.2369 54.5718 31.2369C54.3944 31.3298 54.3015 31.4143 54.3015 31.6001C54.2086 31.7775 54.3015 32.0563 54.3944 32.2337L54.935 33.053C55.1124 33.3233 55.2982 33.5936 55.3911 33.8724C55.5685 34.0498 55.5685 34.3285 55.5685 34.5988C55.4756 34.8691 55.3911 35.055 55.2053 35.2323H55.1124C54.935 35.055 54.7492 34.8691 54.4789 34.6917C54.2086 34.5143 53.9383 34.4214 53.575 34.3285C53.2118 34.3285 52.8486 34.2356 52.3925 34.3285C52.0293 34.3285 51.5731 34.4214 51.2099 34.4214C50.8467 34.4214 50.5764 34.4214 50.2131 34.3285C49.9428 34.2356 49.757 34.0582 49.6726 33.8724C49.5796 33.6021 49.4952 33.4162 49.5796 33.1459C49.5796 32.9686 49.6726 32.6898 49.757 32.5124C49.8499 32.335 49.9344 32.2421 50.1202 32.1492C50.2976 32.0563 50.4835 32.0563 50.7538 32.0563C50.8467 32.0563 50.9312 32.1492 51.0241 32.2337L51.2014 32.4111H51.2944C51.2944 32.1408 51.2944 31.8704 51.2014 31.5917C51.1085 31.4143 51.0241 31.2285 50.8382 31.0511H51.0156C51.193 31.0511 51.4717 31.144 51.6491 31.2285L51.9194 31.4988C51.9194 31.1356 51.8265 30.8653 51.6491 30.595C51.5562 30.4176 51.3788 30.3247 51.2859 30.2317C51.193 30.2317 51.3788 30.1388 51.4633 30.1388C51.6407 30.1388 51.8265 30.1388 52.0039 30.2317C52.0968 30.2317 52.0968 30.3247 52.1813 30.3247L52.2742 30.4176C52.2742 30.4176 52.3671 30.4176 52.3671 30.3247C52.3671 30.2317 52.2742 30.1473 52.2742 30.0544C52.0039 29.784 51.7336 29.5982 51.4549 29.3279C51.4549 29.3279 51.3619 29.3279 51.3619 29.235C51.269 29.1421 51.1846 28.9647 51.1846 28.8718C51.1846 28.7789 51.0916 28.7789 51.0916 28.6944V28.517C51.1846 28.3396 51.269 28.3396 51.4549 28.2467C51.5478 28.2467 51.7252 28.1538 51.911 28.1538H52.0039V28.0609C51.8265 27.968 51.6407 27.8835 51.4633 27.8835C51.193 27.8835 50.9227 27.8835 50.644 27.9764C50.4666 28.0693 50.2807 28.1538 50.0104 28.1538C49.833 28.1538 49.7401 28.1538 49.5543 28.0609C49.4614 28.0609 49.3769 27.968 49.3769 27.7906C49.3769 27.6132 49.3769 27.4273 49.4698 27.3344L49.7401 27.0641C49.833 27.0641 49.833 26.9712 49.833 26.9712H49.6557C49.3854 27.0641 49.1995 27.1486 48.9292 27.2415L48.4731 27.6976L48.3802 27.7906H48.2028L47.6622 28.0609C47.4848 28.1538 47.3919 28.2383 47.206 28.3312C47.1131 28.3312 46.9357 28.4241 46.8428 28.4241C46.5725 28.4241 46.2093 28.4241 46.1164 28.6944C46.1164 28.7873 46.1164 28.8718 46.2093 28.8718C46.3022 28.8718 46.3022 28.9647 46.3867 28.9647L46.5641 29.0576C46.5641 29.0576 46.657 29.0576 46.657 29.1505C46.657 29.2434 46.5641 29.2434 46.5641 29.2434C46.3867 29.2434 46.2938 29.2434 46.1079 29.1505H45.9305C45.6602 29.4208 45.297 29.6067 45.0267 29.784L44.9338 29.877V30.0544C44.9338 30.1473 44.8409 30.1473 44.8409 30.1473C44.748 30.1473 44.748 30.2402 44.748 30.3247V30.502C44.748 30.595 44.8409 30.6794 44.9254 30.6794H45.0183C45.1112 30.6794 45.1957 30.5865 45.2886 30.5865H45.3815V30.6794C45.3815 30.7723 45.2886 30.7723 45.2886 30.8568C45.2886 30.9413 45.1957 30.9497 45.2886 31.0342C45.3815 31.1187 45.5589 31.1271 45.6518 31.0342C45.7447 30.9413 45.7447 30.9413 45.7447 30.8568C45.7447 30.7723 45.8376 30.7639 45.9221 30.6794C46.0995 30.5865 46.1924 30.5865 46.3782 30.5865C46.4712 30.5865 46.5556 30.5865 46.6485 30.6794C46.6485 30.6794 46.7415 30.6794 46.7415 30.7723C46.7415 30.8653 46.6485 30.9497 46.6485 31.0426C46.6485 31.1356 46.6485 31.22 46.5556 31.22C46.4627 31.22 46.4627 31.3974 46.4627 31.3974C46.4627 31.3974 46.4627 31.4903 46.3698 31.4903C46.2769 31.5833 46.0995 31.6677 45.9137 31.8536C45.7363 32.0309 45.4575 32.3097 45.373 32.58C45.2801 32.6729 45.2801 32.7574 45.2801 32.8503C45.1872 33.1206 45.1872 33.3909 44.9169 33.2135C44.6466 33.0361 44.3763 32.9432 44.1905 32.7574L43.9202 32.4871C43.6499 32.1239 43.3796 32.4871 43.1937 32.6645L42.3744 33.7541C42.2815 33.847 42.2815 33.847 42.2815 33.9315C42.2815 34.016 42.1885 34.1089 42.1041 34.2018C42.0112 34.2947 42.0112 34.4721 42.0112 34.565C42.0112 34.8353 41.9182 35.0212 41.8338 35.1986C41.7409 35.2915 41.6564 35.4689 41.6564 35.5618V35.925C41.6564 36.0179 41.6564 36.1024 41.8338 36.1024H41.9267L42.4673 35.8321C42.4673 35.8321 42.5602 35.8321 42.5602 35.7392C42.6531 35.6462 42.6531 35.6462 42.5602 35.5618V35.4689C42.5602 35.3759 42.4673 35.3759 42.4673 35.3759V35.283V35.1394C42.4673 35.0465 42.4673 35.0465 42.5602 34.962C42.6531 34.8691 42.7376 34.7846 42.8305 34.7846C42.9234 34.6917 43.0079 34.5143 42.9234 34.3285V34.2356V34.1427C42.9234 34.0498 42.9234 33.9653 43.0163 33.9653C43.1093 33.8724 43.1093 33.7879 43.1937 33.695C43.2866 33.5176 43.3711 33.4247 43.5569 33.4247C43.7428 33.4247 43.9202 33.4247 44.0976 33.6021C44.2749 33.7795 44.3679 34.0582 44.3679 34.3285L44.6382 34.8691C44.7311 35.0465 44.9085 35.0465 45.0014 34.962H45.0943C45.1872 34.962 45.1872 34.962 45.2717 35.055L45.542 35.3253C45.6349 35.4182 45.542 35.5026 45.4491 35.5026H45.0858C44.6297 35.5956 44.182 35.68 43.8188 35.68H43.7259C43.633 35.68 43.633 35.68 43.633 35.7729V35.8659C43.633 35.8659 43.633 35.9588 43.5401 35.9588V36.2291C43.7174 36.8626 43.7174 37.4961 43.633 38.1381C43.5401 38.3155 43.633 38.5942 43.8104 38.7716C43.9033 38.8645 43.9033 38.8645 43.9877 38.8645C43.9877 38.8645 44.0807 38.8645 44.0807 38.9574C44.1736 39.0504 44.1736 39.1348 44.1736 39.2277C44.1736 39.3207 44.2665 39.4981 44.351 39.591C44.4439 39.7684 44.6213 39.8613 44.7142 39.9542H44.8071C44.9 39.9542 44.9845 39.9542 44.9845 39.8613C45.0774 39.6839 45.1619 39.4051 45.0774 39.2277C45.0774 39.1348 44.9845 39.0504 44.9 39.0504H44.8071H44.7142C44.6213 39.0504 44.6213 38.9574 44.6213 38.873C44.5283 38.7801 44.5283 38.6027 44.6213 38.5098V38.4168V38.2395C44.6213 38.1465 44.6213 38.1465 44.5284 38.0621C44.4354 37.9692 44.4354 37.8847 44.351 37.8847C44.2665 37.8847 44.258 37.8847 44.258 37.7918V37.6735C44.351 37.4032 44.351 37.1329 44.258 36.7697C44.258 36.6768 44.2581 36.5923 44.351 36.4994C44.5284 36.322 44.8916 36.4994 45.0774 36.5923C45.3477 36.6852 45.618 36.7697 45.8968 36.7697C46.3529 36.8626 46.8006 36.6768 47.2567 36.4065H47.3496C47.527 36.4994 47.6199 36.5839 47.7129 36.6768C48.0761 36.9471 48.4393 37.04 48.8025 37.2174C49.3431 37.3103 49.8922 37.3103 50.4328 37.2174C50.6102 37.2174 50.7031 37.2174 50.796 37.3103C50.796 37.3103 50.8889 37.3103 50.8889 37.4032C50.8889 37.5806 50.796 37.7664 50.796 37.9438C50.796 38.0367 50.8889 38.1212 50.8889 38.2141C50.9818 38.307 50.9818 38.3915 50.9818 38.4844L51.0747 38.5773C51.345 38.9406 51.438 39.4812 51.0747 39.9373C50.8974 40.1147 50.6186 40.3005 50.4412 40.4779C50.2638 40.6553 49.9851 40.7482 49.7148 40.7482C49.5374 40.7482 49.3516 40.8411 49.2586 40.9256C49.0813 41.103 48.8954 41.1959 48.718 41.2888C48.6251 41.2888 48.5407 41.3817 48.5407 41.4662C48.4477 41.6436 48.3633 41.9223 48.3633 42.1926C48.3633 42.37 48.4562 42.37 48.5407 42.37C48.718 42.37 48.9039 42.2771 49.0813 42.1926C49.1742 42.1926 49.2587 42.0152 49.1742 41.9223L49.0813 41.7449V41.652V41.5591L49.1742 41.4662C49.2671 41.4662 49.2671 41.3733 49.3516 41.3733H49.4445C49.7148 41.4662 49.9851 41.3733 50.078 41.103C50.078 41.103 50.078 41.0101 50.1709 41.0101C50.2638 40.9171 50.2638 40.8327 50.3483 40.8327C50.8889 40.4695 51.438 40.1992 51.9786 40.0133C52.0715 40.0133 52.0715 39.9204 52.0715 39.9204V39.743V39.1095C52.0715 38.9321 52.1644 38.7463 52.3418 38.7463C52.4347 38.7463 52.5192 38.8392 52.5192 38.8392C52.6966 39.1095 52.9753 39.2953 53.2456 39.3798C53.3385 39.3798 53.423 39.4727 53.5159 39.4727C53.6933 39.5656 53.8791 39.743 53.972 40.0133C53.972 40.1062 53.972 40.2836 53.8791 40.3765L53.3385 41.1959C53.2456 41.3733 53.1611 41.4662 52.9753 41.5591C52.7979 41.7365 52.5192 41.8294 52.3418 42.0152C52.1644 42.1082 52.0715 42.2856 51.9786 42.3785L51.7083 43.1978C51.6154 43.3752 51.8012 43.3752 51.8856 43.3752C52.063 43.2823 52.3418 43.1978 52.5192 43.1049C52.5192 43.1049 52.6121 43.1049 52.6121 43.012V42.9191C52.6121 42.8262 52.6121 42.7417 52.5192 42.7417C52.4263 42.6488 52.4263 42.5643 52.5192 42.4714L52.6121 42.3785C52.7895 42.2856 52.8824 42.2856 53.0682 42.2856C53.2456 42.2856 53.4314 42.1926 53.6088 42.0152L53.7017 41.9223C53.8791 41.2888 54.3353 40.7398 54.8843 40.3765C54.9772 40.3765 54.9772 40.2836 54.9772 40.1992V39.9288L54.5211 39.2024C54.4282 39.025 54.3437 38.8392 54.2508 38.5689C54.2508 38.2986 54.3437 38.1128 54.4282 37.9354C54.4282 37.8424 54.5211 37.8425 54.5211 37.758C54.614 37.5806 54.7914 37.4877 54.8843 37.3948C54.9772 37.2174 55.1546 37.1245 55.2475 36.9386C55.3405 36.7612 55.4249 36.4825 55.5178 36.3051C55.6108 36.1277 55.5178 35.9419 55.5178 35.7645C55.5178 35.6716 55.5178 35.6716 55.6108 35.5871L55.8811 35.3168H56.2443C56.5146 35.4097 56.6075 35.4942 56.8778 35.4942H57.241C57.3677 35.8574 57.5451 35.8574 57.638 35.68ZM49.4698 31.8704C49.4698 32.0478 49.3769 32.2337 49.1995 32.3266C49.1066 32.3266 49.0221 32.4195 48.9292 32.4195C48.8363 32.4195 48.8363 32.2421 48.8363 32.0563V31.786V31.5072V31.3298V31.0595V30.5189C48.8363 30.3415 48.7434 30.0628 48.6589 29.8854C48.6589 29.7925 48.566 29.6151 48.566 29.5222C48.566 29.4293 48.4731 29.4293 48.4731 29.3448C48.4731 29.2519 48.3802 29.2519 48.3802 29.2519C48.2872 29.159 48.2028 29.159 48.2028 29.0745V28.9816C48.4731 28.8887 48.7434 28.8887 48.9292 29.0745C49.2924 29.3448 49.4698 29.708 49.4698 30.1642C49.5543 30.7808 49.5543 31.3214 49.4698 31.8704ZM24.7709 43.4005H41.2932C39.7474 41.7703 38.9365 39.591 38.8435 37.3187V37.0484H23.7742C23.8671 39.2193 24.2303 41.3057 24.7709 43.4005ZM48.6505 51.3829H28.1328C28.6734 52.3797 29.2225 53.3764 29.856 54.2887C30.6753 55.4713 31.4862 56.6454 32.4914 57.735H48.6505V51.3829ZM75.157 22.8829H59.9947V28.5086H75.0726C75.0726 26.6925 75.157 24.7834 75.157 22.8829ZM75.3429 13.4392C72.6229 12.3495 69.8017 11.4457 66.9888 10.7193C63.0863 9.81544 59.0909 9.089 55.0955 8.81025C53.1865 8.63286 51.4633 8.53995 49.5543 8.53995V14.8076H75.2499C75.3429 14.343 75.3429 13.8869 75.3429 13.4392ZM59.0909 22.6971H39.7558V37.1329C39.7558 39.7684 40.9384 42.218 42.9319 43.8482C44.748 45.394 47.1047 46.2979 49.4698 46.3908C51.2859 46.3908 53.0091 45.8502 54.5549 44.9379C56.4639 43.8482 58.0012 42.0321 58.7277 39.9457C58.998 39.2193 59.0909 38.4929 59.1838 37.7664L59.0909 22.6971ZM58.6348 37.589C58.6348 38.3155 58.4574 39.0419 58.2715 39.7684C57.5451 41.7618 56.0922 43.4935 54.2761 44.5831C52.8233 45.4869 51.193 45.9431 49.4614 45.9431C47.1891 45.9431 44.9254 45.0393 43.1937 43.5864C41.2847 41.9561 40.1951 39.591 40.1106 37.1414V23.2461H58.6348V37.589ZM53.102 46.3908C52.4685 46.6611 51.7421 46.8469 51.1085 46.9314C51.1085 47.0243 51.1085 47.0243 51.2014 47.1088C51.2944 47.2862 51.3788 47.3791 51.5647 47.3791C51.742 47.3791 51.9279 47.2861 52.1053 46.9229C52.1053 46.9229 52.1982 46.83 52.2827 46.9229C52.46 47.1932 52.8233 47.4635 53.102 47.2861C53.2794 47.1932 53.3723 46.83 53.2794 46.6526L53.102 46.3908Z" fill="black"></path> <defs> <linearGradient id="paint0_linear" x1="22.1565" y1="34.9103" x2="76.5245" y2="34.9103" gradientUnits="userSpaceOnUse"> <stop stop-color="#E1BE78"></stop> <stop offset="1" stop-color="#E3AB36"></stop> </linearGradient> <linearGradient id="paint1_linear" x1="18.0972" y1="12.1994" x2="75.2905" y2="45.2201" gradientUnits="userSpaceOnUse"> <stop stop-color="#E1BE78"></stop> <stop offset="0.34" stop-color="#FFFAD1"></stop> <stop offset="0.75" stop-color="#C69632"></stop> <stop offset="0.995" stop-color="#FCDC99"></stop> </linearGradient> <linearGradient id="paint2_linear" x1="24.1385" y1="6.72021" x2="74.2539" y2="6.72021" gradientUnits="userSpaceOnUse"> <stop stop-color="#FFE3A8"></stop> <stop offset="1" stop-color="#D2A249"></stop> </linearGradient> </defs> </svg> 