<?xml version="1.0" encoding="UTF-8"?> <svg xmlns="http://www.w3.org/2000/svg" width="100" height="101" viewBox="0 0 100 101" fill="none"> <path d="M34.0554 68.3902L35.1573 68.3889C35.0809 68.1883 35.0395 67.9761 35.0349 67.7616V64.1822C35.0349 63.907 35.2027 63.9222 35.3258 64.0755L38.9809 68.3895H40.0979L36.3046 63.9235C36.2131 63.8169 36.2269 63.6484 36.3645 63.6484H36.764C37.2628 63.6483 37.7412 63.45 38.0939 63.0972C38.4466 62.7444 38.6446 62.266 38.6445 61.7672C38.6445 61.2683 38.4462 60.7899 38.0934 60.4373C37.7406 60.0846 37.2622 59.8865 36.7633 59.8866H34.0561C34.1166 60.0551 34.1621 60.2078 34.1785 60.5152V67.7649C34.1732 67.9788 34.1315 68.1902 34.0554 68.3902V68.3902ZM35.0322 60.7252H36.7601C36.895 60.7251 37.0287 60.7517 37.1534 60.8033C37.2781 60.8549 37.3915 60.9306 37.4869 61.026C37.5824 61.1214 37.6581 61.2347 37.7098 61.3594C37.7615 61.4841 37.7882 61.6177 37.7882 61.7527C37.7882 61.8877 37.7617 62.0213 37.7101 62.146C37.6585 62.2707 37.5828 62.3841 37.4874 62.4795C37.392 62.575 37.2787 62.6508 37.154 62.7025C37.0293 62.7541 36.8957 62.7808 36.7607 62.7808L35.0322 62.7782V60.7252ZM58.6223 31.8128C57.1103 35.6127 53.6125 36.8218 53.6125 36.8218L54.8645 39.4133C54.8645 39.4133 55.0422 39.3698 55.3443 39.2625C56.1184 40.1367 59.164 43.9603 59.3141 49.9534C59.3141 49.9521 59.5286 52.4151 57.3262 54.1416H64.0217C64.0217 54.1416 63.1568 53.5802 62.8118 52.0255C62.4663 50.4714 62.5512 47.7497 61.084 44.4664C59.9005 41.8243 58.2714 39.098 57.681 38.1363C59.4668 37.0437 61.6573 35.121 62.8546 31.8977C65.0992 25.8519 60.7819 21.3595 56.722 20.5822C56.722 20.5822 57.8436 22.6135 58.018 24.0813C58.018 24.0806 60.5765 26.8991 58.6223 31.8128V31.8128ZM64.7082 7.57702C64.4192 7.36244 63.4602 6.5265 63.1028 6.24478C62.8276 6.03151 62.3827 4.51694 63.7472 4.48601C64.435 4.46955 65.0478 4.99086 65.2756 5.12843L65.6587 4.16479C65.4272 4.11734 65.2015 4.04541 64.9853 3.95021C64.7141 3.83568 64.2204 3.62834 63.7472 3.62834C63.2726 3.62834 61.9693 3.90546 61.8956 5.31076C61.8344 6.47516 62.6144 7.03925 62.906 7.27095C63.3187 7.57636 64.3731 8.38663 64.8477 9.04486C65.323 9.70242 65.5672 11.0794 63.8689 11.2782C63.2871 11.2775 62.6473 10.9886 62.2932 10.7582L62.4307 11.9516C62.7829 11.889 62.9823 11.9647 63.1337 11.9825C63.3944 12.0115 63.7472 12.0898 64.0809 12.074C64.4192 12.0589 66.1484 11.7686 66.1484 10.1C66.1477 8.63215 65.1209 7.91337 64.7082 7.57702V7.57702ZM58.2662 68.6818C59.1791 68.6818 60.0249 68.6693 60.718 68.1769L60.6832 67.1343C60.0657 67.7524 59.2114 67.8603 58.2662 67.8603C56.379 67.8603 54.848 66.1463 54.848 64.2592C54.848 62.3721 56.379 60.7166 58.2662 60.7166C59.1238 60.7166 59.9196 60.9542 60.5699 61.4644L60.4554 60.4375C59.7959 60.0183 59.1047 59.8958 58.2662 59.8958C55.9249 59.8958 54.0265 61.9172 54.0265 64.2592C54.0259 66.6018 55.9249 68.6818 58.2662 68.6818V68.6818ZM44.0347 68.4995C45.1591 68.4995 46.2373 68.0528 47.0324 67.2578C47.8274 66.4628 48.274 65.3845 48.274 64.2602C48.274 63.1358 47.8274 62.0576 47.0324 61.2625C46.2373 60.4675 45.1591 60.0209 44.0347 60.0209C42.9104 60.0209 41.8321 60.4675 41.0371 61.2625C40.2421 62.0576 39.7954 63.1358 39.7954 64.2602C39.7954 65.3845 40.2421 66.4628 41.0371 67.2578C41.8321 68.0528 42.9104 68.4995 44.0347 68.4995V68.4995ZM44.0347 60.8424C44.9266 60.8638 45.7748 61.2332 46.398 61.8715C47.0212 62.5099 47.3701 63.3667 47.3701 64.2589C47.3701 65.151 47.0212 66.0078 46.398 66.6462C45.7748 67.2846 44.9266 67.6539 44.0347 67.6754C43.1284 67.6755 42.2591 67.3158 41.618 66.6751C40.9769 66.0345 40.6164 65.1655 40.6159 64.2592C40.6163 63.3528 40.9766 62.4836 41.6178 61.8428C42.2589 61.202 43.1283 60.8422 44.0347 60.8424ZM65.5349 68.5126L66.1622 67.5036C65.737 67.7326 64.8319 67.7326 64.2645 67.7326C63.7018 67.7326 63.4391 67.4437 63.4391 67.1982V64.4139C63.4391 64.0755 63.6531 63.9702 63.9137 63.9702H65.4118V63.1106H63.915C63.6544 63.1106 63.4404 63.0066 63.4404 62.6683V61.3202C63.4404 61.0767 63.7011 60.7864 64.2659 60.7864C64.8332 60.7864 65.3381 60.7864 65.7653 61.0155L65.5343 60.0071H62.4604C62.5229 60.1756 62.567 60.3276 62.5821 60.6337L62.5834 67.8853C62.579 68.1004 62.5373 68.3131 62.4604 68.5139L65.5349 68.5126V68.5126ZM50.7703 67.8847C50.766 68.0988 50.7248 68.3105 50.6486 68.5106L51.7491 68.512C51.6736 68.3107 51.632 68.0983 51.626 67.8834H51.6273V64.0295L53.9515 60.0071H52.9576L51.2304 63.0513L49.5019 60.0071H48.5074L50.771 64.0295L50.7703 67.8847V67.8847ZM50.9329 40.4967C50.7486 39.8747 50.0739 38.5286 49.7369 37.9731C48.4869 38.1837 47.3226 38.2535 46.403 38.2535L46.4037 37.5814C45.9758 37.7328 44.0769 38.008 43.2824 38.1021V51.5325C43.2824 52.9404 42.6696 53.6111 42.2411 54.2246H47.4423C47.0138 53.6111 46.4024 52.9404 46.4024 51.5338L46.4037 40.885C48.015 40.86 49.5645 40.7251 50.9329 40.4967V40.4967ZM51.572 10.6187V4.05487C51.5865 3.7488 51.6339 3.59675 51.6958 3.4289L50.5939 3.42956C50.6545 3.59807 50.6992 3.74946 50.7177 4.05487V11.3072C50.7111 11.5216 50.6693 11.7336 50.5939 11.9345H53.6678L54.2951 10.9241C53.8673 11.1531 52.9648 11.1525 52.3988 11.1531C51.8314 11.1531 51.572 10.8635 51.572 10.6187V10.6187ZM44.5876 3.44207C44.0246 3.43223 43.4652 3.53465 42.9422 3.74333C42.4192 3.95202 41.9429 4.2628 41.5413 4.65753C41.1397 5.05226 40.8207 5.52303 40.603 6.04238C40.3853 6.56172 40.2732 7.11922 40.2733 7.68235C40.2734 8.24547 40.3857 8.80294 40.6035 9.32222C40.8214 9.84149 41.1405 10.3122 41.5423 10.7068C41.944 11.1014 42.4203 11.412 42.9434 11.6205C43.4665 11.8291 44.0259 11.9313 44.589 11.9213C45.7004 11.9015 46.7597 11.4461 47.5387 10.653C48.3176 9.85994 48.754 8.79268 48.7539 7.68103C48.7537 6.56938 48.317 5.50226 47.5377 4.70943C46.7585 3.9166 45.6991 3.46148 44.5876 3.44207V3.44207ZM44.5883 11.0992C44.1326 11.1101 43.6794 11.0298 43.2552 10.863C42.831 10.6962 42.4445 10.4463 42.1184 10.1279C41.7922 9.80948 41.5331 9.42907 41.3561 9.00903C41.1792 8.58899 41.088 8.1378 41.088 7.68201C41.088 7.22621 41.1792 6.77503 41.3561 6.35499C41.5331 5.93494 41.7922 5.55453 42.1184 5.23614C42.4445 4.91774 42.831 4.66779 43.2552 4.50098C43.6794 4.33418 44.1326 4.25389 44.5883 4.26485C45.4804 4.28629 46.3287 4.65573 46.952 5.29423C47.5754 5.93274 47.9243 6.78968 47.9243 7.68201C47.9243 8.57433 47.5754 9.43128 46.952 10.0698C46.3287 10.7083 45.4804 11.0777 44.5883 11.0992V11.0992ZM57.4151 10.6187L57.4138 4.05487C57.4282 3.74946 57.477 3.59741 57.5375 3.4289L56.4356 3.42956C56.4962 3.59807 56.5436 3.74946 56.5594 4.05487V11.3072C56.5538 11.5217 56.512 11.7338 56.4356 11.9345H59.5109L60.1368 10.9241C59.709 11.1531 58.8066 11.1525 58.2405 11.1531C57.6744 11.1531 57.4151 10.8635 57.4151 10.6187V10.6187ZM36.9193 7.19064L37.3163 7.19262C37.8071 7.17964 38.2735 6.97554 38.616 6.62379C38.9586 6.27204 39.1503 5.80044 39.1503 5.30944C39.1503 4.81844 38.9586 4.34684 38.616 3.9951C38.2735 3.64335 37.8071 3.43925 37.3163 3.42627L34.6103 3.42956C34.6715 3.59741 34.7169 3.74946 34.7314 4.05553V11.3078C34.7269 11.5225 34.6857 11.7349 34.6096 11.9358H35.7115V11.9345C35.6352 11.7338 35.5933 11.5217 35.5878 11.3072V7.72709C35.5878 7.45196 35.7563 7.46644 35.8794 7.6198L39.5358 11.9338H40.6508L36.8575 7.46578C36.766 7.35849 36.7818 7.19064 36.9193 7.19064V7.19064ZM35.5864 6.32311V4.27011H37.3143C37.5806 4.27964 37.8328 4.39214 38.0179 4.58391C38.2029 4.77568 38.3063 5.03177 38.3063 5.29825C38.3063 5.56474 38.2029 5.82083 38.0179 6.0126C37.8328 6.20437 37.5806 6.31687 37.3143 6.3264L35.5864 6.32311Z" fill="white" stroke="white" stroke-width="0.203109" stroke-miterlimit="22.926"></path> <path d="M36.1256 50.8596L41.3262 50.8583C40.8984 50.2448 40.2862 49.5741 40.2862 48.1661L40.2869 37.5187C43.7926 37.4602 46.721 36.8816 49.0689 35.9489C52.647 39.7811 53.0748 45.3516 53.1367 46.8787C53.1973 48.411 52.4028 49.7571 51.1778 50.8589H57.9707C56.9294 50.3073 56.5628 48.8395 56.5029 47.4316C55.8295 41.0679 52.281 36.1121 51.422 34.826C55.4537 32.4083 57.2355 28.7032 57.2355 25.2817C57.2355 19.5907 52.2178 16.8979 47.8736 16.8979H36.4317C36.8595 17.5094 37.1649 17.7543 37.1649 19.1616V48.1655C37.1649 49.5741 36.5541 50.2468 36.1256 50.8596ZM40.2869 18.9174H47.0172C51.6669 18.9174 53.1973 21.8557 53.1367 24.975C52.8306 33.6036 44.2632 34.8898 40.2869 34.8898V18.9174V18.9174Z" fill="white" stroke="white" stroke-width="0.203109" stroke-miterlimit="22.926"></path> <path d="M67.2167 1H32.9339C32.4212 1.00087 31.9299 1.20489 31.5674 1.56737C31.2049 1.92986 31.0009 2.42123 31 2.93386V69.0661C31 69.5842 31.2014 70.0679 31.5674 70.4352C31.7464 70.6152 31.9594 70.7577 32.194 70.8547C32.4285 70.9516 32.68 71.001 32.9339 71H67.2483C67.765 71 68.2185 70.7992 68.5838 70.4352C68.9492 70.0679 69.1183 69.5842 69.1183 69.0661V2.9332C69.1183 1.8682 68.2837 1 67.2167 1V1ZM67.9592 69.209C67.9592 69.6 67.6413 69.9198 67.2483 69.9198H32.9339C32.8406 69.9199 32.7482 69.9015 32.6621 69.8655C32.576 69.8296 32.4979 69.7769 32.4323 69.7105C32.366 69.645 32.3133 69.5669 32.2775 69.4807C32.2417 69.3946 32.2234 69.3022 32.2236 69.209L32.2243 58.3983H67.9598L67.9592 69.209V69.209ZM67.9592 57.0332H32.2243V14.3586L67.9598 14.3257L67.9592 57.0332V57.0332ZM67.9592 12.9599H32.2243V2.79168C32.2243 2.60211 32.298 2.42308 32.4323 2.28946C32.5666 2.15584 32.7443 2.0808 32.9339 2.0808H67.2483C67.4369 2.08115 67.6176 2.15625 67.7508 2.28963C67.8841 2.42301 67.959 2.6038 67.9592 2.79234V12.9599V12.9599Z" fill="white" stroke="white" stroke-width="0.203109" stroke-miterlimit="22.926"></path> <path d="M50.1701 20.1687L42.5505 20.1694C42.9804 20.7802 43.2858 21.0251 43.2858 22.4323V33.9354C44.2942 33.8446 45.7008 33.3851 46.4038 33.1403V22.1881H51.9144C51.607 21.4246 50.7816 20.5366 50.1701 20.1687Z" fill="white" stroke="white" stroke-width="0.203109" stroke-miterlimit="22.926"></path> </svg> 