<?xml version="1.0" encoding="UTF-8"?> <svg xmlns="http://www.w3.org/2000/svg" width="100" height="100" viewBox="0 0 100 100" fill="none"> <path fill-rule="evenodd" clip-rule="evenodd" d="M30.5925 9.29157C37.1606 6.44002 43.5568 5.0274 50.0769 4.99661C56.592 4.96592 63.227 6.31594 70.2776 8.98939L70.4842 9.06776L70.4845 9.2875L70.5157 22.4284V22.4334L70.5153 22.4639V22.4652C70.4896 23.7816 70.3097 25.2347 69.9875 26.7764C69.6663 28.3133 69.204 29.9343 68.6121 31.591C65.5685 40.1109 59.0674 49.6956 50.5977 53.9639L50.4559 54.0354L50.3133 53.9652C50.262 53.9399 50.3748 53.9966 50.2927 53.9556L50.293 53.9552C48.6029 53.1187 47.0053 52.086 45.5074 50.9026C44.0117 49.721 42.6094 48.3847 41.3088 46.9402C34.6436 39.5383 30.6954 29.3108 30.4525 22.467V22.457L30.3992 9.58616L30.3984 9.3761L30.5925 9.29157ZM69.8766 22.454C69.8766 22.4535 69.8766 22.4531 69.8766 22.4527V22.454C69.8514 23.7365 69.6768 25.1495 69.3639 26.6466C69.0499 28.1487 68.5951 29.741 68.0109 31.3765C65.0291 39.7231 58.6941 49.0987 50.4519 53.3223C48.855 52.5204 47.3364 51.5327 45.9039 50.401C44.4319 49.2381 43.0557 47.9273 41.7826 46.5134C35.2177 39.2228 31.3296 29.1662 31.0911 22.4444L31.0387 9.79435C37.4587 7.03366 43.7111 5.66528 50.0794 5.63522C56.4533 5.60527 62.948 6.91464 69.8466 9.5079L69.8771 22.424L69.8766 22.454ZM69.8767 22.4527L69.8771 22.424Z" fill="#1B1918"></path> <path fill-rule="evenodd" clip-rule="evenodd" d="M18.2765 56.0193V57.8981H20.0837V68.1311H18V69.9999H25.0597V68.1214H23.0377V63.8481H24.2329L24.2123 64.669H25.7098V61.0316H24.1267V61.9624L23.0584 61.9782V57.8569H76.6868V56.0169L18.2765 56.0193ZM29.7658 59.5226C28.6918 59.6626 27.9614 60.1901 27.5747 61.1057V67.6317C27.6499 68.9779 28.4556 69.7639 29.9913 69.9902H33.8269C35.2334 69.8286 36.0816 69.1931 36.3713 68.084V66.63H33.3731V67.9259C33.2769 68.3555 33.0518 68.5697 32.698 68.5686H31.3443C30.8171 68.6338 30.6671 68.3966 30.5713 68.1164V65.5316H36.3076V61.2026C35.807 60.1465 35.0768 59.7159 34.148 59.5226H29.7658ZM31.1514 60.8795C30.8555 60.9041 30.5761 61.1928 30.6035 61.4758V64.4011H33.3109V61.5577C33.3341 61.2619 33.1952 61.0383 32.8943 60.8872L31.1514 60.8795ZM37.6131 59.517V61.1672H38.689V68.1187H37.7206V69.911H42.5961V68.1531H41.555V63.0293C42.6901 61.763 43.3474 61.2133 43.5268 61.3807V65.1088H46.5734V60.9865C45.9878 59.2542 44.2793 59.0272 42.8458 60.198L41.5503 61.0631V59.5104L37.6131 59.517ZM47.8374 59.517V61.1672H48.9133V68.1187H47.9449V69.911H52.8204V68.1531H51.7793V63.0293C52.9144 61.763 53.5717 61.2133 53.7511 61.3807V65.1088H56.7977V60.9865C56.2121 59.2542 54.5036 59.0272 53.0701 60.198L51.7746 61.0631V59.5104L47.8374 59.517ZM67.816 59.517V61.1672H68.8919V68.1187H67.9236V69.911H72.799V68.1531H71.758V63.0293C72.8931 61.763 73.5503 61.2133 73.7297 61.3807V65.1088H76.7763V60.9865C76.1908 59.2542 74.4823 59.0272 73.0487 60.198L71.7532 61.0631V59.5104L67.816 59.517ZM77.7338 59.4312V60.9927L78.7072 61.0035V68.0035H77.7338V69.7898H82.8516V68.064L81.8095 68.0716V60.9927H82.7893V59.4302L77.7338 59.4312ZM80.292 55.8984C78.8494 55.8984 77.6729 56.3362 77.6729 56.873C77.6729 57.4098 78.8494 57.8475 80.292 57.8475C81.7346 57.8475 82.9112 57.4098 82.9112 56.873C82.9112 56.3362 81.7346 55.8984 80.292 55.8984ZM57.6942 62.7204H60.6813V61.4413C60.6681 61.0046 60.8499 60.8019 61.227 60.8322H62.4452C62.8804 60.842 63.0428 61.0856 62.9325 61.5631V63.8168H60.13C58.812 63.7426 57.767 64.619 57.7551 65.5393V67.9613C57.8047 68.8058 58.6436 69.9719 60.0088 69.9688H66.709V68.0766H65.978V61.6847C65.7141 60.2839 64.8004 59.5329 63.2371 59.4312H60.3743C59.2982 59.553 57.6129 59.9794 57.6942 62.7204ZM62.9936 64.8306V68.5432H61.4432C60.9566 68.5817 60.7037 68.4551 60.6842 68.1047V65.2983C60.6843 65.0643 60.8403 64.9083 61.1519 64.8306H62.9936Z" fill="white"></path> <path fill-rule="evenodd" clip-rule="evenodd" d="M30.7191 9.58572C43.7741 3.91653 56.1399 3.96774 70.1661 9.28714L70.1974 22.429C70.0313 31.7003 62.1245 47.7979 50.4545 53.6803C38.5453 47.7979 31.1076 31.8832 30.7722 22.4551L30.7191 9.58572Z" fill="#FFEC00"></path> <path fill-rule="evenodd" clip-rule="evenodd" d="M49.0448 29.6938L48.7118 29.6272L48.6452 29.7937C48.6452 29.7937 48.5786 29.9269 48.6452 30.1268C48.7118 30.3266 48.6785 30.6264 48.7451 30.7929C48.8117 30.9594 48.8783 31.0927 48.9449 31.3591C49.0115 31.6256 49.1781 32.4249 49.1781 32.4249C49.1781 32.4249 49.2447 32.6914 49.4112 32.9911C49.5778 33.2909 49.7443 33.4241 49.8442 33.6572C49.9441 33.8904 50.1772 34.39 50.1772 34.39L50.5103 34.7897C50.5103 34.7897 50.6103 34.7563 50.6768 35.0228C50.7434 35.2893 50.7768 35.2226 50.7768 35.3892C50.7768 35.5557 50.5436 35.6889 50.5436 35.6889C50.5436 35.6889 50.2106 35.6223 49.9441 35.6223C49.6777 35.6223 49.611 35.589 49.3113 35.5557C49.0115 35.5224 48.6119 35.4558 48.6119 35.4558C48.6119 35.4558 48.4786 35.3226 48.1789 35.2559C47.8791 35.1893 47.5461 35.1227 47.5461 35.1227C47.5461 35.1227 47.2463 34.9562 47.0465 34.9562C46.8466 34.9562 46.7134 34.9229 46.7134 34.9229L46.3137 34.9562L46.014 34.823H45.4145H44.7816L44.3487 34.7897H43.8158L43.5826 34.9229L43.7158 35.4891L43.949 35.7555L44.4486 36.022C44.4486 36.022 44.815 36.2218 44.9815 36.2218C45.148 36.2218 45.4145 36.2551 45.6143 36.2551C45.8141 36.2551 46.1139 36.1885 46.1139 36.1885C46.1139 36.1885 46.4803 35.9887 46.5802 36.1552C46.6801 36.3218 46.9465 36.4217 46.9465 36.4217C46.9465 36.4217 47.1131 36.4217 47.3129 36.4217C47.5127 36.4217 47.5794 36.4217 47.8125 36.4217C48.0457 36.4217 47.8791 36.2218 48.2788 36.3883C48.6785 36.5549 49.0782 36.5216 49.0782 36.5216L50.0107 36.8214C50.0107 36.8214 50.2439 36.9545 50.4104 37.0212C50.5769 37.0878 50.7434 37.1211 50.9433 37.1877C51.1431 37.2543 51.4762 37.3209 51.6427 37.3209C51.8093 37.3209 52.0757 37.1544 52.0757 37.1544C52.0757 37.1544 52.2422 37.0878 52.2422 36.888C52.2422 36.6881 52.2089 36.5549 52.2089 36.5549L51.8093 35.8555L51.5761 35.0561L51.343 34.1901L51.3763 33.4241L51.5095 32.5914L51.343 32.3583L50.8434 31.892L50.7768 31.6256L50.6768 31.2925L50.5103 30.9594L50.2772 30.5931L50.0107 30.3599L49.6444 30.0602L49.3113 29.8603L49.0448 29.6938Z" fill="#1B1918"></path> <path fill-rule="evenodd" clip-rule="evenodd" d="M50.115 7.51562L49.9434 7.65866L49.9148 7.80165C49.8576 8.03046 49.8862 8.20204 49.8862 8.20204L49.9434 8.37363L49.8576 8.60243L49.5144 8.63102H49.2284L48.8566 8.54525L48.5992 8.37363L48.3704 8.34503H48.0844H47.7412L47.541 8.43085L47.7412 8.54525L47.97 8.63102L47.827 8.71683L47.5982 8.68824L47.255 8.63102L47.0262 8.77402L46.9404 8.91705L47.1978 8.94564C47.1978 8.94564 47.1406 8.85983 47.3408 8.88842C47.541 8.91705 47.6554 8.94564 47.6554 8.94564L47.8556 8.97423L48.0272 9.06004L48.3704 9.20304L48.5706 9.31744L46.111 10.633L45.4858 10.7489L45.11 11.0906L44.6238 11.6054V12.5206L44.7382 12.6636L44.9956 12.635L45.968 12.349L46.111 12.4062L46.1396 12.5492L45.8536 12.635L45.0814 12.8924C45.253 13.0068 45.4532 13.0926 45.4532 13.0926C45.4532 13.0926 45.5104 13.1212 45.6534 13.1212C45.7964 13.1212 45.682 13.1212 45.9394 13.064C46.1969 13.0068 46.3112 12.9782 46.3112 12.9782L46.5972 12.8638L46.7974 12.8924L47.0262 12.8352L47.1692 12.9496L47.4266 12.9782L47.7984 13.064L48.1702 13.1212L48.5134 13.1784L48.8566 13.207H49.0568L49.2284 13.5216L49.1426 13.8076L48.9996 14.1794L48.7708 14.6942L48.5706 15.0946L48.2274 15.6666L47.97 16.0956L47.5982 16.5818L47.255 16.9536L46.7974 17.2682L46.54 17.5542L46.397 17.9546L46.1396 18.2406L45.6248 18.5552L45.1672 18.8698L44.7097 19.1844L44.3092 19.4704L43.9374 19.6706L43.7658 19.5562L43.3654 19.3846L42.9364 19.1558L42.4789 18.9842L42.2215 18.7554L41.9354 18.4122L41.5923 18.1834L41.2205 17.9546L40.9917 17.8688L40.534 17.8402L40.1908 17.926L39.8763 18.1834L39.6761 18.4694L39.5616 18.784L39.3043 19.1844L39.0754 19.928L39.0183 20.2712C39.0183 20.2712 38.7323 20.8432 38.7037 20.9862C38.6751 21.1292 38.5607 21.5868 38.5607 21.5868L38.3033 22.216L38.2747 22.5306L38.0173 22.9882C38.0173 22.9882 37.8743 23.1312 37.8743 23.2742C37.8743 23.4172 37.9601 23.8176 37.9601 23.8176C37.9601 23.8176 37.9315 24.1322 37.9315 24.2752C37.9315 24.4182 37.8743 24.504 37.8743 24.647C37.8743 24.79 37.8171 25.0474 37.8456 25.1904C37.8743 25.3334 37.9315 25.6766 37.9315 25.6766L38.3033 25.791L38.5321 25.505L38.818 25.2762L39.1041 24.9616L38.9897 24.4754L38.8753 24.1036L38.7609 23.646L38.7037 23.0168L38.8753 22.2732L39.0469 21.8728L39.3328 21.6726L39.6189 21.4724L40.0193 21.1578L40.1908 20.6716L40.3911 20.214L40.4197 19.8994L40.7629 19.9852L40.9344 20.1568L41.1918 20.4428L41.4779 20.7574L41.821 21.1006L42.2786 21.4724L42.4789 21.7012L42.4502 21.8442L42.1357 21.8156L41.4779 21.6154L41.0774 21.5868L40.7056 21.5582L40.4482 21.4724L40.1337 21.501L39.7046 21.5868L39.3328 21.8442L39.0754 22.216L38.9897 22.645V23.0454L39.0469 23.6746L39.1898 24.3324L39.5045 26.2772L39.6475 26.5918C39.6475 26.5918 39.6761 26.7634 39.6761 26.935C39.6761 27.1066 39.8763 27.364 39.8763 27.364L40.1337 27.5642L40.3911 27.936L40.6485 28.5652L40.8487 28.8512L41.1632 29.223L41.4206 29.4518L41.821 29.5375L42.1357 29.3945L42.2215 28.9942L42.2501 28.4794L42.1928 28.0218L41.9354 27.65L41.6494 27.3926L41.1347 27.2496V26.6776L40.9058 26.4488L40.7629 26.1056L40.534 25.3334L40.4482 24.7328L40.2194 24.1608L40.1908 23.7604L40.2767 23.4744L40.4482 23.36L40.7629 23.4458L41.3348 23.7318L41.7639 23.9606L42.2786 24.1608L42.7363 24.361L43.0222 24.6184L43.4799 25.0188L43.8517 25.1618L44.3092 25.219H44.8526L45.1386 25.2476L44.9956 25.5336L45.0528 25.8196C45.0528 25.8196 45.1959 26.0198 45.253 26.1628C45.3102 26.3058 45.5676 26.5632 45.5676 26.5632L45.968 27.0208L46.4828 27.4784L46.9404 27.936L47.5124 28.3364L48.0558 28.7368L48.7136 29.1086L49.1712 29.5089L49.9148 29.9952L50.4582 30.5672L50.83 30.939L51.0302 31.5109L51.1732 31.94C51.1732 31.94 51.4592 32.2545 51.6022 32.2545C51.7452 32.2545 51.8882 32.2545 51.8882 32.2545L52.2028 31.8256L52.5174 31.1964L52.546 30.5099L52.5746 30.2525L52.7462 29.8807C52.7462 29.8807 52.8892 29.6806 53.0608 29.6806C53.2324 29.6806 53.2896 29.7378 53.2896 29.7378L53.0322 30.081C53.0322 30.081 52.832 30.2811 52.832 30.4242C52.832 30.5672 52.832 30.8817 52.832 30.8817L52.7748 31.3394L52.6032 31.7112L52.3744 31.9971L52.0312 32.4548L51.9168 32.798L51.7452 33.1983C51.7452 33.1983 51.5736 33.7704 51.5736 33.9419C51.5736 34.1135 51.688 34.2565 51.688 34.4567C51.688 34.657 51.7738 35.0001 51.831 35.1717C51.8882 35.3433 52.0312 35.7724 52.0312 35.7724C52.0312 35.7724 52.1456 36.0583 52.26 36.2013C52.3744 36.3443 52.6318 36.8591 52.6318 36.8591L52.9178 37.2023L53.0322 37.5455L53.261 37.8601L53.3754 38.0889C53.3754 38.0889 53.3468 38.3177 53.261 38.4607C53.1752 38.6037 53.0608 38.8039 52.9464 38.9755C52.832 39.1471 52.5174 39.3473 52.5174 39.3473L52.1456 39.9193L51.6022 40.3197L51.2876 40.4913L50.9158 40.6343L50.4868 41.1205L50.2866 41.4637L49.7718 42.0357L49.3714 42.6935L49.1998 43.1225L49.3142 43.5801L49.7146 43.6659L51.3162 42.9509L51.3734 42.7221L51.402 42.3503L51.4878 42.0929L51.9454 41.7783L52.2028 41.4351L52.3172 41.0633L52.3744 40.8345L52.689 40.6343L52.9464 40.3769L53.0894 40.1481L53.4898 39.8049L53.8044 39.5475L54.4908 39.1471L54.8912 38.8325L54.977 37.7171L54.691 37.374L54.4908 37.0022C54.4908 37.0022 54.4622 36.7447 54.4622 36.5731C54.4622 36.4015 54.4622 36.0011 54.4622 36.0011C54.4622 36.0011 54.5194 35.7724 54.6052 35.6293C54.691 35.4863 55.0342 35.1717 55.0342 35.1717L55.549 34.7427L56.0924 34.4281L56.5786 33.8847L57.1792 33.1411L57.4938 32.655L57.7798 31.9971L57.98 31.4823V31.0534C57.98 31.0534 58.0372 30.796 58.1802 30.8817C58.3232 30.9676 58.3232 30.9961 58.3804 31.1678C58.4376 31.3394 58.4376 31.5682 58.4376 31.797C58.4376 32.0257 58.3518 32.2832 58.3518 32.2832L58.3804 32.8551L58.409 33.3699L58.6092 33.5416V33.1983L58.6664 32.8266L58.7808 32.4548V32.1115L58.9238 31.7683C58.9238 31.7683 59.0954 31.9971 59.124 32.1688C59.1526 32.3403 59.2098 32.655 59.2098 32.655C59.2098 32.655 59.2098 32.941 59.124 33.1411C59.0382 33.3413 59.0954 33.3986 58.981 33.5416C58.8666 33.6846 58.6664 33.9991 58.6664 33.9991C58.6664 33.9991 58.4662 34.1993 58.4376 34.3709C58.409 34.5426 58.3804 34.657 58.3804 34.8571C58.3804 35.0573 58.5234 35.3719 58.5234 35.3719L58.6378 35.1432L58.695 34.7714L58.8952 34.2852L59.2384 33.8561L59.6388 33.1698L59.8676 32.3118L59.8962 31.7683L59.839 31.3965L59.6388 31.0534L59.553 30.7673L59.7246 30.6816L59.982 31.082C59.982 31.082 60.0106 31.1105 60.0678 31.2822C60.125 31.4538 60.125 31.2535 60.1536 31.5396C60.1822 31.8256 60.1536 31.8256 60.2108 32.0257C60.268 32.2259 60.268 32.3118 60.3252 32.4833C60.3824 32.655 60.4396 32.7693 60.4682 32.9124C60.4968 33.0554 60.6684 33.2842 60.6684 33.2842V33.0554L60.5254 32.798L60.6112 32.4548L60.554 32.1115L60.6398 31.7397L60.697 31.2822L60.554 30.9104L60.411 30.5386V30.2525L60.9544 29.9666L61.6408 29.5375L61.9554 29.1657L62.3272 28.7939L62.5274 28.1934L62.6132 27.5642L62.7276 26.792L62.6132 25.9054L62.4702 25.2476L62.413 24.6184L62.3558 24.0178L62.4702 23.4458L62.699 22.8738L63.0708 22.359L63.271 22.073L63.4595 21.3582L63.1566 21.5582L62.985 21.7584L62.9278 21.93L62.6132 22.3018L62.3558 22.6164L62.127 22.9596L61.984 23.2456H61.7266L61.6122 22.8738C61.6122 22.8738 61.6122 22.645 61.6122 22.4734C61.6122 22.3018 61.7266 21.93 61.7266 21.93L61.8982 21.5296L62.0698 21.1006L62.4416 20.6716L62.6704 20.1854L62.7848 19.5562L62.5274 19.8994L62.1842 20.3284L61.7838 20.786L61.4692 21.1292L61.126 21.501L60.9544 21.7298L60.7828 21.5868L60.7256 21.2722L60.84 20.786L61.0116 20.2998L61.1546 19.7564L61.5836 19.07L61.984 18.641L62.3272 18.3836C62.1556 18.355 61.8124 18.5552 61.8124 18.5552L61.412 18.9556L60.6112 19.8136L60.2966 20.4428L60.125 21.0148L60.0678 21.5296C60.0678 21.5296 59.982 21.93 60.0106 22.073C60.0392 22.216 60.0678 22.4448 60.0964 22.645C60.125 22.8452 60.0964 23.0168 60.2108 23.2742C60.3252 23.5316 60.411 23.7032 60.4682 23.9034C60.5254 24.1036 60.5826 24.2466 60.6398 24.504C60.697 24.7614 60.6684 24.8186 60.7256 25.0188C60.7828 25.219 60.8114 25.505 60.8114 25.648C60.8114 25.791 60.8972 26.1914 60.8972 26.1914L60.84 26.8206C60.84 26.8206 60.84 27.1066 60.8114 27.2496C60.7828 27.3926 60.697 27.4498 60.6398 27.65C60.5826 27.8502 60.5826 28.0218 60.4682 28.1647C60.3538 28.3078 60.2394 28.4794 60.125 28.6224C60.0106 28.7654 59.7818 28.9656 59.7818 28.9656C59.7818 28.9656 59.6102 29.1086 59.3814 29.223C59.1526 29.3374 59.0382 29.3088 58.8952 29.3945C58.7522 29.4804 58.7236 29.509 58.5234 29.5375C58.3232 29.5662 57.8656 29.5948 57.8656 29.5948L57.8942 29.3374L57.694 28.9942L57.4366 28.5652L57.1506 27.9646L56.7788 27.507L56.407 27.1352L56.1496 26.8206L55.6348 26.4202L55.1772 26.0198L54.7482 25.7338L54.119 25.2476L53.5184 24.79L52.8892 24.075L52.26 23.2456L51.8882 22.645L51.6308 22.1588L51.4878 21.6154L51.545 21.0148C51.545 21.0148 51.8024 21.1292 51.9454 21.215C52.0884 21.3008 52.5174 21.3008 52.5174 21.3008L52.832 21.4438L53.2324 21.5868L53.5756 21.9014L54.0332 22.2446L54.405 22.1588L54.2334 22.0158L54.0046 21.9014L53.7472 21.5296L53.5184 21.2436L53.261 21.072L52.975 20.9576L53.404 20.9004L53.8044 21.1578L54.119 21.4152C54.2334 21.2436 54.1762 21.1006 54.1762 21.1006L53.7186 20.8146L53.404 20.5572L52.9464 20.3284L52.546 20.214L52.4316 19.9852L52.6604 20.0138L53.0036 20.1568L53.261 20.214L53.5184 20.2712L53.8902 20.4714C53.8902 20.4714 54.0904 20.5 54.2906 20.5572C54.4908 20.6144 54.6624 20.6716 54.834 20.6716C55.0056 20.6716 55.0914 20.7002 55.2344 20.643C55.3774 20.5858 55.6634 20.4428 55.6634 20.4428L55.9208 20.1282L55.5776 20.3284C55.5776 20.3284 55.3202 20.4714 55.1486 20.4714C54.977 20.4714 54.7768 20.4714 54.7768 20.4714C54.7768 20.4714 54.4622 20.2998 54.3764 20.1568C54.2906 20.0138 54.2334 19.928 54.0618 19.8136C53.8902 19.6992 53.6614 19.5562 53.5184 19.5562C53.3754 19.5562 53.0894 19.4704 53.0894 19.4704L52.7748 19.2416C52.7748 19.2416 52.9464 19.2702 53.0894 19.2988C53.2324 19.3274 53.547 19.2988 53.547 19.2988L53.7758 19.213C53.7758 19.213 53.833 19.1844 54.0904 19.213C54.3478 19.2416 54.2334 19.07 54.4622 19.2702C54.691 19.4704 54.9484 19.5276 54.9484 19.5276L55.0056 19.3846L54.7482 19.1844L54.548 19.0128L54.262 18.784C54.262 18.784 54.0904 18.6696 53.9188 18.6696C53.7472 18.6696 53.5756 18.6696 53.5756 18.6696L53.4612 18.498C53.4612 18.498 53.4898 18.4408 53.69 18.4694C53.8902 18.498 54.0332 18.5266 54.0332 18.5266L54.405 18.6696C54.405 18.6696 54.5766 18.8126 54.7196 18.8412C54.8626 18.8698 55.0628 18.8984 55.0628 18.8984L55.5204 18.927C55.5776 18.784 55.4918 18.641 55.4918 18.641H55.12L54.7482 18.355L54.548 18.0976C54.548 18.0976 54.3478 18.0976 54.2048 18.069C54.0618 18.0404 53.8902 17.9832 53.7472 17.926C53.6042 17.8688 53.4898 17.8116 53.4898 17.8116C53.4898 17.8116 53.3754 17.6686 53.5184 17.6686C53.6614 17.6686 54.0046 17.8402 54.0046 17.8402L54.2906 17.8974H54.4336L54.2048 17.7258C54.0904 17.5828 54.0904 17.4684 54.0904 17.4684L54.405 17.5256H54.5766L54.9484 17.6686L55.263 17.8688L55.4918 18.0976H55.7206L55.5776 17.9832C55.5776 17.9832 55.406 17.8974 55.3774 17.7544C55.3488 17.6114 55.3488 17.5828 55.263 17.4398C55.1772 17.2968 55.1772 17.211 55.0342 17.1252C54.8912 17.0394 54.8912 16.9822 54.691 16.925C54.4908 16.8678 54.262 16.782 54.262 16.782L53.976 16.496C53.976 16.496 53.9188 16.3244 53.7758 16.2386C53.6328 16.1528 53.5184 16.1242 53.5184 16.1242L53.547 15.8382L54.0618 15.9812L54.4336 16.0098C54.4336 16.0098 54.5194 16.0384 54.6052 16.1814C54.691 16.3244 54.8054 16.4674 54.8054 16.4674C54.8054 16.4674 55.0056 16.6962 55.1486 16.6962C55.2916 16.6962 55.2344 16.6962 55.4632 16.7248C55.692 16.7534 55.9494 16.7248 55.9494 16.7248L56.1496 16.639L55.8922 16.5532L55.692 16.4674L55.4632 16.3244L55.263 16.1528L55.12 15.8954L55.0628 15.6952L54.8054 15.4378C54.8054 15.4378 54.6052 15.3234 54.4622 15.2376C54.3192 15.1518 54.2048 15.0946 54.0618 15.0088C53.9188 14.923 53.8044 14.8372 53.8044 14.8372L53.6328 14.6084L53.6042 14.3796L53.8616 14.5798L54.2334 14.8944L54.4622 15.0374L54.7482 15.1518L55.0628 15.3806L55.2344 15.5808L55.4632 15.8096L55.7492 15.9526L55.978 15.8668L55.7206 15.6666L55.4918 15.4378L55.4346 15.1232L55.263 14.8372L54.8912 14.6942V14.4654L54.691 14.1508L54.405 13.8362L54.1476 13.6074L53.976 13.4072L53.8902 13.1784C53.8902 13.1784 53.8044 13.2356 54.0332 13.1498C54.262 13.064 54.3192 13.2642 54.3192 13.2642L54.7196 13.5216L55.0342 13.6074C55.0342 13.6074 55.2058 13.5788 55.3774 13.6074C55.549 13.636 55.6062 13.6932 55.7778 13.7218C55.9494 13.7504 56.0924 13.7218 56.0924 13.7218L56.264 13.5502L56.0352 13.5216L55.7206 13.3786C55.7206 13.3786 55.549 13.2356 55.406 13.207C55.263 13.1784 55.2344 13.1498 55.0914 13.1498C54.9484 13.1498 54.834 13.1212 54.834 13.1212L54.6624 12.9782L54.5194 12.8066L54.4908 12.635C54.4908 12.635 54.262 12.4634 54.4336 12.492C54.6052 12.5206 54.5766 12.5492 54.7196 12.6064C54.8626 12.6636 54.8054 12.6636 54.977 12.6922C55.1486 12.7208 55.12 12.778 55.263 12.7208C55.406 12.6636 55.549 12.6636 55.549 12.6636C55.549 12.6636 55.6348 12.635 55.835 12.6636C56.0352 12.6922 56.0066 12.6636 56.1782 12.7494C56.3498 12.8352 56.4928 12.9496 56.4928 12.9496L56.7216 13.064L56.6644 12.8066L56.4928 12.6636C56.4928 12.6636 56.3784 12.492 56.2068 12.4062C56.0352 12.3204 56.0638 12.2918 55.9208 12.2632C55.7778 12.2346 55.5776 12.206 55.5776 12.206C55.5776 12.206 55.4346 12.1202 55.2344 12.1202C55.0342 12.1202 55.0056 12.1774 54.834 12.1202C54.6624 12.063 54.5766 12.0344 54.4336 11.8914C54.2906 11.7484 54.3764 11.7484 54.1762 11.634C53.976 11.5196 53.8616 11.491 53.8616 11.491L53.7186 11.2908C54.0904 11.2336 54.1476 11.2908 54.2906 11.348C54.4336 11.4052 54.3478 11.4052 54.548 11.4338C54.7482 11.4624 54.834 11.4624 54.834 11.4624L55.3774 11.5482L55.5776 11.634C55.5776 11.634 55.6634 11.7198 55.8064 11.8628C55.9494 12.0058 56.0638 12.063 56.0638 12.063L56.3212 12.1774H56.4928L56.2926 11.9772L56.121 11.7484C56.121 11.7484 56.1496 11.6054 55.978 11.491C55.8064 11.3766 55.835 11.3766 55.6634 11.2908C55.4918 11.205 55.3202 11.0906 55.3202 11.0906C55.3202 11.0906 55.2344 11.1764 55.0914 11.062C54.9484 10.9476 54.8912 10.8904 54.7196 10.776C54.548 10.6616 54.548 10.6616 54.3764 10.5186C54.2048 10.3756 54.2906 10.4328 54.0904 10.347C53.8902 10.2612 53.69 10.204 53.69 10.204L53.6042 10.0896C53.4587 9.8955 53.8475 9.806 53.8475 9.806C53.8475 9.806 54.0023 9.79639 54.1454 9.70353C54.2885 9.61067 54.5219 9.61303 54.5219 9.61303L54.7222 9.53908C54.7222 9.53908 54.9198 9.43184 54.7768 9.37462C54.6338 9.31744 54.6553 9.33173 54.4837 9.33173C54.3122 9.33173 54.3478 9.26022 54.1476 9.26022C53.9474 9.26022 54.0046 9.26022 53.833 9.26022C53.6614 9.26022 53.6042 9.26022 53.4326 9.26022C53.261 9.26022 53.118 9.26022 53.118 9.26022C53.118 9.26022 53.0036 9.26022 52.8606 9.14582C52.7176 9.03145 52.5746 8.88842 52.5746 8.88842C52.5746 8.88842 52.3744 8.77402 52.2314 8.71683C52.0884 8.65965 52.117 8.60243 51.9168 8.57384C51.7166 8.54525 51.6594 8.51662 51.5164 8.48803C51.3734 8.45944 51.2876 8.60243 51.0874 8.45944C50.8872 8.31644 50.83 8.23063 50.83 8.23063L50.5726 8.05905L50.4296 7.91605L50.258 7.74443L50.115 7.51562Z" fill="#1B1918"></path> <path fill-rule="evenodd" clip-rule="evenodd" d="M48.9968 7.5647L48.9682 7.76487V7.90787C48.8538 8.05086 48.7394 8.22248 48.7394 8.22248C48.7394 8.22248 48.768 8.36548 48.911 8.36548C49.054 8.36548 49.1684 8.42266 49.1684 8.42266L49.4258 8.47988L49.5688 8.42266L49.5402 8.22248L49.34 7.99368L49.2256 7.85069L49.1112 7.70769L48.9968 7.5647Z" fill="#1B1918"></path> <path fill-rule="evenodd" clip-rule="evenodd" d="M30.4155 6.15542V9.41022C43.7567 3.58417 57.1539 3.70306 70.4954 9.17599V5.7257L50.4544 2.54517L30.4155 6.15542Z" fill="#E30016"></path> <path fill-rule="evenodd" clip-rule="evenodd" d="M30.4155 4.98344V6.15222L50.4544 2.53318L70.4954 5.71282V4.44838L50.4921 1.03467C50.4921 1.03467 30.4155 4.87709 30.4155 4.98344V4.98344Z" fill="white"></path> <path fill-rule="evenodd" clip-rule="evenodd" d="M30.4155 4.96046V3.81209L50.4544 0L70.4954 3.45649V4.45423L50.4544 1.0801L30.4155 4.96046Z" fill="#009035"></path> <path fill-rule="evenodd" clip-rule="evenodd" d="M47.0952 40.7479C47.0273 40.6857 46.9594 40.6706 46.8915 40.7027C46.8689 40.7479 46.8463 40.7932 46.8237 40.8384C46.6578 40.8988 46.492 40.8987 46.3259 40.8384C45.7226 40.5204 44.9988 40.3311 44.4026 40.7932C43.9404 41.2031 43.4448 42.1394 44.8778 43.0106C45.4133 43.35 46.3108 43.5536 46.8237 43.8251C47.8849 44.5222 46.9929 45.8602 45.6923 45.8842C44.4584 45.9049 43.6094 44.835 44.0859 44.3682C44.5299 44.6035 44.8051 44.3298 44.7873 43.9835C44.7709 43.637 44.241 43.3593 43.8822 43.8025C43.083 44.4255 43.8364 46.4846 45.7828 46.2461C47.3649 46.0227 48.0548 45.225 47.7061 43.7346C47.3168 42.8546 46.0725 42.5152 45.0135 42.0376C44.3928 41.5764 44.4742 40.8515 45.7376 40.9968C46.407 41.2003 46.9087 41.6149 47.2762 42.2413C47.329 42.211 47.3817 42.1809 47.4346 42.1508C47.3214 41.6831 47.2083 41.2155 47.0952 40.7479V40.7479Z" fill="#1B1918"></path> <path fill-rule="evenodd" clip-rule="evenodd" d="M56.2381 41.6259C55.4241 42.0672 55.163 41.8439 55.2118 41.4929C55.6215 40.4185 57.2723 41.2202 57.9487 41.2268C57.4478 41.7899 57.0715 42.3667 56.9794 42.9754C56.3462 43.0072 56.1915 43.2783 56.1051 43.5836C56.2695 43.4797 56.4616 43.4218 56.6943 43.4315C56.6912 43.8507 56.1179 44.8155 55.718 45.2418C54.878 46.2155 52.9486 45.3744 53.5012 44.1918C53.7187 44.4065 54.3253 44.2895 54.2703 43.8116C54.2224 43.3541 53.7013 43.2416 53.3682 43.5836C52.7975 44.0274 52.7795 46.0583 54.9077 46.1494C56.6552 46.0505 57.2902 44.3593 57.6636 43.4315C58.4018 43.4379 58.7256 43.1681 58.766 42.7093C58.5 42.8236 58.2158 42.9013 57.8917 42.8994C57.9763 42.3482 58.1409 41.7533 58.6928 41.2022C60.0127 41.2861 61.1692 40.6139 61.6169 40.4285C61.6915 40.3298 61.6788 40.2601 61.5789 40.2195C58.5125 41.0811 57.4714 40.2937 56.4282 40.4155C55.2312 40.5136 54.2171 41.6259 54.9077 42.1771C55.5102 42.6195 56.1255 42.1187 56.2381 41.6259V41.6259Z" fill="#1B1918"></path> <path fill-rule="evenodd" clip-rule="evenodd" d="M61.4335 25.2346C62.5096 27.0333 61.0472 29.3583 60.2839 29.3375C61.2942 28.2696 61.6392 26.8837 61.4335 25.2346Z" fill="white"></path> <path fill-rule="evenodd" clip-rule="evenodd" d="M41.4982 20.0755L41.6559 20.2333L41.7686 20.346L42.0165 20.4812L41.994 20.3234L41.8362 20.1657L41.701 20.053L41.4982 20.0755Z" fill="white"></path> <path fill-rule="evenodd" clip-rule="evenodd" d="M40.6644 18.3401L40.4165 18.3851L40.2812 18.4527L40.3263 18.588L40.5066 18.5654L40.7771 18.5429V18.4302L40.6644 18.3401Z" fill="white"></path> <path fill-rule="evenodd" clip-rule="evenodd" d="M39.8531 19.3091L39.6953 19.3767L39.6277 19.5795L39.4925 19.8049L39.4699 20.0528L39.4023 20.2556L39.4474 20.4359L39.6052 20.3683L39.7404 20.1429L39.808 19.9176C39.808 19.9176 39.8305 19.8274 39.8756 19.7147C39.9207 19.602 39.9207 19.5119 39.9207 19.5119L39.8531 19.3091Z" fill="white"></path> <path fill-rule="evenodd" clip-rule="evenodd" d="M41.4982 23.2305L41.6334 23.3206L41.8588 23.5009L42.1292 23.6812L42.3545 23.8389L42.5573 23.9741L42.7377 23.8615C42.7377 23.8615 42.7827 23.7939 42.6701 23.7488C42.5574 23.7037 42.4447 23.6361 42.4447 23.6361L42.2419 23.546L42.1292 23.4784L41.9714 23.4108L41.7686 23.3206L41.4982 23.2305Z" fill="white"></path> <path fill-rule="evenodd" clip-rule="evenodd" d="M39.6277 22.0137L39.4924 22.194V22.3517H39.6277L39.6727 22.1714L39.6277 22.0137Z" fill="white"></path> <path fill-rule="evenodd" clip-rule="evenodd" d="M39.7854 24.1545L39.6051 24.2897L39.5825 24.5151L39.6051 24.8532L39.6727 25.056L39.7628 25.3039L39.898 25.5292L40.0107 25.6194C40.0107 25.6194 40.0783 25.5292 40.0558 25.394C40.0332 25.2588 40.0332 25.3489 39.9882 25.2137C39.9431 25.0785 39.9206 25.0785 39.898 24.9208C39.8755 24.763 39.8755 24.7405 39.8755 24.6278C39.8755 24.5151 39.853 24.3348 39.853 24.3348L39.7854 24.1545Z" fill="white"></path> <path fill-rule="evenodd" clip-rule="evenodd" d="M38.298 24.8757L38.2079 25.0109L38.3431 25.0785L38.298 24.8757Z" fill="white"></path> <path fill-rule="evenodd" clip-rule="evenodd" d="M41.5208 28.7292L41.4081 28.887L41.6109 28.9997L41.7461 28.9095L41.7011 28.7743L41.5208 28.7292Z" fill="white"></path> <path fill-rule="evenodd" clip-rule="evenodd" d="M48.0562 35.5352H47.921C47.921 35.5352 47.8534 35.6253 48.0111 35.6704C48.1689 35.7155 48.1689 35.738 48.3041 35.7605C48.4393 35.7831 48.4393 35.7831 48.5746 35.8281C48.7098 35.8732 48.6196 35.8281 48.7774 35.8957C48.9351 35.9633 48.845 35.9859 49.0253 36.0084C49.2056 36.0309 49.1605 36.0535 49.3633 36.0309C49.5661 36.0084 49.4985 35.9408 49.6563 36.0084C49.814 36.076 49.9492 36.0986 49.9492 36.0986L49.7915 35.9408L49.6112 35.8507H49.4535C49.4535 35.8507 49.4535 35.8957 49.3408 35.8732C49.2281 35.8507 49.138 35.8056 49.138 35.8056C49.138 35.8056 49.0704 35.7155 48.9577 35.6929C48.845 35.6704 48.7323 35.6478 48.6197 35.6478C48.507 35.6478 48.4168 35.6478 48.4168 35.6478L48.1914 35.5802L48.0562 35.5352Z" fill="white"></path> <path fill-rule="evenodd" clip-rule="evenodd" d="M46.8393 35.2423L47.0195 35.2197V35.3549L46.9069 35.4225L46.7266 35.3549L46.8393 35.2423Z" fill="white"></path> <path fill-rule="evenodd" clip-rule="evenodd" d="M44.2926 35.1521L44.6983 35.0845L44.7208 35.2873L44.5405 35.4H44.3377L44.2926 35.1521Z" fill="white"></path> <path fill-rule="evenodd" clip-rule="evenodd" d="M51.2337 35.6929L51.0985 35.783L51.0309 35.9633L51.2562 35.9182L51.3238 35.8055L51.2337 35.6929Z" fill="white"></path> <path fill-rule="evenodd" clip-rule="evenodd" d="M50.197 42.4763L50.0618 42.6116L49.8815 42.7242L49.7914 42.882L49.9041 42.9721L50.1069 42.9271L50.2872 42.7468L50.197 42.4763Z" fill="white"></path> <path fill-rule="evenodd" clip-rule="evenodd" d="M51.2788 40.9438L51.0985 41.0115L50.9633 41.1467L50.9408 41.3045H51.1211L51.2563 41.2143L51.2788 40.9438Z" fill="white"></path> <path fill-rule="evenodd" clip-rule="evenodd" d="M53.5099 38.8706L53.3296 39.0284L52.969 39.2087L52.8338 39.4115L52.6309 39.6819L52.4281 39.8847L52.1577 40.1552L51.9774 40.4031L52.1126 40.3805C52.1126 40.3805 52.2253 40.2453 52.338 40.2002C52.4507 40.1552 52.8112 39.9073 52.8112 39.9073L53.1042 39.5242L53.2845 39.2763L53.4873 39.1185L53.5099 38.8706Z" fill="white"></path> <path fill-rule="evenodd" clip-rule="evenodd" d="M54.5917 38.2847L54.4114 38.3748L54.3438 38.5551H54.5466L54.5917 38.2847Z" fill="white"></path> <path fill-rule="evenodd" clip-rule="evenodd" d="M52.8112 35.4675L52.676 35.5577V35.7379L52.7211 35.9408L52.8338 36.0985L52.9464 36.414L53.014 36.5943L53.0817 36.4817C53.0817 36.4817 53.014 36.2788 53.014 36.1661C53.014 36.0535 52.9915 35.8957 52.9915 35.8957L52.969 35.7154L52.8112 35.4675Z" fill="white"></path> <path fill-rule="evenodd" clip-rule="evenodd" d="M52.6309 32.4705L52.383 32.6057L52.2253 32.8761L52.1351 33.1015V33.4169V33.6423L52.2478 33.755L52.3154 33.4846C52.3154 33.4846 52.383 33.4169 52.4055 33.3043C52.4281 33.1916 52.4506 33.0789 52.4506 33.0789L52.5633 32.8536L52.6534 32.7184L52.6309 32.4705Z" fill="white"></path> <path fill-rule="evenodd" clip-rule="evenodd" d="M57.0254 30.6899L56.8677 30.8026L56.9578 30.9378L57.048 31.0505C57.048 31.0505 57.0254 31.1857 57.048 31.321C57.0705 31.4562 57.0705 31.5914 57.0705 31.5914L57.2282 31.3886V31.2083V30.9378L57.1606 30.7801L57.0254 30.6899Z" fill="white"></path> <path fill-rule="evenodd" clip-rule="evenodd" d="M52.5409 27.1516L52.3381 27.1742L52.2255 27.2643C52.2255 27.2643 52.2255 27.3319 52.2255 27.4446C52.2255 27.5573 52.1804 27.6699 52.1804 27.6699L52.0902 27.9178L52.2705 28.0305C52.3607 27.8728 52.3156 27.9178 52.3832 27.7826C52.4508 27.6474 52.5184 27.5573 52.5184 27.5573L52.5409 27.4446V27.1516Z" fill="white"></path> <path fill-rule="evenodd" clip-rule="evenodd" d="M46.6139 26.1377L46.5012 26.0701C46.5012 26.0701 46.3434 26.0701 46.366 26.1828C46.3885 26.2954 46.366 26.2278 46.411 26.4081C46.4561 26.5884 46.5913 26.7011 46.5913 26.7011L46.8843 27.0842L47.29 27.3772L47.6505 27.7377C47.6505 27.7377 47.7632 27.873 47.921 27.9631C48.0787 28.0532 48.1914 28.1434 48.3041 28.211C48.4167 28.2786 48.4843 28.3237 48.597 28.4138C48.7097 28.5039 48.6646 28.4814 48.8224 28.5716C48.9802 28.6617 49.0928 28.7293 49.0928 28.7293C49.0928 28.7293 49.3182 28.7293 49.183 28.6166C49.0478 28.5039 49.0928 28.5039 48.9576 28.3913C48.8224 28.2786 48.7773 28.211 48.6421 28.0983C48.5069 27.9856 48.4167 27.9406 48.3041 27.8279C48.1914 27.7152 48.1914 27.7152 48.0787 27.6025C47.966 27.4899 47.8533 27.3997 47.7632 27.287C47.6731 27.1743 47.628 27.1518 47.5153 27.0166C47.4026 26.8814 47.3801 26.8814 47.2449 26.7461C47.1097 26.6109 46.9519 26.4757 46.9519 26.4757L46.8167 26.3405L46.6139 26.1377Z" fill="white"></path> <path fill-rule="evenodd" clip-rule="evenodd" d="M50.3769 20.7566C50.3769 20.7566 50.3374 20.7791 50.3206 20.7819C50.3036 20.7848 50.2614 20.799 50.2614 20.799C50.2614 20.799 50.2388 20.8017 50.2304 20.8243C50.222 20.8469 50.2108 20.8497 50.222 20.8751C50.2333 20.9005 50.2304 20.9231 50.2643 20.9259C50.298 20.9286 50.2981 20.9372 50.3234 20.9372C50.3487 20.9372 50.3374 20.9372 50.3769 20.9372C50.4162 20.9372 50.4246 20.9429 50.4416 20.9259C50.4585 20.9089 50.4557 20.9118 50.4697 20.8892C50.4837 20.8667 50.5035 20.8469 50.5035 20.8469L50.4951 20.8017L50.4697 20.7791L50.4246 20.765L50.3769 20.7566Z" fill="white"></path> <path fill-rule="evenodd" clip-rule="evenodd" d="M50.2417 19.7876C50.2417 19.7876 50.2023 19.8101 50.1854 19.8129C50.1685 19.8158 50.1263 19.8299 50.1263 19.8299C50.1263 19.8299 50.1037 19.8327 50.0953 19.8553C50.0869 19.8779 50.0756 19.8807 50.0869 19.9061C50.0982 19.9315 50.0953 19.9541 50.1291 19.9569C50.1629 19.9596 50.163 19.9681 50.1882 19.9681C50.2136 19.9681 50.2022 19.9681 50.2417 19.9681C50.2811 19.9681 50.2895 19.9739 50.3064 19.9569C50.3234 19.9399 50.3206 19.9428 50.3346 19.9202C50.3486 19.8977 50.3683 19.8779 50.3683 19.8779L50.3599 19.8327L50.3346 19.8101L50.2895 19.796L50.2417 19.7876Z" fill="white"></path> <path fill-rule="evenodd" clip-rule="evenodd" d="M52.6857 12.1765C52.6857 12.1765 52.662 12.19 52.6518 12.1918C52.6417 12.1936 52.6162 12.202 52.6162 12.202C52.6162 12.202 52.6026 12.2038 52.5975 12.2173C52.5925 12.2309 52.5857 12.2327 52.5925 12.248C52.5992 12.2633 52.5975 12.2769 52.6177 12.2786C52.6383 12.2803 52.6383 12.2855 52.6535 12.2855C52.6688 12.2855 52.662 12.2855 52.6857 12.2855C52.7097 12.2855 52.7146 12.2889 52.7248 12.2786C52.7349 12.2685 52.7331 12.2701 52.7417 12.2566C52.7502 12.2429 52.7621 12.2309 52.7621 12.2309L52.7569 12.2038L52.7417 12.19L52.7146 12.1816L52.6857 12.1765Z" fill="white"></path> <path fill-rule="evenodd" clip-rule="evenodd" d="M52.7652 12.6035C52.7652 12.6035 52.7249 12.6265 52.7077 12.6294C52.6904 12.6324 52.6471 12.6468 52.6471 12.6468C52.6471 12.6468 52.6241 12.6497 52.6155 12.6727C52.6069 12.6958 52.5954 12.6988 52.6069 12.7247C52.6184 12.7507 52.6155 12.7738 52.65 12.7766C52.6846 12.7795 52.6847 12.7882 52.7106 12.7882C52.7365 12.7882 52.7249 12.7882 52.7652 12.7882C52.8056 12.7882 52.8142 12.794 52.8315 12.7766C52.8487 12.7593 52.8459 12.7622 52.8603 12.7391C52.8747 12.7161 52.8949 12.6958 52.8949 12.6958L52.8862 12.6497L52.8603 12.6265L52.8142 12.6121L52.7652 12.6035Z" fill="white"></path> <path fill-rule="evenodd" clip-rule="evenodd" d="M52.7507 13.0396C52.7507 13.0396 52.7104 13.0626 52.6932 13.0654C52.6759 13.0684 52.6326 13.0828 52.6326 13.0828C52.6326 13.0828 52.6096 13.0857 52.601 13.1088C52.5924 13.1319 52.5809 13.1349 52.5924 13.1607C52.6038 13.1868 52.601 13.2099 52.6354 13.2127C52.6701 13.2156 52.6702 13.2243 52.6961 13.2243C52.722 13.2243 52.7104 13.2243 52.7507 13.2243C52.7911 13.2243 52.7997 13.2301 52.817 13.2127C52.8342 13.1954 52.8314 13.1983 52.8458 13.1752C52.8601 13.1521 52.8803 13.1319 52.8803 13.1319L52.8717 13.0857L52.8458 13.0626L52.7997 13.0482L52.7507 13.0396Z" fill="white"></path> <path fill-rule="evenodd" clip-rule="evenodd" d="M52.6927 13.4175C52.6927 13.4175 52.6524 13.4405 52.6352 13.4434C52.6179 13.4463 52.5746 13.4607 52.5746 13.4607C52.5746 13.4607 52.5515 13.4636 52.543 13.4867C52.5344 13.5098 52.5229 13.5128 52.5344 13.5387C52.5459 13.5647 52.543 13.5878 52.5775 13.5906C52.6121 13.5935 52.6122 13.6022 52.6381 13.6022C52.664 13.6022 52.6524 13.6022 52.6927 13.6022C52.7331 13.6022 52.7417 13.608 52.759 13.5906C52.7762 13.5733 52.7734 13.5762 52.7878 13.5532C52.8022 13.5301 52.8223 13.5098 52.8223 13.5098L52.8137 13.4636L52.7878 13.4405L52.7417 13.4261L52.6927 13.4175Z" fill="white"></path> <path fill-rule="evenodd" clip-rule="evenodd" d="M52.6854 13.8862C52.6854 13.8862 52.6278 13.9192 52.6031 13.9233C52.5783 13.9275 52.5166 13.9481 52.5166 13.9481C52.5166 13.9481 52.4836 13.9522 52.4713 13.9853C52.459 14.0183 52.4425 14.0224 52.459 14.0596C52.4754 14.0967 52.4713 14.1298 52.5207 14.1339C52.5701 14.1379 52.5702 14.1503 52.6072 14.1503C52.6442 14.1503 52.6278 14.1503 52.6854 14.1503C52.7431 14.1503 52.7554 14.1587 52.7801 14.1339C52.8048 14.1091 52.8007 14.1132 52.8212 14.0802C52.8418 14.0472 52.8707 14.0183 52.8707 14.0183L52.8583 13.9522L52.8212 13.9192L52.7554 13.8985L52.6854 13.8862Z" fill="white"></path> <path fill-rule="evenodd" clip-rule="evenodd" d="M52.6854 14.395C52.6854 14.395 52.6278 14.428 52.6031 14.4321C52.5783 14.4363 52.5166 14.4569 52.5166 14.4569C52.5166 14.4569 52.4836 14.461 52.4713 14.494C52.459 14.527 52.4425 14.5312 52.459 14.5683C52.4754 14.6054 52.4713 14.6385 52.5207 14.6426C52.5701 14.6467 52.5702 14.6591 52.6072 14.6591C52.6442 14.6591 52.6278 14.6591 52.6854 14.6591C52.7431 14.6591 52.7554 14.6674 52.7801 14.6426C52.8048 14.6178 52.8007 14.622 52.8212 14.589C52.8418 14.5559 52.8707 14.527 52.8707 14.527L52.8583 14.461L52.8212 14.4279L52.7554 14.4073L52.6854 14.395Z" fill="white"></path> <path fill-rule="evenodd" clip-rule="evenodd" d="M52.6419 14.9182C52.6419 14.9182 52.5843 14.9511 52.5596 14.9553C52.5349 14.9595 52.4731 14.9801 52.4731 14.9801C52.4731 14.9801 52.4401 14.9842 52.4278 15.0172C52.4155 15.0503 52.399 15.0544 52.4155 15.0915C52.432 15.1287 52.4278 15.1618 52.4772 15.1658C52.5266 15.1699 52.5267 15.1823 52.5638 15.1823C52.6008 15.1823 52.5843 15.1823 52.6419 15.1823C52.6996 15.1823 52.7119 15.1906 52.7366 15.1658C52.7613 15.1411 52.7573 15.1452 52.7778 15.1122C52.7983 15.0791 52.8272 15.0503 52.8272 15.0503L52.8148 14.9842L52.7778 14.9511L52.7119 14.9305L52.6419 14.9182Z" fill="white"></path> <path fill-rule="evenodd" clip-rule="evenodd" d="M52.6274 15.3252C52.6274 15.3252 52.5698 15.3581 52.5451 15.3623C52.5203 15.3665 52.4586 15.3871 52.4586 15.3871C52.4586 15.3871 52.4256 15.3912 52.4133 15.4242C52.401 15.4572 52.3845 15.4614 52.401 15.4985C52.4174 15.5356 52.4133 15.5688 52.4627 15.5728C52.5121 15.5769 52.5122 15.5893 52.5492 15.5893C52.5862 15.5893 52.5698 15.5893 52.6274 15.5893C52.6851 15.5893 52.6974 15.5976 52.7221 15.5728C52.7468 15.548 52.7427 15.5522 52.7633 15.5191C52.7838 15.4861 52.8127 15.4572 52.8127 15.4572L52.8003 15.3912L52.7633 15.3581L52.6974 15.3375L52.6274 15.3252Z" fill="white"></path> <path fill-rule="evenodd" clip-rule="evenodd" d="M51.7065 18.8411C51.7065 18.8411 51.667 18.8636 51.6502 18.8664C51.6333 18.8693 51.5911 18.8834 51.5911 18.8834C51.5911 18.8834 51.5684 18.8862 51.56 18.9088C51.5516 18.9314 51.5404 18.9342 51.5516 18.9595C51.5629 18.985 51.56 19.0076 51.5939 19.0104C51.6276 19.0131 51.6277 19.0216 51.653 19.0216C51.6783 19.0216 51.667 19.0216 51.7065 19.0216C51.7458 19.0216 51.7542 19.0273 51.7712 19.0104C51.7881 18.9934 51.7853 18.9963 51.7993 18.9737C51.8134 18.9511 51.8331 18.9314 51.8331 18.9314L51.8247 18.8862L51.7993 18.8636L51.7542 18.8495L51.7065 18.8411Z" fill="white"></path> <path fill-rule="evenodd" clip-rule="evenodd" d="M51.8659 18.4487C51.8659 18.4487 51.8264 18.4713 51.8096 18.4741C51.7927 18.477 51.7505 18.4911 51.7505 18.4911C51.7505 18.4911 51.7279 18.4938 51.7195 18.5164C51.711 18.5391 51.6998 18.5419 51.711 18.5672C51.7223 18.5927 51.7195 18.6153 51.7533 18.6181C51.7871 18.6208 51.7871 18.6293 51.8124 18.6293C51.8377 18.6293 51.8264 18.6293 51.8659 18.6293C51.9053 18.6293 51.9137 18.635 51.9306 18.6181C51.9475 18.6011 51.9447 18.604 51.9588 18.5813C51.9728 18.5588 51.9925 18.5391 51.9925 18.5391L51.9841 18.4938L51.9588 18.4713L51.9137 18.4572L51.8659 18.4487Z" fill="white"></path> <path fill-rule="evenodd" clip-rule="evenodd" d="M52.0109 17.9399C52.0109 17.9399 51.9715 17.9625 51.9546 17.9653C51.9377 17.9682 51.8955 17.9823 51.8955 17.9823C51.8955 17.9823 51.8729 17.985 51.8645 18.0076C51.856 18.0302 51.8448 18.0331 51.856 18.0584C51.8674 18.0838 51.8645 18.1065 51.8983 18.1093C51.9321 18.112 51.9322 18.1205 51.9574 18.1205C51.9828 18.1205 51.9715 18.1205 52.0109 18.1205C52.0503 18.1205 52.0587 18.1262 52.0756 18.1093C52.0925 18.0923 52.0897 18.0951 52.1038 18.0725C52.1178 18.05 52.1375 18.0302 52.1375 18.0302L52.1291 17.985L52.1038 17.9625L52.0587 17.9483L52.0109 17.9399Z" fill="white"></path> <path fill-rule="evenodd" clip-rule="evenodd" d="M52.1415 17.4749C52.1415 17.4749 52.102 17.4974 52.0852 17.5002C52.0683 17.5031 52.0261 17.5172 52.0261 17.5172C52.0261 17.5172 52.0035 17.5199 51.9951 17.5426C51.9867 17.5652 51.9754 17.568 51.9867 17.5933C51.998 17.6188 51.9951 17.6414 52.0289 17.6442C52.0627 17.6469 52.0627 17.6554 52.088 17.6554C52.1133 17.6554 52.102 17.6554 52.1415 17.6554C52.1809 17.6554 52.1893 17.6611 52.2062 17.6442C52.2231 17.6272 52.2203 17.6301 52.2344 17.6075C52.2484 17.5849 52.2681 17.5652 52.2681 17.5652L52.2597 17.5199L52.2344 17.4974L52.1893 17.4833L52.1415 17.4749Z" fill="white"></path> <path fill-rule="evenodd" clip-rule="evenodd" d="M52.3085 16.8804C52.3085 16.8804 52.2508 16.9133 52.2261 16.9174C52.2014 16.9216 52.1397 16.9423 52.1397 16.9423C52.1397 16.9423 52.1066 16.9463 52.0943 16.9794C52.082 17.0124 52.0655 17.0166 52.082 17.0537C52.0985 17.0908 52.0943 17.1239 52.1438 17.128C52.1932 17.1321 52.1933 17.1445 52.2303 17.1445C52.2673 17.1445 52.2508 17.1445 52.3085 17.1445C52.3661 17.1445 52.3784 17.1528 52.4031 17.128C52.4278 17.1032 52.4238 17.1074 52.4443 17.0743C52.4648 17.0413 52.4937 17.0124 52.4937 17.0124L52.4813 16.9463L52.4443 16.9133L52.3784 16.8927L52.3085 16.8804Z" fill="white"></path> <path fill-rule="evenodd" clip-rule="evenodd" d="M52.4244 16.3137C52.4244 16.3137 52.3668 16.3467 52.342 16.3508C52.3173 16.355 52.2556 16.3756 52.2556 16.3756C52.2556 16.3756 52.2226 16.3797 52.2103 16.4127C52.198 16.4458 52.1815 16.4499 52.198 16.487C52.2144 16.5242 52.2103 16.5573 52.2597 16.5614C52.3091 16.5654 52.3092 16.5778 52.3462 16.5778C52.3832 16.5778 52.3668 16.5778 52.4244 16.5778C52.4821 16.5778 52.4944 16.5861 52.5191 16.5614C52.5438 16.5366 52.5397 16.5407 52.5603 16.5077C52.5808 16.4747 52.6097 16.4458 52.6097 16.4458L52.5973 16.3797L52.5603 16.3467L52.4944 16.326L52.4244 16.3137Z" fill="white"></path> <path fill-rule="evenodd" clip-rule="evenodd" d="M52.6274 15.8484C52.6274 15.8484 52.5698 15.8813 52.5451 15.8855C52.5203 15.8896 52.4586 15.9103 52.4586 15.9103C52.4586 15.9103 52.4256 15.9144 52.4133 15.9474C52.401 15.9804 52.3845 15.9846 52.401 16.0217C52.4174 16.0588 52.4133 16.0919 52.4627 16.096C52.5121 16.1001 52.5122 16.1125 52.5492 16.1125C52.5862 16.1125 52.5698 16.1125 52.6274 16.1125C52.6851 16.1125 52.6974 16.1208 52.7221 16.096C52.7468 16.0712 52.7427 16.0754 52.7633 16.0423C52.7838 16.0093 52.8127 15.9804 52.8127 15.9804L52.8003 15.9144L52.7633 15.8813L52.6974 15.8607L52.6274 15.8484Z" fill="white"></path> <path fill-rule="evenodd" clip-rule="evenodd" d="M51.0083 21.856L50.8281 21.9236L50.783 22.1264L50.8506 22.3292C50.8506 22.3292 50.9182 22.5996 50.9407 22.7123C50.9633 22.825 50.9633 22.8475 51.0083 22.9602C51.0534 23.0729 51.0309 22.9827 51.121 23.2081C51.2112 23.4335 51.2337 23.456 51.2788 23.5912C51.3238 23.7265 51.3689 23.7265 51.414 23.8391C51.4591 23.9518 51.5943 24.087 51.5943 24.087L51.7295 24.2673C51.7295 24.2673 51.752 24.3124 51.9323 24.4251C52.1126 24.5377 52.0675 24.5152 52.2027 24.5828C52.338 24.6504 52.4056 24.7405 52.4056 24.7405L52.5183 24.8307L52.676 24.8758C52.676 24.8758 52.5183 24.7631 52.4507 24.6504C52.383 24.5377 52.4056 24.5603 52.3154 24.4025C52.2253 24.2448 52.2478 24.2673 52.1577 24.1321C52.0675 23.9969 51.9999 23.9743 51.9098 23.8166C51.8196 23.6588 51.7745 23.6588 51.7295 23.5011C51.6844 23.3433 51.6619 23.3433 51.5943 23.2081C51.5267 23.0729 51.5267 23.0503 51.4591 22.9151C51.3914 22.7799 51.3464 22.7799 51.3238 22.6447C51.3013 22.5095 51.3013 22.5771 51.2788 22.4644C51.2562 22.3518 51.2112 22.2165 51.2112 22.2165L51.121 22.0363L51.0083 21.856Z" fill="white"></path> <path fill-rule="evenodd" clip-rule="evenodd" d="M43.9547 20.4136L43.7969 20.5488L43.6843 20.6615L43.6167 20.8192L43.5941 20.9769L43.5265 21.1347C43.5265 21.1347 43.4814 21.1798 43.4364 21.2925C43.3913 21.4052 43.3688 21.4728 43.3688 21.4728L43.1885 21.6981L43.1208 21.8333L43.2336 21.9911L43.4138 21.946L43.5265 21.8108L43.6617 21.6305L43.6843 21.4728L43.7744 21.315L43.8871 21.1573L43.9998 20.9769L44.0448 20.7741L43.9998 20.5713L43.9547 20.4136Z" fill="white"></path> <path fill-rule="evenodd" clip-rule="evenodd" d="M49.4535 20.2559L49.2731 20.2334L49.1379 20.4137L49.2055 20.5489L49.3633 20.594L49.5436 20.6616L49.6337 20.5489V20.4137L49.4535 20.2559Z" fill="white"></path> <path fill-rule="evenodd" clip-rule="evenodd" d="M48.5745 19.0839L48.2815 19.0613C48.2815 19.0613 48.1688 18.9937 47.9886 18.9712C47.8083 18.9487 47.6505 18.9036 47.5378 18.9036C47.4251 18.9036 47.3801 18.9036 47.2448 18.9261C47.1096 18.9487 47.042 18.9937 46.9294 18.9937C46.8167 18.9937 46.7265 19.0613 46.7265 19.0613L46.5463 19.0839V18.9712L46.7491 18.8134L47.0646 18.7233L47.4477 18.6782C47.4477 18.6782 47.6054 18.6106 47.7407 18.6106C47.8759 18.6106 47.9435 18.6557 48.0562 18.6782C48.1688 18.7007 48.2815 18.7458 48.2815 18.7458L48.4167 18.8134L48.5745 19.0839Z" fill="white"></path> <path fill-rule="evenodd" clip-rule="evenodd" d="M50.1069 14.5542L49.859 14.5767L49.7464 14.757L49.5435 15.0275L49.4083 15.2528L49.2055 15.5232L49.0477 15.8387L48.935 16.1092L48.7773 16.4247L48.6872 16.6501L48.5069 16.8754L48.3491 17.1233L48.3942 17.2811L48.597 17.1458L48.9125 16.8529L49.1604 16.4472L49.4985 16.0641L49.7914 15.5909L50.0168 15.0725L50.0844 14.8021L50.1069 14.5542Z" fill="white"></path> <path fill-rule="evenodd" clip-rule="evenodd" d="M51.9549 9.64136L52.1577 9.66391C52.1577 9.77656 52.0451 9.82166 52.0451 9.82166L51.9324 9.77657C51.9324 9.77657 51.9324 9.64136 51.9549 9.64136V9.64136Z" fill="white"></path> <path fill-rule="evenodd" clip-rule="evenodd" d="M51.8872 9.12305H51.6619L51.7069 9.2808H51.8872L51.9999 9.23571L51.8872 9.12305Z" fill="white"></path> <path fill-rule="evenodd" clip-rule="evenodd" d="M49.1154 10.4751L48.9802 10.4075H48.7999L48.507 10.4976L48.4619 10.6554L48.6422 10.8356L48.845 10.9709L49.0929 11.0835L49.2957 11.1061L49.3633 10.9709L49.3408 10.768L49.2506 10.6103L49.1154 10.4751Z" fill="white"></path> <path fill-rule="evenodd" clip-rule="evenodd" d="M52.2029 10.8809L52.0451 10.7908L51.9324 10.8584L51.8648 11.0161L51.7747 11.2415C51.7747 11.2415 51.5944 11.3542 51.7296 11.3767C51.8648 11.3992 51.955 11.3992 51.955 11.3992L52.1127 11.3542C52.1127 11.3542 52.1353 11.2866 52.293 11.264C52.4508 11.2415 52.4282 11.2415 52.5409 11.2189C52.6536 11.1964 52.7212 11.0612 52.7212 11.0612H52.5184L52.3606 11.0837L52.2479 11.0612L52.2029 10.8809Z" fill="white"></path> <path fill-rule="evenodd" clip-rule="evenodd" d="M50.8505 12.7739L50.6703 12.8415L50.5351 12.9317L50.3773 13.0894L50.2646 13.157L50.0393 13.2021L49.8815 13.2472C49.8815 13.2472 49.859 13.3824 50.0393 13.3824C50.2196 13.3824 50.49 13.3599 50.49 13.3599L50.6477 13.1796L50.8505 13.1345L50.9407 12.8641L50.8505 12.7739Z" fill="white"></path> <path fill-rule="evenodd" clip-rule="evenodd" d="M50.3549 12.2781L50.1971 12.3682L50.1069 12.5034L50.0168 12.6161L49.9041 12.7062C49.9041 12.7062 49.7464 12.7964 49.859 12.8189C49.9717 12.8415 50.152 12.8189 50.152 12.8189L50.3999 12.6161C50.4675 12.4583 50.4675 12.4133 50.4675 12.4133L50.3549 12.2781Z" fill="white"></path> <path fill-rule="evenodd" clip-rule="evenodd" d="M49.4759 12.0977L48.6421 12.6611L49.2055 12.5935L49.4083 12.1878L49.4759 12.0977Z" fill="white"></path> <path fill-rule="evenodd" clip-rule="evenodd" d="M46.5913 12.2104H46.4786L46.5237 12.3457L46.6364 12.3907C46.6815 12.2555 46.5913 12.2104 46.5913 12.2104Z" fill="white"></path> <path fill-rule="evenodd" clip-rule="evenodd" d="M46.0055 11.5117L45.8702 11.5793V11.692L46.0055 11.7596C46.0731 11.6469 46.0055 11.5117 46.0055 11.5117Z" fill="white"></path> <path fill-rule="evenodd" clip-rule="evenodd" d="M45.3743 11.5117L45.1715 11.5568L45.0814 11.7145L45.0588 11.8723L45.1039 12.03L45.2616 11.9624L45.442 11.8723L45.5772 11.7596V11.6469L45.5096 11.5342L45.3743 11.5117Z" fill="white"></path> <path fill-rule="evenodd" clip-rule="evenodd" d="M47.8984 10.3174L47.673 10.385C47.673 10.385 47.5153 10.4751 47.3801 10.4977C47.2448 10.5202 47.0646 10.5878 47.0646 10.5878C47.0646 10.5878 46.997 10.6329 46.8617 10.7005C46.7265 10.7681 46.4786 10.7456 46.6139 10.8357C46.7491 10.9259 46.8617 10.9033 46.8617 10.9033L47.1322 10.8582C47.1322 10.8582 47.2674 10.8357 47.3801 10.7906C47.4927 10.7456 47.673 10.7005 47.673 10.7005L47.8308 10.6329L47.8984 10.3174Z" fill="white"></path> <path fill-rule="evenodd" clip-rule="evenodd" d="M49.6112 9.86668L49.4985 9.93428V10.0695L49.6563 10.0244L49.814 9.91173V9.79907L49.6112 9.86668Z" fill="white"></path> </svg> 