<?xml version="1.0" encoding="UTF-8"?> <svg xmlns="http://www.w3.org/2000/svg" width="101" height="101" viewBox="0 0 101 101" fill="none"> <path fill-rule="evenodd" clip-rule="evenodd" d="M81.3472 55.9861H72.8052L73.0649 54.9625H81.5778L81.9819 53.54H71.3632L70.6702 56.0431C70.5258 56.6692 70.6415 57.409 71.3919 57.409H80.9431L81.3472 55.9861ZM71.622 52.4872C71.7951 51.8328 71.9974 51.0648 73.2384 51.0648H82.6174L82.242 52.4872H71.622ZM45.939 51.0648L45.5636 52.4872H53.6153C54.9134 52.5155 54.7833 53.5084 54.7115 53.8814C54.5963 54.4787 53.8168 55.7592 52.7206 55.9861H46.7472L47.3244 53.739H45.2173L44.2655 57.409H53.5001C55.6642 57.409 56.9622 54.7635 57.0201 53.7673C57.0779 52.7711 57.0488 51.0648 53.9899 51.0648H45.939ZM41.8409 51.0648C44.0054 51.0648 44.7271 52.5155 44.5248 53.9097C44.0341 56.7258 41.5521 57.409 40.6286 57.409H34.5978C32.4337 57.409 31.712 55.9586 31.9138 54.5641C32.4045 51.7475 35.4925 51.0648 36.416 51.0648L37.4548 52.3165C36.2138 52.3165 34.1362 52.9143 33.9627 54.4217C33.7895 55.9299 34.6839 56.1576 35.8675 56.1576H39.5898C40.8304 56.1576 42.3024 55.5598 42.4755 54.052C42.6487 52.5442 41.7543 52.3165 40.5711 52.3165H37.4548L36.416 51.0648H41.8409ZM70.5545 52.4872H62.3879C61.1469 52.4872 59.6457 53.2836 59.56 54.4217C59.4447 55.9349 60.2808 55.9861 61.4644 55.9861H65.4181C66.3483 55.9861 66.9057 55.7463 67.1996 54.9616H62.6472L63.0226 53.5396H70.2399C70.2366 53.6628 70.169 53.7864 70.1508 53.9097C69.6602 56.7258 67.1498 57.409 66.2259 57.409H60.1942C58.0301 57.409 57.3085 55.9586 57.5107 54.5641C58.0014 51.7475 61.0894 51.0648 62.0129 51.0648H69.0825C69.9486 51.0648 70.5836 51.4344 70.5545 52.4872ZM20.1977 51.0648L19.8227 52.4872H27.874C29.1725 52.5155 29.0429 53.5084 28.9706 53.8814C28.8554 54.4787 28.0763 55.7592 26.9797 55.9861H21.0059L21.5827 53.739H19.4764L18.5238 57.409H27.7583C29.9224 57.409 31.2213 54.7635 31.2792 53.7673C31.337 52.7711 31.3079 51.0648 28.249 51.0648H20.1977Z" fill="white"></path> <path fill-rule="evenodd" clip-rule="evenodd" d="M36.6458 29.9995C36.2228 29.869 35.7986 29.9133 35.6287 30.7787C35.4588 31.6441 35.5009 32.1636 35.7131 32.6831C35.5009 33.0277 35.6696 34.5013 36.0095 34.761C35.883 35.1944 36.2216 36.4931 36.6458 36.7085C36.5615 37.228 37.3231 38.3125 37.7907 38.5279C37.4508 38.7015 38.6143 39.4605 39.1464 39.6543C39.8671 39.9141 41.1384 39.9141 41.647 39.8279C42.0712 39.8279 42.1977 39.1348 41.8169 38.8333C41.4361 38.5292 37.4099 35.1956 37.2821 30.9536C37.3231 30.5633 37.0688 30.0869 36.6458 29.9995C36.6458 29.9995 37.0688 30.0869 36.6458 29.9995V29.9995ZM49.4031 23.549C49.0644 23.2031 48.768 22.8559 48.1739 22.8559C47.9196 22.3795 47.1567 21.8169 46.6904 21.7739C46.4361 21.3418 45.5033 20.7349 44.9526 20.778C44.7405 20.3877 42.7485 20.3016 42.3242 20.5613C41.9422 20.3446 40.3322 20.6918 40.1623 21.2113C39.6115 21.3418 38.5089 22.2503 37.9581 23.5921C37.746 23.981 38.1702 24.1115 38.3823 23.8518C38.5944 23.5921 40.1623 22.8559 41.0516 23.16C41.9422 23.4628 44.2307 24.588 46.9434 28.441C47.4098 29.1341 48.9776 29.6105 49.2741 28.1382C49.6425 26.3162 49.996 24.2421 49.4031 23.549C49.996 24.2421 49.4031 23.549 49.4031 23.549ZM63.6016 29.9995C64.0258 29.869 64.45 29.9133 64.6187 30.7787C64.7887 31.6441 64.7465 32.1636 64.5344 32.6831C64.7465 33.0277 64.5766 34.5013 64.2379 34.761C64.3657 35.1944 64.0258 36.4931 63.6016 36.7085C63.6872 37.228 62.9231 38.3125 62.458 38.5279C62.7966 38.7015 61.6344 39.4605 61.1023 39.6543C60.3816 39.9141 59.1102 39.9141 58.6017 39.8279C58.1775 39.8279 58.0497 39.1348 58.4317 38.8333C58.8138 38.5292 62.84 35.1956 62.9666 30.9536C62.9231 30.5633 63.1774 30.0869 63.6016 29.9995C63.6016 29.9995 63.1774 30.0869 63.6016 29.9995V29.9995Z" fill="#FF0000"></path> <path fill-rule="evenodd" clip-rule="evenodd" d="M50.124 43.4601C50.5468 43.6318 50.9263 43.504 51.2217 43.2884C50.7149 43.2884 50.3774 42.9463 50.3774 42.3898C50.3774 41.8321 50.5468 41.4887 51.0956 41.5777C51.6444 41.6604 51.9831 41.4899 51.8138 40.5913C51.6444 39.6927 51.5604 39.2641 51.6444 38.8367L52.4467 36.1396C53.0796 36.0543 53.7977 35.8388 53.7137 34.9815C53.333 34.8963 52.7001 35.2384 52.5728 35.5818C52.4454 35.7974 52.066 35.5818 52.192 35.3249L52.4034 34.7246C52.4875 34.4676 52.7829 34.3398 52.9522 34.2546C53.1216 34.1694 53.375 33.9977 54.0932 33.9124C54.3046 33.2682 54.6 31.7279 54.0091 31.2567C53.7977 31.1288 53.9659 30.9997 54.1785 30.9997C54.3898 30.9997 54.6853 30.8706 54.8967 30.4859C55.1068 30.0999 56.8398 26.2459 58.2762 24.9613C59.7113 23.6766 62.2466 24.4913 62.8795 25.6042C63.5136 26.7184 63.851 28.3878 63.725 29.5873C63.725 29.9294 63.5556 30.0159 63.3455 30.0585C63.1294 30.1146 62.9275 30.2167 62.7534 30.358C62.542 30.5297 62.542 30.7441 62.542 30.9145C62.542 31.085 62.0352 34.8111 59.3738 36.9091C58.867 37.2538 58.3602 36.953 58.3602 36.5243C58.3602 36.0957 58.3602 35.2835 58.783 35.068C58.5283 34.8549 58.6557 33.5277 58.9523 33.2682C58.741 32.9687 58.8683 31.5136 59.2898 31.2993C59.0784 31.1702 58.9363 30.5272 58.9523 30.3568C59.0364 29.4143 58.066 28.8578 57.6853 29.8003C57.9807 29.9294 58.3615 30.2716 58.1501 31.941L55.8695 33.3535C55.9968 33.7821 55.7422 35.1532 55.4887 35.9679C55.2353 36.78 54.9819 38.0659 54.3478 38.7928C53.7149 39.5222 53.2922 40.3344 52.9127 42.3472C52.8286 43.0766 52.2365 43.2045 51.857 43.2897C52.4491 43.5053 52.1525 43.9753 51.773 44.1908C51.3923 44.4039 50.8447 44.746 50.1253 44.746C49.4058 44.746 48.8582 44.4039 48.4775 44.1908C48.098 43.9753 47.8026 43.5053 48.3935 43.2897C48.0127 43.2045 47.4219 43.0766 47.3378 42.3472C46.9571 40.3356 46.5356 39.5222 45.9015 38.7928C45.2673 38.0659 45.0139 36.7813 44.7605 35.9679C44.5071 35.1532 44.2537 33.7821 44.381 33.3535L42.0992 31.941C41.889 30.2703 42.2685 29.9282 42.564 29.8003C42.1832 28.8578 41.2129 29.4143 41.2969 30.3568C41.3118 30.5272 41.1696 31.1702 40.9595 31.2993C41.381 31.5136 41.5083 32.9687 41.2969 33.2682C41.5924 33.5264 41.7185 34.8549 41.4663 35.068C41.889 35.2835 41.889 36.0957 41.889 36.5243C41.889 36.953 41.381 37.2538 40.8754 36.9091C38.2141 34.8111 37.7073 31.0862 37.7073 30.9145C37.7073 30.7428 37.7073 30.5285 37.4959 30.358C37.3224 30.2157 37.1203 30.1135 36.9038 30.0585C36.6937 30.0159 36.5243 29.9294 36.5243 29.5873C36.397 28.3878 36.7357 26.7184 37.3686 25.6042C38.0027 24.4913 40.5367 23.6766 41.9731 24.9613C43.4095 26.2459 45.1413 30.1011 45.3526 30.4859C45.564 30.8706 45.8594 30.9997 46.0708 30.9997C46.2809 30.9997 46.4503 31.1288 46.2389 31.2567C45.6481 31.7279 45.9435 33.2682 46.1549 33.9124C46.873 33.9977 47.1264 34.1694 47.2946 34.2546C47.4627 34.3398 47.7593 34.4676 47.8434 34.7246L48.0548 35.3249C48.1821 35.5818 47.8014 35.7974 47.674 35.5818C47.5467 35.2397 46.9138 34.8963 46.5331 34.9815C46.4491 35.8388 47.1672 36.0531 47.8001 36.1396L48.6024 38.8367C48.6877 39.2653 48.6024 39.6939 48.4343 40.5913C48.2649 41.4899 48.6024 41.6616 49.1524 41.5777C49.7013 41.4899 49.8706 41.8321 49.8706 42.3898C49.8706 42.945 49.5332 43.2884 49.0251 43.2884C49.3205 43.504 49.7013 43.6318 50.124 43.4601C50.124 43.4601 49.7013 43.6318 50.124 43.4601V43.4601Z" fill="#FF0000"></path> <path fill-rule="evenodd" clip-rule="evenodd" d="M50.4646 23.5742C50.8272 23.2255 51.1445 22.8755 51.7806 22.8755C52.0528 22.3953 52.8695 21.8282 53.3688 21.7848C53.641 21.3493 54.6396 20.7375 55.2292 20.7809C55.4562 20.3875 57.5889 20.3007 58.043 20.5625C58.452 20.3441 60.1743 20.694 60.3562 21.2177C60.9458 21.3493 62.1263 22.265 62.7159 23.6176C62.9417 24.0097 62.4888 24.1413 62.2618 23.8794C62.0347 23.6176 60.3549 22.8755 59.4028 23.1821C58.4507 23.4886 55.9994 24.6215 53.0952 28.5055C52.5959 29.2041 50.9161 29.6844 50.5988 28.2003C50.207 26.3636 49.8286 24.2728 50.4646 23.5742C50.4646 23.5742 49.8286 24.2728 50.4646 23.5742V23.5742Z" fill="#FF0000"></path> </svg> 