<?xml version="1.0" encoding="UTF-8"?> <svg xmlns="http://www.w3.org/2000/svg" width="100" height="100" viewBox="0 0 100 100" fill="none"> <path d="M85.8464 46.5894C85.2752 46.5898 84.7041 46.59 84.1329 46.5903C84.1733 46.5095 84.2135 46.4286 84.2538 46.3477C84.5332 45.7861 84.8269 45.6058 85.4627 45.6055C85.7539 45.6053 86.0451 45.6052 86.3363 45.605C86.173 45.9331 86.0097 46.2613 85.8464 46.5894Z" fill="white"></path> <path d="M83.9968 50.3929C84.5217 49.3389 85.0466 48.2849 85.5715 47.2309C85.0003 47.2312 84.4292 47.2314 83.858 47.2316C83.405 48.1414 82.952 49.0512 82.499 49.961C82.3459 50.2683 82.1366 50.3938 81.7767 50.3941C80.3887 50.3947 79.0007 50.3953 77.6127 50.3959C78.1741 49.2686 78.7354 48.1413 79.2968 47.0142C79.5342 46.5379 79.6239 46.5039 80.1784 46.5039C80.3444 46.5038 80.5104 46.5037 80.6763 46.5037C81.1622 46.5034 81.3911 46.373 81.5834 45.9868C81.6609 45.8309 81.7385 45.6749 81.8161 45.5191C81.2242 45.5193 80.6323 45.5197 80.0405 45.52C80.2951 45.0083 80.5497 44.4966 80.8043 43.9849C80.4311 43.985 80.0578 43.9852 79.6846 43.9854C79.1969 43.9856 78.9681 44.1148 78.7775 44.4977C78.6079 44.8387 78.4382 45.1797 78.2685 45.5207C77.9578 45.5208 77.6471 45.5209 77.3363 45.521C77.173 45.8492 77.0097 46.1772 76.8464 46.5053C77.1572 46.5052 77.468 46.5051 77.7789 46.5049C77.5875 46.8893 76.2476 49.5799 76.0561 49.9643C75.9032 50.2713 75.6945 50.3965 75.3357 50.3968C74.1025 50.3973 72.8691 50.3978 71.6359 50.3982C72.2915 49.2017 72.9473 48.0053 73.6029 46.8089C73.15 46.8086 72.6976 46.8089 72.2447 46.8089C71.9275 46.8088 71.7915 46.9119 71.5934 47.1486C71.592 46.89 71.499 46.8088 71.2502 46.8087C70.9362 46.8083 70.6226 46.8076 70.3081 46.8079C68.7623 46.8089 67.8985 47.2851 67.2272 48.51C66.9603 48.9968 66.6935 49.4835 66.4267 49.9702C66.2595 50.2755 66.0509 50.4 65.7072 50.4C64.9127 50.4002 64.1181 50.4004 63.3236 50.4006C62.4601 50.4008 62.1223 50.2768 62.0266 49.825C61.9236 49.3383 62.1424 48.9433 63.2981 48.1784C63.5161 48.0339 63.7343 47.8896 63.9524 47.7453C64.2569 47.5436 64.3798 47.4387 64.3391 47.2202C64.3027 47.0248 64.1842 46.8094 63.2398 46.8095C61.7455 46.8097 60.2511 46.8099 58.7567 46.8101C58.2824 46.8101 58.0614 46.9356 57.8471 47.327C57.3637 48.2093 56.8802 49.0916 56.3968 49.9739C56.2303 50.2776 56.0218 50.4015 55.6772 50.4015C53.2787 50.4015 50.8803 50.4016 48.4819 50.4017C48.5843 50.1013 48.6867 49.8009 48.789 49.5005C49.9868 49.5005 51.1845 49.5005 52.3822 49.5004C53.0909 49.5004 53.385 49.3174 53.6405 48.7167C53.7549 48.4479 53.8693 48.1791 53.9836 47.9102C54.0698 47.7077 54.1418 47.4203 53.9962 47.2007C53.8269 46.9453 53.3925 46.8104 52.74 46.8105C51.59 46.8105 50.4399 46.8106 49.2898 46.8106C48.1869 46.8106 47.6836 47.1175 47.2964 48.0274C47.0576 48.5886 46.8187 49.1499 46.58 49.7112C46.3354 50.286 45.9474 50.4015 45.4001 50.4015C44.5775 50.4015 43.7548 50.4015 42.9322 50.4014C42.984 50.3237 43.0357 50.2461 43.0874 50.1685C43.5757 49.4361 43.4819 48.6213 42.8304 47.9329C42.1905 47.2569 41.3412 47.0179 40.5886 46.8099C39.9488 46.8098 39.3091 46.8097 38.6694 46.8096C38.2294 47.6127 37.7893 48.4157 37.3493 49.2188C36.7987 50.2233 36.2005 50.4001 35.1449 50.4C34.3707 50.4 33.5965 50.3998 32.8222 50.3996C33.4782 49.2027 34.1341 48.0058 34.79 46.8089C34.3354 46.8086 33.8813 46.8089 33.4266 46.8089C33.1094 46.8088 32.9735 46.9119 32.7753 47.1486C32.774 46.89 32.6809 46.8088 32.4322 46.8087C32.1199 46.8083 31.8079 46.8076 31.4951 46.8079C29.9494 46.8089 29.0856 47.2851 28.4141 48.51C28.1473 48.9968 27.8805 49.4835 27.6136 49.9702C27.4452 50.2777 27.2436 50.3978 26.894 50.3976C25.7141 50.3972 24.5343 50.3968 23.3543 50.3963C24.3546 48.5707 25.3549 46.7451 26.3552 44.9194C26.5308 44.5989 26.2984 44.2075 25.9323 44.2075C21.2473 44.2075 16.5623 44.2075 11.8773 44.2075C10.9234 44.2075 10.4516 44.4489 10 45.2156C12.0255 45.2166 14.051 45.2175 16.0765 45.2185C14.9473 47.2785 13.8183 49.3385 12.6891 51.3985C13.2722 51.3985 13.8553 51.3985 14.4383 51.3985C15.5673 49.3388 16.6963 47.279 17.8253 45.2193C18.6364 45.2196 19.4474 45.2201 20.2585 45.2204C19.1298 47.2798 18.0011 49.3391 16.8724 51.3985C17.4555 51.3985 18.0385 51.3985 18.6216 51.3985C19.7502 49.3394 20.8787 47.2803 22.0073 45.2211C22.8184 45.2214 23.6295 45.2218 24.4407 45.222C23.5091 46.922 22.5774 48.6219 21.6458 50.322C21.5182 50.555 21.3941 50.8805 21.529 51.1074C21.6421 51.2978 21.9265 51.3985 22.3511 51.3985C23.8875 51.3985 25.424 51.3985 26.9605 51.3985C27.1867 51.3985 27.2836 51.3248 27.4245 51.1567C27.4254 51.3411 27.5804 51.3985 27.7573 51.3985C30.3996 51.3985 33.0419 51.3985 35.6842 51.3985C37.2566 51.3985 38.0925 50.9399 38.7686 49.7062C39.1167 49.071 39.4649 48.4357 39.8131 47.8004C39.825 47.8027 39.9085 47.8186 39.9204 47.8209C41.1694 48.0582 41.8029 48.5204 41.8568 49.234C41.8788 49.526 41.7871 49.7918 41.5918 50.0028C41.3587 50.2544 41.0006 50.3996 40.6093 50.401C39.8108 50.4039 39.4908 50.7132 39.1805 51.3985C41.4175 51.3985 43.6546 51.3985 45.8917 51.3985C46.118 51.3985 46.2148 51.3248 46.3557 51.1567C46.3566 51.3411 46.5115 51.3985 46.6884 51.3985C49.9973 51.3985 53.3063 51.3985 56.6152 51.3985C57.2849 51.3985 57.5753 51.2221 57.9097 50.6121C58.2971 49.905 58.6846 49.198 59.0721 48.4909C59.3374 48.007 59.6663 47.8184 60.2454 47.8184C60.8285 47.8182 61.4118 47.8181 61.995 47.818C61.7006 48.0232 61.3698 48.2854 61.1181 48.5417C60.7862 48.8816 60.4657 49.3515 60.4075 49.9594C60.3669 50.3837 60.471 50.7461 60.7087 51.007C60.9419 51.2632 61.2845 51.3985 61.6993 51.3985C63.0595 51.3985 64.4197 51.3985 65.7798 51.3985C66.006 51.3985 66.1029 51.3248 66.2437 51.1567C66.2446 51.3411 66.3996 51.3985 66.5765 51.3985C69.4386 51.3985 72.3007 51.3985 75.1629 51.3985C75.389 51.3985 75.4859 51.3248 75.6268 51.1567C75.6277 51.3411 75.7827 51.3985 75.9596 51.3985C80.1924 51.3985 84.4253 51.3985 88.6581 51.3985C89.423 51.3985 89.8112 51.1501 89.9558 50.5682C89.9705 50.5089 89.9853 50.4495 90 50.3902C87.9989 50.3911 85.9978 50.392 83.9968 50.3929ZM49.2116 48.267C49.3845 47.7722 49.7849 47.7308 50.1462 47.7308C50.7986 47.7308 51.4509 47.7308 52.1034 47.7308C52.0583 47.8632 52.0132 47.9954 51.9681 48.1277C51.8095 48.5933 51.45 48.6323 51.1255 48.6323C50.445 48.6323 49.7645 48.6323 49.0839 48.6323C49.1265 48.5106 49.169 48.3888 49.2116 48.267ZM31.4158 49.7219C31.1454 50.2154 30.8276 50.3992 30.2425 50.3988C29.92 50.3985 29.5974 50.3984 29.2748 50.3981C29.6237 49.7616 29.9726 49.1251 30.3215 48.4886C30.5865 48.0049 30.9152 47.8164 31.4936 47.8164C31.8158 47.8164 32.138 47.8164 32.4602 47.8164C32.1121 48.4516 31.7639 49.0867 31.4158 49.7219ZM70.2289 49.7219C69.9584 50.2154 69.6406 50.3992 69.0556 50.3988C68.733 50.3985 68.4104 50.3984 68.0879 50.3981C68.4367 49.7616 68.7856 49.1251 69.1345 48.4886C69.3996 48.0049 69.7283 47.8164 70.3066 47.8164C70.6288 47.8164 70.9511 47.8164 71.2733 47.8164C70.9251 48.4516 70.5769 49.0867 70.2289 49.7219Z" fill="white"></path> <path d="M48.4235 40.3753C48.4235 40.0828 48.4235 39.7903 48.4235 39.4978C49.1739 39.4978 49.9244 39.4978 50.6748 39.4978H50.6749C51.4254 39.4978 52.1759 39.4978 52.9263 39.4978C52.9263 39.7903 52.9263 40.0828 52.9263 40.3753C52.1759 40.3753 51.4254 40.3753 50.6749 40.3753H50.6748C49.9244 40.3753 49.1739 40.3753 48.4235 40.3753Z" fill="white"></path> <path d="M50.6748 42.1926C51.1479 42.1926 51.621 42.1926 52.0942 42.1926C52.0942 41.7381 52.0942 41.2836 52.0942 40.8291C51.621 40.8291 51.1479 40.8291 50.6748 40.8291H50.6747C50.2016 40.8291 49.7285 40.8291 49.2554 40.8291C49.2554 41.2836 49.2554 41.7381 49.2554 42.1926C49.7285 42.1926 50.2016 42.1926 50.6747 42.1926" fill="white"></path> <path d="M49.2554 39.0437C49.2513 38.2908 49.0549 37.556 48.4518 37.0557C49.1928 37.0557 49.9338 37.0557 50.6747 37.0557H50.6748C51.4158 37.0557 52.1568 37.0557 52.8978 37.0557C52.2947 37.556 52.0983 38.2908 52.0942 39.0437C51.6211 39.0437 51.148 39.0437 50.6748 39.0437H50.6747C50.2016 39.0437 49.7285 39.0437 49.2554 39.0437Z" fill="white"></path> <path d="M45.4955 35.6078C45.4955 35.3918 45.4955 35.1759 45.4955 34.96C47.2219 34.96 48.9484 34.96 50.6748 34.96H50.6749C52.4013 34.96 54.1278 34.96 55.8542 34.96C55.8542 35.1759 55.8542 35.3918 55.8542 35.6078C54.1278 35.6078 52.4013 35.6078 50.6749 35.6078H50.6748C48.9484 35.6078 47.2219 35.6078 45.4955 35.6078Z" fill="white"></path> <path d="M45.959 37.943C46.5637 37.8137 47.2163 37.4751 47.649 37.0557C47.0486 37.0557 46.4482 37.0557 45.8478 37.0557C45.8848 37.3515 45.9219 37.6473 45.959 37.943Z" fill="white"></path> <path d="M55.3908 37.943C54.7861 37.8137 54.1335 37.4751 53.7008 37.0557C54.3012 37.0557 54.9016 37.0557 55.502 37.0557C55.4649 37.3515 55.4279 37.6473 55.3908 37.943Z" fill="white"></path> <path d="M45.3208 33.5389C44.7531 30.1826 43.6573 26.6879 42.4509 24.3892C43.7457 25.0908 45.1376 26.2039 46.6264 27.7284C46.0088 27.5621 45.3912 27.4315 44.7735 27.3367C45.6346 29.369 46.346 31.4435 46.9927 33.539C46.4354 33.5389 45.8781 33.5389 45.3208 33.5389Z" fill="white"></path> <path d="M56.0288 33.5389C56.5965 30.1826 57.6924 26.6879 58.8987 24.3892C57.6039 25.0908 56.212 26.2039 54.7232 27.7284C55.3408 27.5621 55.9584 27.4315 56.5761 27.3367C55.715 29.369 55.0036 31.4435 54.3569 33.539C54.9142 33.5389 55.4715 33.5389 56.0288 33.5389Z" fill="white"></path> <path d="M44.9464 34.6223C44.9464 34.4035 44.9464 34.1848 44.9464 33.9661C46.8559 33.9661 48.7654 33.9661 50.6748 33.9661H50.6749C52.5844 33.9661 54.4939 33.9661 56.4034 33.9661C56.4034 34.1848 56.4034 34.4035 56.4034 34.6223C54.4939 34.6223 52.5844 34.6223 50.6749 34.6223H50.6748C48.7654 34.6223 46.8559 34.6223 44.9464 34.6223Z" fill="white"></path> <path d="M48.7443 24.0345C49.6288 22.5154 50.3879 20.7886 50.6748 19C50.9618 20.7886 51.7209 22.5154 52.6053 24.0345C52.2904 23.8926 51.9567 23.743 51.5871 23.5792C51.2669 23.4373 51.1308 23.521 51.1417 23.8504C51.2481 27.0768 51.7234 30.7453 53.4104 33.539C52.7479 33.539 52.0855 33.539 51.423 33.539C51.1117 32.7958 50.8623 32.0622 50.6748 31.3384C50.4874 32.0622 50.238 32.7958 49.9267 33.539C49.2642 33.539 48.6018 33.539 47.9393 33.539C49.6263 30.7453 50.1016 27.0768 50.208 23.8504C50.2189 23.521 50.0828 23.4373 49.7626 23.5792C49.393 23.743 49.0593 23.8926 48.7443 24.0345Z" fill="white"></path> <path d="M44.9464 36.6017C44.9464 36.383 44.9464 36.1643 44.9464 35.9456C46.8559 35.9456 48.7654 35.9456 50.6748 35.9456H50.6749C52.5844 35.9456 54.4939 35.9456 56.4034 35.9456C56.4034 36.1643 56.4034 36.383 56.4034 36.6017C54.4939 36.6017 52.5844 36.6017 50.6749 36.6017H50.6748C48.7654 36.6017 46.8559 36.6017 44.9464 36.6017Z" fill="white"></path> </svg> 