<?xml version="1.0" encoding="UTF-8"?> <svg xmlns="http://www.w3.org/2000/svg" width="100" height="100" viewBox="0 0 100 100" fill="none"> <path fill-rule="evenodd" clip-rule="evenodd" d="M51.495 41.5355L51.8118 41.4442L52.1483 41.3475L52.5057 41.2461L52.884 41.1387L53.2802 41.0259L53.6943 40.9084L54.1245 40.7855L54.5684 40.6578L55.026 40.5265L55.495 40.3905L55.9747 40.2503L56.4628 40.1071L56.9592 39.9603L57.4616 39.8105L57.9694 39.6572L58.4801 39.5014L58.9926 39.3433L59.507 39.1828L60.0201 39.0205L60.532 38.8553L61.0404 38.6894L61.5446 38.5217L62.0428 38.3529L62.5338 38.1822L63.0159 38.0116L63.4885 37.8397L63.9509 37.6685L64.4014 37.4955L64.837 37.323L65.2582 37.1506L65.6645 36.9776L66.0518 36.8051L66.26 36.7097L66.4617 36.613L66.6568 36.5157L66.8459 36.4179L67.0291 36.3194L67.2063 36.2204L67.3758 36.1213L67.5398 36.0223L67.6962 35.9221L67.8465 35.8224L67.9903 35.721L68.127 35.6195L68.257 35.5175L68.3811 35.4131L68.4975 35.3069L68.6043 35.2019L68.7332 35.0647L68.8555 34.928L68.9724 34.7896L69.0852 34.6482L69.1938 34.5044L69.2982 34.357L69.3979 34.2067L69.4933 34.0527L69.5834 33.8958L69.6699 33.7359L69.7517 33.5724L69.8286 33.4053L69.9014 33.2353L69.9701 33.0611L70.0333 32.8844L70.0942 32.7037L70.1502 32.5181L70.2022 32.3301L70.2505 32.1386L70.2964 31.9411L70.3382 31.74L70.377 31.5342L70.4134 31.3236L70.4474 31.1076L70.4778 30.8856L70.5065 30.6589L70.5321 30.4262L70.5566 30.1869L70.5786 29.9411L70.5989 29.6881L70.6174 29.4292L70.6347 29.1637L71.4134 16.2059L75.7225 8.88308L49.9997 6L24.2776 8.88308L28.5867 16.2059L29.3647 29.1637L29.3814 29.4292L29.4005 29.6881L29.4208 29.9411L29.4429 30.1869L29.4668 30.4262L29.493 30.6589L29.5217 30.8856L29.5527 31.1076L29.5861 31.3236L29.6219 31.5342L29.6613 31.74L29.703 31.9417L29.749 32.1392L29.7973 32.3301L29.8498 32.5181L29.9059 32.7037L29.9662 32.885L30.03 33.0617L30.0986 33.2353L30.1708 33.4053L30.2484 33.5724L30.3295 33.7359L30.4161 33.8958L30.5062 34.0527L30.6016 34.2067L30.7019 34.3576L30.8057 34.5044L30.9143 34.6488L31.0276 34.7896L31.1446 34.928L31.2669 35.0647L31.3958 35.2019L31.5026 35.3069L31.6195 35.4131L31.743 35.5175L31.8731 35.6195L32.0097 35.721L32.1535 35.8224L32.3039 35.9221L32.4608 36.0223L32.6243 36.1213L32.7938 36.2204L32.971 36.3194L33.1541 36.4179L33.3433 36.5157L33.539 36.613L33.7407 36.7097L33.9483 36.8051L34.3355 36.9776L34.7413 37.1506L35.1631 37.323L35.5987 37.4955L36.0486 37.6685L36.511 37.8397L36.9835 38.0116L37.4662 38.1822L37.9573 38.3529L38.4555 38.5217L38.9591 38.6894L39.4674 38.8553L39.9794 39.0205L40.4931 39.1828L41.0068 39.3433L41.5194 39.5014L42.0307 39.6572L42.5379 39.8105L43.0403 39.9603L43.5367 40.1071L44.0253 40.2503L44.5045 40.3905L44.974 40.5265L45.4311 40.6578L45.875 40.7855L46.3058 40.9084L46.7193 41.0259L47.1161 41.1387L47.4943 41.2461L47.8517 41.3475L48.1877 41.4442L48.5051 41.5355L49.9997 41.9537L51.495 41.5355V41.5355Z" fill="#A6A8AA"></path> <path fill-rule="evenodd" clip-rule="evenodd" d="M51.4717 41.4537L51.7886 41.363L52.1251 41.2663L52.4825 41.1649L52.8608 41.0575L53.257 40.9441L53.671 40.8266L54.1012 40.7043L54.5452 40.576L55.0022 40.4447L55.4712 40.3087L55.9509 40.1697L56.439 40.0259L56.9348 39.8797L57.4372 39.7293L57.9443 39.5766L58.4551 39.4209L58.9676 39.2627L59.4814 39.1022L59.9945 38.9399L60.5058 38.7753L61.0136 38.6088L61.5178 38.4411L62.0154 38.2729L62.5058 38.1028L62.9879 37.9322L63.4599 37.7603L63.9211 37.5891L64.3704 37.4167L64.8054 37.2442L65.226 37.0724L65.6306 36.9L66.0178 36.7281L66.2236 36.6332L66.4241 36.5366L66.6186 36.4405L66.8066 36.3427L66.9886 36.2454L67.1646 36.147L67.3328 36.0491L67.4951 35.9501L67.6503 35.8516L67.7988 35.7526L67.9408 35.6529L68.0757 35.5527L68.204 35.4519L68.3251 35.3492L68.4391 35.246L68.5435 35.1428L68.6712 35.0073L68.7911 34.8731L68.9074 34.7359L69.019 34.5962L69.1258 34.4542L69.2284 34.3092L69.3269 34.1607L69.4212 34.0085L69.5101 33.8552L69.5954 33.6971L69.6759 33.5354L69.7517 33.3713L69.8233 33.203L69.8907 33.0312L69.9534 32.857L70.0131 32.678L70.0691 32.4948L70.1211 32.3086L70.1688 32.1183L70.2135 31.9226L70.2553 31.7233L70.2947 31.5192L70.3299 31.3098L70.3633 31.0956L70.3943 30.8749L70.4224 30.6493L70.4486 30.4172L70.4731 30.1785L70.4946 29.9339L70.5148 29.6815L70.5333 29.4238L70.5501 29.1583L71.3299 16.1808L75.5835 8.95225L50.0338 6.08887V41.8564L51.4717 41.4537V41.4537ZM49.9658 6.93971L25.8063 9.64737L29.502 15.9267L30.2932 29.1051C30.4626 31.925 30.8654 33.3122 32.0617 34.5515C32.4656 34.9703 33.2735 35.4769 34.332 35.9572C38.224 37.7251 45.5248 39.7061 48.7587 40.6398L49.9658 40.9776V6.93971Z" fill="#D0D1D3"></path> <path fill-rule="evenodd" clip-rule="evenodd" d="M51.2407 40.6406C54.4747 39.7074 61.7748 37.7265 65.6687 35.9579C66.7265 35.4776 67.5338 34.9711 67.9384 34.5522C69.1347 33.3129 69.5374 31.9257 69.7069 29.1059L70.498 15.9274L74.1932 9.64809L50.0337 6.94043V40.9783L51.2407 40.6406V40.6406Z" fill="#A6A8AA"></path> <path fill-rule="evenodd" clip-rule="evenodd" d="M49.9997 38.3059L48.7938 38.0535C41.4728 36.526 42.3123 36.8876 34.9005 34.7044C32.1428 33.8923 31.8426 32.3989 31.749 29.3637L31.4566 15.5778L28.8414 10.8743H71.158L68.5428 15.5778L68.2504 29.3637C68.1574 32.3989 67.8572 33.8917 65.0995 34.7044C57.6877 36.8876 58.5272 36.526 51.2062 38.0535L49.9997 38.3059Z" fill="#808183"></path> <path fill-rule="evenodd" clip-rule="evenodd" d="M68.1251 28.0963L68.0983 29.3594L68.078 29.9083L68.0493 30.4215L68.0099 30.8988L67.9586 31.3189H50.0677V29.7747H50.7455V29.6404H50.0677V28.0963H68.1251ZM31.6797 18.9142L31.6117 15.6917H49.9322V18.9142H31.6797V18.9142Z" fill="black"></path> <path fill-rule="evenodd" clip-rule="evenodd" d="M67.9366 31.4537L67.8846 31.7533L67.7922 32.1315L67.6782 32.48L67.538 32.7986L67.3685 33.0916L67.1675 33.3595L66.93 33.6053L66.6519 33.8308L66.3297 34.0385L65.9586 34.2282L65.535 34.4012L65.0541 34.5588L64.3846 34.7557L63.7593 34.9388L63.1758 35.1095L62.6322 35.2664L62.1245 35.412L61.6501 35.5468L61.2062 35.6715L60.7903 35.7873L60.3983 35.8947L60.0278 35.9943L59.6752 36.0868L59.3386 36.1733L59.0135 36.2551L58.699 36.332L58.3899 36.4054L58.0844 36.4764L57.779 36.5457L57.4711 36.6137L57.156 36.6811L56.8332 36.7491L56.4985 36.8189L56.1489 36.8905L55.7813 36.9651L55.3929 37.0439L54.9806 37.1268L54.5409 37.2151L54.0719 37.31L53.5701 37.4114L53.0325 37.5212L52.4561 37.6387L51.838 37.7664L51.1751 37.9043L50.0677 38.1358V31.4537H67.9366V31.4537ZM68.2182 23.7084L68.1281 27.9609H50.0677V23.7084H68.2182V23.7084ZM31.6087 15.5568L31.6081 15.5365L29.1003 11.0264H49.9322V15.5568H31.6087ZM31.7788 23.573L31.6827 19.0491H49.9322V23.573H31.7788Z" fill="#D4A950"></path> <path fill-rule="evenodd" clip-rule="evenodd" d="M50.0677 21.4404V19.5072H59.2593V21.4404H50.0677ZM69.7069 13.1707L68.6323 15.1044H59.3942V13.1707H69.7069V13.1707ZM49.9323 25.7065V27.6403H40.7407V25.7065H49.9323V25.7065ZM33.3898 33.8576L33.3474 33.8307L33.07 33.6052L32.8325 33.3593L32.6315 33.0914L32.462 32.7985L32.3218 32.4799L32.2072 32.1314L32.1571 31.9244H40.6053V33.8576H33.3898V33.8576Z" fill="#3A529A"></path> <path fill-rule="evenodd" clip-rule="evenodd" d="M50.0677 19.3719V17.3695H59.2593V19.3719H50.0677ZM59.2593 23.573H50.0677V21.576H59.2593V23.573ZM68.5571 15.2394L68.3913 15.5365L68.3555 17.2346H59.3942V15.2394H68.5571V15.2394ZM59.3942 11.0264H70.899L69.7821 13.0353H59.3942V11.0264ZM49.9323 27.7759V29.6399H40.7407V27.7759H49.9323ZM40.7407 23.7084H49.9323V25.5712H40.7407V23.7084ZM32.1243 31.7891L32.1153 31.7533L32.0437 31.3427L31.99 30.8988L31.9506 30.4215L31.922 29.9084L31.9172 29.7753H40.6052V31.7891H32.1243ZM40.6052 36.159L40.3248 36.0868L39.9722 35.9943L39.6017 35.8947L39.2097 35.7873L38.7932 35.6715L38.3493 35.5468L37.8755 35.412L37.3678 35.2664L36.8242 35.1095L36.2407 34.9388L35.6154 34.7557L34.9459 34.5588L34.4644 34.4012L34.0408 34.2282L33.6702 34.0385L33.5998 33.9931H40.6052V36.159V36.159Z" fill="#BBBCBF"></path> <path fill-rule="evenodd" clip-rule="evenodd" d="M68.353 17.3695L68.2212 23.573H59.3941V17.3695H68.353ZM50.0677 11.0264H59.2593V17.2346H50.0677V11.0264ZM31.9118 29.6399L31.9017 29.3594L31.7817 23.7084H40.6052V29.6399H31.9118ZM49.9322 38.1358L48.8248 37.9043L48.1619 37.7664L47.5438 37.6387L46.9674 37.5212L46.4292 37.4114L45.9274 37.31L45.4585 37.2151L45.0193 37.1268L44.607 37.0439L44.2192 36.9651L43.851 36.8905L43.5014 36.8189L43.1661 36.7491L42.8433 36.6811L42.5294 36.6137L42.221 36.5457L41.9155 36.4764L41.61 36.4054L41.3009 36.332L40.9859 36.2551L40.7406 36.1936V29.7753H49.9322V38.1358Z" fill="#C03B35"></path> <path fill-rule="evenodd" clip-rule="evenodd" d="M51.4442 41.356L51.7605 41.2653L52.097 41.1687L52.4544 41.0672L52.8327 40.9598L53.2294 40.8471L53.6435 40.7295L54.0731 40.6066L54.517 40.4789L54.9741 40.3471L55.4431 40.2122L55.9222 40.072L56.4103 39.9288L56.9061 39.7826L57.4085 39.6323L57.915 39.4795L58.4252 39.3238L58.9377 39.1657L59.4509 39.0058L59.9634 38.8429L60.4747 38.6788L60.9819 38.5129L61.4849 38.3453L61.9819 38.177L62.4718 38.007L62.9533 37.8369L63.4246 37.6657L63.8853 37.4944L64.3333 37.3226L64.7671 37.1507L65.1866 36.9789L65.5899 36.8071L65.9754 36.6358L66.1806 36.5415L66.3799 36.4455L66.572 36.35L66.7594 36.2534L66.9396 36.1567L67.1144 36.0588L67.2809 35.9622L67.4414 35.8643L67.5947 35.7665L67.7409 35.6692L67.8817 35.5708L68.0136 35.4723L68.1395 35.3733L68.2582 35.273L68.3692 35.1722L68.4706 35.072L68.5959 34.9389L68.7146 34.8065L68.8292 34.6716L68.9384 34.5344L69.0434 34.3948L69.1448 34.2522L69.2415 34.106L69.334 33.9568L69.4217 33.8058L69.5046 33.6507L69.5834 33.492L69.6586 33.3303L69.729 33.165L69.7958 32.9956L69.8573 32.8237L69.9163 32.6477L69.9712 32.4663L70.0225 32.2826L70.0703 32.0946L70.1144 31.9013L70.1556 31.7038L70.1944 31.5015L70.2296 31.2939L70.263 31.0809L70.2934 30.8613L70.3221 30.637L70.3477 30.4067L70.3716 30.1692L70.3931 29.9257L70.4133 29.6746L70.4318 29.4168L70.4491 29.1519L71.2302 16.1506L75.4152 9.03955L74.303 9.59504L70.5643 15.9477L69.7737 29.1095L69.7564 29.3708L69.7391 29.6232L69.7188 29.8679L69.698 30.1047L69.6747 30.3351L69.6502 30.5576L69.6228 30.773L69.5941 30.9818L69.5619 31.1841L69.5285 31.381L69.4921 31.5713L69.4539 31.7563L69.4121 31.9353L69.3686 32.1089L69.3215 32.2778L69.2719 32.4425L69.2188 32.6012L69.1621 32.7569L69.1031 32.9091L69.0404 33.0552L68.9742 33.199L68.9044 33.3393L68.831 33.4759L68.7534 33.6095L68.6717 33.7408L68.5864 33.8697L68.4975 33.9956L68.4044 34.1197L68.3065 34.2414L68.2045 34.3619L68.0977 34.4813L67.9867 34.5994L67.9044 34.6806L67.8125 34.7641L67.7123 34.8494L67.6031 34.9347L67.4849 35.0224L67.3596 35.1108L67.2254 35.1997L67.084 35.2903L66.9348 35.3804L66.7791 35.4717L66.6144 35.5636L66.4443 35.6549L66.2665 35.7462L66.0828 35.8381L65.893 35.9288L65.6967 36.0195L65.3202 36.1871L64.9264 36.3548L64.5141 36.5231L64.0875 36.6919L63.646 36.8614L63.1913 37.0308L62.7253 37.2003L62.2486 37.3685L61.7629 37.5368L61.2701 37.7038L60.7701 37.8703L60.2659 38.035L59.7581 38.1991L59.248 38.3602L58.7372 38.5195L58.2271 38.677L57.7187 38.8321L57.214 38.9843L56.7134 39.134L56.2193 39.2802L55.7319 39.4228L55.2545 39.5625L54.7867 39.6979L54.3303 39.8292L53.887 39.9563L53.458 40.0786L53.0445 40.1961L52.6483 40.3089L52.27 40.4169L51.9114 40.5189L51.5743 40.615L51.2593 40.7057L49.9997 41.0583L48.7408 40.7057L48.4251 40.615L48.0886 40.5189L47.73 40.4169L47.3517 40.3089L46.9555 40.1961L46.5414 40.0786L46.1124 39.9563L45.6691 39.8292L45.2133 39.6979L44.7449 39.5625L44.2676 39.4228L43.7801 39.2802L43.2861 39.134L42.7855 38.9843L42.2813 38.8321L41.7723 38.677L41.2628 38.5195L40.752 38.3602L40.2419 38.1991L39.7335 38.035L39.2293 37.8703L38.7299 37.7038L38.2371 37.5368L37.7508 37.3685L37.2747 37.2003L36.8087 37.0308L36.3534 36.8614L35.9125 36.6919L35.4853 36.5231L35.0736 36.3548L34.6798 36.1871L34.3039 36.0195L34.1076 35.9294L33.9172 35.8381L33.7335 35.7462L33.5557 35.6549L33.3856 35.5636L33.2209 35.4717L33.0652 35.3804L32.916 35.2903L32.7746 35.1997L32.6404 35.1108L32.5151 35.0224L32.3969 34.9347L32.2884 34.8494L32.1881 34.7641L32.0956 34.6806L32.0133 34.5994L31.9023 34.4813L31.7955 34.3619L31.6935 34.2414L31.5956 34.1197L31.5026 33.9956L31.4131 33.8697L31.3283 33.7414L31.2466 33.6095L31.169 33.4759L31.0956 33.3393L31.0258 33.199L30.959 33.0552L30.8963 32.9085L30.8373 32.7575L30.7812 32.6018L30.7275 32.4425L30.678 32.2778L30.6308 32.1089L30.5873 31.9359L30.5461 31.7563L30.5073 31.5713L30.4709 31.381L30.4375 31.1841L30.4053 30.9818L30.3766 30.7736L30.3492 30.557L30.3247 30.3351L30.3015 30.1047L30.28 29.8679L30.2603 29.6232L30.2424 29.3708L30.2251 29.1095L29.4351 15.9477L25.6976 9.59564L24.5848 9.03955L28.7698 16.1506L29.5503 29.1519L29.5676 29.4168L29.5855 29.6746L29.6058 29.9257L29.6278 30.1698L29.6523 30.4067L29.6774 30.637L29.706 30.8613L29.7364 31.0809L29.7698 31.2939L29.805 31.5015L29.8438 31.7038L29.885 31.9019L29.9297 32.0952L29.9769 32.2826L30.0282 32.4663L30.0831 32.6477L30.1422 32.8243L30.2042 32.9962L30.2704 33.165L30.3408 33.3303L30.416 33.492L30.4948 33.6507L30.5783 33.8058L30.666 33.9568L30.7585 34.1066L30.8552 34.2527L30.9566 34.3948L31.0616 34.5344L31.1714 34.6716L31.2854 34.8065L31.4041 34.9389L31.5294 35.072L31.6302 35.1722L31.7418 35.273L31.8606 35.3733L31.9858 35.4723L32.1189 35.5708L32.2585 35.6692L32.4053 35.7665L32.5586 35.8643L32.7191 35.9622L32.8856 36.0588L33.0604 36.1567L33.2406 36.2534L33.428 36.35L33.6201 36.4455L33.8194 36.5415L34.0252 36.6358L34.4101 36.8071L34.8128 36.9789L35.2329 37.1507L35.6667 37.3226L36.1148 37.4944L36.5748 37.6657L37.0461 37.8369L37.5277 38.007L38.0175 38.177L38.5145 38.3453L39.0175 38.5129L39.5247 38.6788L40.036 38.8429L40.5486 39.0058L41.0623 39.1657L41.5742 39.3238L42.0844 39.4795L42.5915 39.6323L43.0933 39.7826L43.5892 39.9288L44.0772 40.072L44.5569 40.2122L45.0253 40.3471L45.4824 40.4789L45.9263 40.6066L46.3565 40.7295L46.77 40.8471L47.1668 40.9598L47.545 41.0672L47.9024 41.1687L48.239 41.2653L48.5558 41.356L49.9997 41.7606L51.4442 41.356V41.356Z" fill="#6D6E70"></path> <path fill-rule="evenodd" clip-rule="evenodd" d="M56.1829 53.5133C56.6656 53.5133 57.2002 53.135 57.3751 52.6714C57.5499 52.2084 57.2987 51.8301 56.8166 51.8301C56.3345 51.8301 55.7993 52.2084 55.6244 52.6714C55.4508 53.135 55.7014 53.5133 56.1829 53.5133ZM68.1025 60.8564C68.1025 61.4257 68.4282 61.7998 68.7516 61.9776C69.4688 62.372 70.8388 61.4292 71.4074 61.0355C71.7075 60.8278 71.9957 60.5975 72.2427 60.3505C73.2541 59.3391 73.4384 59.3851 73.4384 59.3851C73.4384 59.3851 73.0709 60.1673 73.0709 60.903C73.0709 61.6852 73.3925 62.0534 74.0828 62.0534C74.7266 62.0534 76.2445 61.2711 77.349 60.1673C78.4534 59.1094 78.775 59.0629 78.775 59.0629C78.775 59.0629 78.6831 59.3391 78.6831 59.8451C78.6831 60.3511 78.5918 62.4209 81.6282 62.4209C84.9403 62.4209 87.3783 59.6607 87.3783 59.6607L87.1939 59.5235C87.1939 59.5235 84.5716 61.9615 81.7655 61.9615C80.0715 61.9615 79.7648 60.8415 80.2117 59.5134C80.9403 57.3493 83.1288 54.8779 85.4361 54.3481C86.244 54.1619 87.1366 54.3122 86.8657 55.3248C86.7369 55.8075 86.3436 56.4746 85.4457 57.0849V57.499C85.4457 57.499 87.8377 56.7168 87.8377 55.0145C87.8377 54.2323 87.148 53.8642 86.3192 53.8642C85.46 53.8642 83.5369 54.2592 81.2917 55.962C80.2648 56.7407 79.4474 57.6542 78.5447 58.5575C77.8776 59.224 75.8125 61.1757 74.6437 61.5361C73.9247 61.7562 73.544 61.4161 73.7905 60.7347C73.9187 60.3791 74.2433 59.9167 75.0023 59.0629C76.152 57.8206 78.9582 54.7848 78.9582 54.7848C78.9582 54.7848 78.4062 54.1864 77.118 54.1864C75.7839 54.1864 72.3799 54.9686 69.8495 57.499C67.5028 59.8451 65.4336 61.7312 64.3751 61.6387C63.1329 61.5468 62.7653 60.8565 62.8107 60.0748C63.7651 59.4661 64.6924 58.8159 65.5899 58.1261C67.7355 56.4626 69.9963 54.5861 71.3966 52.2174C72.084 51.0557 72.5124 49.8164 71.2755 49.8164C70.4008 49.8164 67.9628 51.0581 65.2486 53.7269C62.5344 56.4411 61.7987 58.0969 61.7987 59.7992C61.7987 59.937 61.8441 60.0754 61.8441 60.1673C60.418 61.0414 59.038 61.6393 57.8876 61.6393C56.4156 61.6393 56.0015 60.9036 56.0475 60.0754C58.7647 58.3338 61.7546 55.9626 63.8542 53.4751C64.2922 52.956 66.405 49.8164 64.4664 49.8164C63.6382 49.8164 61.1537 51.0581 58.486 53.7269C55.7718 56.4411 55.0361 58.0969 55.0361 59.7992C55.0361 59.937 55.0361 60.0754 55.0821 60.2133C53.6555 61.0874 52.23 61.6393 51.0797 61.6393C50.5731 61.6393 50.4353 61.4549 50.4353 60.8571C50.4353 60.1214 51.1256 59.1088 51.7694 58.4191C52.4591 57.7753 55.6799 54.4167 55.6799 54.4167H54.1173C54.1173 54.4167 53.4096 55.1703 52.6358 55.9835C52.1232 56.5246 51.6051 57.0605 51.0815 57.5909C49.8643 58.8081 47.1202 61.7306 45.5611 61.7306C44.8839 61.7306 45.0778 60.8624 45.2861 60.4531C46.4454 58.1715 49.7425 55.0706 51.6733 53.2216C53.0874 51.8665 54.7163 50.3218 54.7163 50.3218H53.1984C50.2533 53.1279 49.0116 54.3701 48.9197 54.462C48.9197 54.462 48.4597 54.1858 47.5856 54.1858C46.7115 54.1858 43.9519 54.5539 41.0074 57.4984C38.0629 60.4424 36.5909 61.7306 35.7168 61.7306C35.1625 61.7306 35.2651 61.196 35.493 60.687C36.4853 58.4692 38.9519 56.5312 40.5933 54.7842C40.5933 54.7842 40.2425 54.4041 39.4483 54.2496C37.1691 53.8075 34.3743 55.0975 32.462 56.6219C31.9381 57.039 31.4763 57.5199 30.9757 57.9626C28.99 59.718 22.9339 64.5826 18.5114 64.5826C16.3491 64.5826 15.2453 63.6166 15.2453 61.3159C15.2453 59.6601 16.441 57.36 18.9714 54.508C19.8107 54.511 20.6499 54.4822 21.487 54.4214C25.9214 54.0855 31.5706 52.7681 36.0085 50.5497C37.9167 49.5956 40.7138 48.0425 41.7878 46.1374C42.6142 44.6714 41.7282 43.4202 39.9949 43.4202C34.5664 43.4202 23.2036 48.1589 17.3151 53.9549C14.6009 53.9089 11.6569 53.4029 11.6569 50.6887C11.611 47.422 18.6958 44.3862 25.274 44.3862L25.1362 43.9727C25.1362 43.9727 15.6134 44.0646 11.3353 48.3426C10.5519 49.1261 10 49.9071 10 50.9196C10 51.8856 10.1378 54.0014 16.8085 54.462C14.8306 56.5324 13.5424 58.786 13.5424 60.9483C13.5424 62.9728 14.6462 64.8589 18.3264 64.8589C23.4333 64.8589 30.1034 59.2007 30.1034 59.2007C30.1034 59.5689 29.7352 60.1667 29.7352 60.9489C29.7352 61.6846 30.0574 62.0993 30.7472 62.0993C32.2788 62.0993 33.6911 60.4131 34.8874 59.6154C34.7144 60.0354 34.5652 60.3505 34.5652 61.0414C34.5652 61.6852 34.9334 62.0993 35.6696 62.0993C36.3594 62.0993 37.7854 61.2711 39.0277 60.0289C39.5796 59.431 39.7633 59.3851 39.7633 59.3851C39.4775 60.1709 39.2431 62.0993 40.4996 62.0993C41.1894 62.0993 42.2019 61.6393 43.6739 60.1673C44.4561 59.3851 44.7783 59.3851 44.7783 59.3851C44.762 59.4917 44.7365 59.5967 44.7019 59.6989C44.5158 60.2866 44.2831 60.8571 44.5026 61.4722C44.6238 61.8111 44.8935 62.0993 45.4686 62.0993C46.3887 62.0993 47.7688 61.2252 48.8267 60.1673C49.8845 59.1094 49.9311 59.3851 49.9311 59.3851C49.9311 59.7073 49.7008 59.7986 49.7008 60.4889C49.7008 61.1333 49.7467 62.0993 51.2193 62.0993C52.1393 62.0993 53.6113 61.4549 55.1752 60.5808C55.5433 61.6852 56.7396 62.0993 57.844 62.0993H58.0278C58.9025 62.0993 60.3745 61.4549 61.9383 60.5808C62.3065 61.6387 63.4109 62.0534 64.4228 62.0993C65.5726 62.1452 68.4706 59.1088 68.4706 59.5235C68.47 59.9823 68.1025 60.0283 68.1025 60.8564V60.8564ZM39.8564 43.8348C42.1088 43.8348 41.866 45.4136 40.6387 46.641C40.2765 47.0031 39.7986 47.3898 39.224 47.7877C35.6148 50.2901 28.206 53.2723 21.8646 53.854C21.0707 53.9242 20.2739 53.958 19.4768 53.9554C20.0293 53.4029 20.5341 52.8331 21.1302 52.3236C25.2274 48.8176 34.6112 43.8348 39.8564 43.8348V43.8348ZM34.0139 59.7067C33.1857 60.5343 31.5753 61.7306 30.8856 61.7306C30.7478 61.7306 30.5634 61.5462 30.5634 61.2705C30.5634 60.1202 32.2657 58.4644 33.6917 57.0378C35.1177 55.6118 37.2341 54.6458 38.0623 54.6458C38.5682 54.6458 38.752 54.6917 38.752 54.9214C38.752 55.2902 34.888 58.832 34.0139 59.7067V59.7067ZM40.7765 61.6381C39.4752 61.6381 41.4626 58.9579 41.7425 58.6935C42.5247 57.9113 45.5605 54.6458 47.3547 54.6458C47.8147 54.6458 48.1369 54.8296 48.1369 54.9214C48.1369 55.1058 48.045 55.3355 47.4006 55.9334C46.8028 56.5778 46.2509 57.2675 45.4686 58.0497C44.6864 58.832 41.8344 61.6381 40.7765 61.6381ZM59.8214 53.6798C60.9717 52.5294 63.18 50.2752 64.3763 50.2752C65.1012 50.2752 65.0064 51.4966 61.9837 54.462C60.6501 55.7956 58.3954 57.9119 56.1412 59.4764C56.4932 57.4579 58.4419 55.0593 59.8214 53.6798ZM63.0416 58.9704C63.5481 57.4984 65.2958 55.0139 66.584 53.6804C67.6084 52.6559 69.4718 50.7561 70.7123 50.3528C71.3889 50.1326 71.7892 50.4196 71.4295 51.1702C71.146 51.7597 70.4366 52.8182 68.7922 54.4626C67.4581 55.7962 65.2039 57.9125 62.9037 59.477C62.9497 59.3385 62.9956 59.1542 63.0416 58.9704V58.9704ZM72.1049 56.9919C73.1162 56.0127 74.4754 55.2186 75.4593 54.8403C75.7123 54.743 76.8287 54.3892 77.1037 54.7305C77.2624 54.928 77.062 55.1195 76.9349 55.2675C76.0834 56.2592 73.1335 58.9143 72.4265 59.6595C71.5524 60.4877 69.9885 61.684 69.2982 61.684C69.1144 61.684 68.9766 61.4997 68.9766 61.224C68.9766 60.1202 70.6783 58.4185 72.1049 56.9919V56.9919ZM89.0799 60.5343C89.5859 60.5802 90 60.1667 90 59.6601C90 59.2001 89.5859 58.786 89.0799 58.786C88.6199 58.786 88.2058 59.2001 88.2058 59.6601C88.2058 60.1661 88.6199 60.5802 89.0799 60.5343ZM89.0799 58.9239C89.4934 58.9239 89.8622 59.2461 89.8622 59.6595C89.8622 60.0736 89.494 60.4418 89.0799 60.4418C88.6659 60.4418 88.3437 60.0742 88.3437 59.6595C88.3437 59.2461 88.6659 58.9239 89.0799 58.9239ZM88.8496 59.752H89.0799C89.3097 59.752 89.3556 59.752 89.3556 59.9823V60.1667H89.4934V59.937C89.4934 59.8451 89.4475 59.7992 89.4016 59.7073L89.3556 59.6607C89.4475 59.6154 89.4934 59.5694 89.4934 59.477C89.4934 59.2926 89.3556 59.2007 89.1253 59.2007H88.7118V60.1667H88.8496V59.752V59.752ZM88.8496 59.2926H89.1253C89.2631 59.2926 89.3556 59.3845 89.3556 59.477C89.3556 59.5694 89.2637 59.6148 89.0799 59.6148H88.8496V59.2926Z" fill="white"></path> </svg> 