<?xml version="1.0" encoding="UTF-8"?> <svg xmlns="http://www.w3.org/2000/svg" width="100" height="100" viewBox="0 0 100 100" fill="none"> <path d="M50.9658 47.2938C51.4184 48.1402 52.7345 47.9001 52.9224 47.0492C53.4638 47.8323 54.7173 47.4667 54.8369 46.6429C55.3612 47.2102 56.4012 46.983 56.6369 46.2485C56.6403 46.2378 56.6335 46.2592 56.6369 46.2485C60.4949 44.6738 63.3185 41.8249 64.4229 38.424C64.6573 38.3268 64.8623 38.1708 65.0178 37.9714C66.211 38.25 67.5443 38.8071 68.0356 37.4838C69.0887 37.7624 71.297 38.4918 71.9653 36.7182C73.5092 36.9273 75.7544 37.0663 76.0356 35.4644C77.3689 35.4644 79.6841 35.2554 79.6841 33.723C81.0179 33.723 83.3332 32.8173 83.0525 31.7725C84.2457 31.6335 85.8602 30.3797 85.8602 29.5441C87.0528 29.196 88.3867 28.2903 88.1054 27.1065C88.8068 26.6884 90 26.2008 90 25.5047C90 24.8086 89.4387 24.2509 88.8068 24.2509C88.1749 24.2509 85.789 24.3944 84.9471 24.3944C84.1057 24.3944 73.9299 24.2549 71.544 24.3944C69.1582 24.5334 66.1404 24.599 64.6666 24.46C63.581 24.356 59.8824 24.1458 57.6616 24.7351C52.9582 22.4219 47.0429 22.4213 42.3384 24.7351C40.1182 24.1464 36.419 24.3566 35.3328 24.4588C33.859 24.5984 30.8418 24.5323 28.4554 24.3933C26.0696 24.2537 15.8937 24.3933 15.0518 24.3933C14.2098 24.3933 11.824 24.2498 11.1921 24.2498C10.5602 24.2498 10 24.8074 10 25.5036C10 26.2002 11.1932 26.6879 11.8951 27.1054C11.6139 28.2897 12.9477 29.1949 14.1404 29.5429C14.1404 30.3786 15.7543 31.6324 16.9475 31.7714C16.6668 32.8167 18.9826 33.7219 20.3159 33.7219C20.3159 35.2537 22.6317 35.4633 23.9649 35.4633C24.2456 37.0651 26.4914 36.9261 28.0353 36.7171C28.7036 38.4913 30.9124 37.7618 31.965 37.4827C32.4563 38.8065 33.7895 38.2489 34.9827 37.9703C35.1456 38.1805 35.3505 38.3263 35.5776 38.4229C36.682 41.8244 39.5062 44.6732 43.3636 46.2479C43.3665 46.2587 43.3602 46.2372 43.3636 46.2479C43.5993 46.9825 44.6394 47.2096 45.1637 46.6423C45.2832 47.4661 46.5368 47.8312 47.0782 47.0486C47.2655 47.8995 48.5822 48.1397 49.0342 47.2932C49.1418 48.0848 50.8582 48.0848 50.9658 47.2938V47.2938Z" fill="black"></path> <path d="M37.8599 38.2498C38.2726 39.186 39.5768 38.9911 40.3578 38.699C41.3996 40.272 43.1325 41.5523 45.2662 42.3259L43.5714 45.177C40.277 43.7525 37.8382 41.3681 36.7634 38.5605C37.1439 38.5187 37.5145 38.4137 37.8599 38.2498V38.2498Z" fill="white"></path> <path d="M43.326 45.9173C39.6889 44.3928 37.0155 41.7259 35.9083 38.529C36.091 38.5685 36.2806 38.5838 36.4702 38.5804C37.5546 41.4886 40.0589 43.96 43.4461 45.4274C43.3779 45.5826 43.3373 45.7483 43.326 45.9173V45.9173ZM45.2291 46.0026C45.2286 46.0043 45.228 46.006 45.2274 46.0077C44.6882 47.3242 43.0891 46.5625 43.8127 45.3195L45.5359 42.4209C45.8518 42.5271 46.1758 42.622 46.5071 42.7068C46.5139 42.7514 45.2478 45.9427 45.2291 46.0026V46.0026ZM47.0513 46.4122C46.7177 47.7293 45.118 47.3276 45.4943 46.0947L46.864 42.7915C47.1896 42.865 47.5215 42.9271 47.8591 42.9774C47.8625 42.9898 47.0513 46.4122 47.0513 46.4122V46.4122ZM48.9294 46.6201C48.8104 48.0372 47.0576 47.7914 47.3718 46.38C47.3718 46.3811 48.1546 43.0266 48.1574 43.0192C48.4865 43.0605 48.8201 43.0921 49.1588 43.1113C49.1707 43.1418 48.9305 46.5919 48.9294 46.6201V46.6201ZM49.2345 46.5987C49.2345 46.5992 49.4212 43.1684 49.4241 43.1599C49.752 43.1735 50.2364 43.1831 50.574 43.1492C50.5899 43.1786 50.8074 46.5631 50.8108 46.5908C50.9167 47.9779 49.1508 48.0062 49.2345 46.5987V46.5987ZM11.1544 25.083C11.3115 24.9638 11.6497 24.97 12.0772 24.9463C14.2524 24.9463 19.3053 25.0859 20.2879 25.0859C21.2705 25.0859 28.2179 25.852 29.3052 26.2006C29.7965 26.3402 29.9018 26.8273 29.3052 26.8623C28.7086 26.8973 21.2921 27.0024 20.2395 27.0024C19.4232 27.0024 15.1769 26.9883 12.7228 26.5052C11.3952 26.2436 10.6825 25.4401 11.1544 25.083V25.083ZM13.5437 27.6624C14.8069 27.6974 21.1224 27.7324 21.8597 27.6974C22.5963 27.6624 28.3158 27.3493 28.9825 27.3143C30.4244 27.2392 30.8912 27.8765 29.3684 28.2201C28.5965 28.3946 21.4737 29.1953 16.0701 29.0908C15.0522 29.1258 13.6843 28.6031 13.333 28.1155C12.9824 27.6279 13.3683 27.6624 13.5437 27.6624V27.6624ZM16.0001 29.9615C16.8774 29.9615 27.2279 29.1953 29.4037 28.7427C31.296 28.4568 30.869 29.4219 30.1051 29.5784C29.4629 29.71 21.7891 31.1802 17.8946 31.2497C16.5961 31.2153 15.0875 29.9959 16.0001 29.9615V29.9615ZM18.6313 32.1204C19.8598 31.9809 28.0352 30.6926 30.2457 30.1005C32.245 29.5863 31.8414 30.9051 31.1229 31.1107C30.4831 31.2938 23.5157 32.977 21.9297 33.0612C21.2572 33.0963 20.5829 33.0512 19.9213 32.9267C17.6806 32.482 18.6313 32.1204 18.6313 32.1204V32.1204ZM21.9297 33.9313C22.8069 33.7573 29.9297 32.1549 31.9649 31.3893C32.9566 31.0463 33.2549 32.0131 32.6315 32.2945C32.2456 32.4685 26.772 34.732 24.1755 34.8715C23.2282 34.8715 21.476 34.3653 21.9297 33.9313V33.9313ZM33.5435 32.4685C32.7368 32.8516 27.8245 34.9066 25.9294 35.3247C25.6664 35.3942 25.3886 35.5095 25.4108 35.6547C25.5793 36.7666 29.0667 35.8208 29.3087 35.7439C30.6499 35.3174 33.3841 34.3212 34.5437 33.1996C34.2631 33.0606 33.6141 32.6081 33.5435 32.4685ZM35.0174 33.6528C34.4914 34.0008 31.0524 35.7778 29.4737 36.2649C28.6489 36.5378 29.517 37.3797 31.1281 36.9237C32.9088 36.6497 35.5087 34.5585 35.9299 34.1754C35.7193 34.0709 35.2633 33.7923 35.0174 33.6528ZM36.6318 34.5936C35.996 35.0252 34.772 35.8321 33.9949 36.3468C33.6744 36.5593 32.9093 36.9791 32.9258 37.3147C32.9338 37.4752 33.2412 37.7797 34.6456 37.2735C35.5189 36.9186 36.576 36.1971 37.4738 34.9071C37.2985 34.854 36.8419 34.6975 36.6318 34.5936V34.5936ZM38.2104 35.1156C37.8814 35.4422 37.4561 35.8886 37.04 36.2999C36.6569 36.7904 35.803 37.1435 36.0967 37.7102C36.4149 38.3239 37.4169 37.4407 37.7778 37.1028C38.2879 36.6243 38.7803 35.992 38.9653 35.3592C38.7194 35.2897 38.4387 35.2202 38.2104 35.1156Z" fill="white"></path> <path d="M26.0001 24.8073C26.9126 24.8073 29.9998 25.0163 31.123 25.0163C34.3497 25.0163 38.716 24.4513 41.7172 25.0632C43.5828 25.4435 43.8503 25.9797 43.8503 26.556C43.8503 27.3058 43.219 27.7562 42.7715 28.0816C42.2455 28.4647 40.6311 29.4049 40.561 31.843C40.1403 31.669 39.5437 31.5644 39.965 30.6937C40.6999 29.2343 42.3526 27.4567 39.5261 26.6996C39.0803 26.5803 38.531 26.5024 37.8598 26.4798C35.7899 26.4103 32.7881 26.395 31.7703 26.221C30.753 26.047 26.912 25.1565 26.1054 25.0525C25.7541 25.0158 25.7541 24.8418 26.0001 24.8073V24.8073Z" fill="white"></path> <path d="M34.1117 26.9251C34.8483 26.9251 37.1044 26.9098 37.8609 26.9454C39.9536 27.0443 41.4479 28.0562 39.9365 29.9553C39.6405 30.3265 38.8492 31.1046 38.5332 31.3831C38.2526 31.5922 37.726 31.2436 38.182 30.7215C37.5854 31.0695 36.8487 31 37.1994 30.1994C36.6728 30.6175 35.7961 30.652 36.3222 29.5728C35.9715 29.8513 34.9889 29.8169 35.6202 28.9806C35.0942 29.1547 34.4976 28.8411 34.8836 28.319C34.217 28.4241 33.831 27.9359 34.5329 27.5534C33.8663 27.7257 33.691 26.9595 34.1117 26.9251V26.9251ZM32.0532 26.555C31.7691 26.5369 30.5366 26.338 30.5662 26.9974C30.5958 27.6573 31.9649 27.4082 32.2461 27.3562C32.7642 27.2607 33.178 27.1036 33.1661 26.8906C33.1541 26.6719 32.6145 26.59 32.0532 26.555ZM32.1032 27.6856C31.8038 27.7082 30.7273 27.6556 30.8952 28.2591C30.9482 28.4489 31.3438 28.8332 32.6674 28.5139C33.2475 28.3738 33.5481 28.0653 33.5481 27.8201C33.5481 27.6059 32.7682 27.6353 32.1032 27.6856V27.6856ZM32.9532 28.6653C32.7403 28.7004 31.5061 28.784 31.7127 29.4016C31.8573 29.8321 32.0793 29.6959 32.4556 29.7406C32.7038 29.77 34.5426 29.2558 34.2551 28.6704C34.1697 28.4964 33.6289 28.5552 32.9532 28.6653V28.6653ZM33.5634 29.5406C32.3395 30.0338 32.3554 30.3678 32.4112 30.548C32.4664 30.7288 33.0278 30.952 34.1891 30.3887C34.7771 30.1033 34.7845 29.779 34.6399 29.5496C34.4595 29.262 34.0029 29.3631 33.5634 29.5406ZM34.4202 30.37C33.1462 30.8107 33.219 31.213 33.3198 31.4492C33.4308 31.7103 33.8333 31.9883 34.8967 31.3159C35.5388 30.9102 35.9567 30.57 35.8423 30.3C35.7387 30.0547 35.1312 30.1186 34.4202 30.37V30.37ZM34.9189 31.6368C34.5847 31.838 34.4327 32.1103 34.6434 32.4205C35.0202 32.9765 36.1315 31.9956 36.4104 31.6956C36.6176 31.473 36.7503 31.239 36.633 31.0678C36.5117 30.8915 36.1349 30.9051 34.9189 31.6368V31.6368ZM36.9307 31.7312C35.4472 32.4821 35.5895 32.846 35.7961 33.0014C36.0244 33.1731 36.5624 33.3534 37.4619 32.3216C37.8564 31.8696 37.6395 31.3746 36.9307 31.7312V31.7312ZM37.6714 32.5188C37.3582 32.8663 36.6244 33.3901 37.1926 33.7805C37.6713 34.1094 37.952 33.7483 38.1877 33.5246C39.5505 32.2233 39.0997 31.3995 37.6714 32.5188V32.5188Z" fill="white"></path> <path d="M42.1482 25.6979C43.19 26.2149 43.621 26.7641 42.5513 27.5144C42.4204 27.606 42.582 27.8337 42.713 27.7421C43.8902 26.9172 43.6369 26.0612 42.274 25.4487C42.1306 25.3775 42.0053 25.6267 42.1482 25.6979Z" fill="black"></path> <path d="M56.4473 37.4861C56.4473 36.3752 55.2946 35.2644 54.0143 34.8813C53.6721 34.8044 53.7262 34.5027 53.9926 34.3835C54.2488 34.2682 55.7432 33.2342 55.7221 31.9318C55.7221 30.6679 54.2272 28.7524 49.8722 28.7524C47.3104 28.7524 45.1757 29.3271 43.8948 30.4001C44.1931 30.63 44.5352 30.9747 44.5352 31.3578V38.3681C44.4925 38.7896 44.279 39.1342 43.9369 39.5173C45.0868 40.3276 47.1459 41.1005 50.1022 41.0909C53.2617 41.0141 56.4473 40.0908 56.4473 37.4861Z" fill="white"></path> <path d="M50.0886 34.1116C51.4474 34.1116 52.549 33.2384 52.549 32.1612C52.549 31.084 51.4474 30.2107 50.0886 30.2107C48.7297 30.2107 47.6282 31.084 47.6282 32.1612C47.6282 33.2384 48.7297 34.1116 50.0886 34.1116Z" fill="black"></path> <path d="M50.4056 39.5066C51.9289 39.5066 53.1637 38.5848 53.1637 37.4476C53.1637 36.3105 51.9289 35.3887 50.4056 35.3887C48.8823 35.3887 47.6475 36.3105 47.6475 37.4476C47.6475 38.5848 48.8823 39.5066 50.4056 39.5066Z" fill="black"></path> <path d="M39.3998 34.0839C39.4961 33.6087 39.6503 33.1471 39.8564 32.7035C39.8445 32.686 39.4795 32.2227 38.5807 33.5121C38.0842 34.2234 38.9609 34.5099 39.3998 34.0839ZM39.3708 36.2739C39.0008 36.7005 38.6518 37.0588 38.4213 37.3447C37.9397 37.9425 39.1926 38.6792 39.8678 37.8295C39.6338 37.3349 39.4667 36.8119 39.3708 36.2739V36.2739ZM56.6404 25.1305C56.839 25.0188 57.0479 24.9265 57.2643 24.8547C52.7716 22.7528 47.2286 22.7528 42.7364 24.8547C42.9698 24.935 43.1793 25.0265 43.3597 25.1305C47.52 23.332 52.5166 23.3478 56.6404 25.1305Z" fill="white"></path> <path d="M58.7085 30.6604C58.2041 28.9189 56.9448 28.2104 56.4564 27.8714C55.4744 27.1905 55.5279 26.1842 56.367 25.3169C52.3576 23.6393 47.5956 23.6585 43.6334 25.3169C44.4725 26.1842 44.5255 27.1905 43.5441 27.8714C43.0556 28.2104 41.7958 28.9189 41.292 30.6604C45.5747 26.2797 54.4258 26.2791 58.7085 30.6604V30.6604ZM62.1406 38.2498C61.7273 39.186 60.4231 38.9911 59.6426 38.699C58.6009 40.272 56.868 41.5524 54.7338 42.3259L56.4291 45.177C59.7235 43.7526 62.1617 41.3682 63.2376 38.5606C62.857 38.5189 62.4861 38.4139 62.1406 38.2498V38.2498Z" fill="white"></path> <path d="M56.6745 45.9173C60.3116 44.3928 62.9855 41.7259 64.0922 38.529C63.9075 38.5676 63.719 38.5849 63.5303 38.5804C62.4458 41.4886 59.9416 43.96 56.5544 45.4274C56.6225 45.5826 56.6632 45.7483 56.6745 45.9173V45.9173ZM54.7708 46.0026L54.7731 46.0077C55.3122 47.3242 56.9113 46.5625 56.1877 45.3195L54.4645 42.4209C54.1486 42.5271 53.8252 42.622 53.4934 42.7068C53.4865 42.7514 54.7526 45.9427 54.7708 46.0026V46.0026ZM52.9486 46.4122C53.2827 47.7293 54.8818 47.3276 54.5055 46.0947C54.5055 46.0947 53.2076 42.9627 53.1359 42.7915C52.8108 42.865 52.4789 42.9271 52.1413 42.9774C52.1379 42.9898 52.9486 46.4122 52.9486 46.4122V46.4122ZM51.0711 46.6201C51.1901 48.0372 52.9423 47.7914 52.6281 46.38C52.6286 46.3811 51.8459 43.0266 51.8425 43.0192C51.5134 43.0605 51.1792 43.0921 50.8411 43.1113C50.8297 43.1418 51.0699 46.5919 51.0711 46.6201ZM88.8461 25.083C88.6889 24.9638 88.3508 24.97 87.9233 24.9463C85.7481 24.9463 80.6951 25.0859 79.7126 25.0859C78.73 25.0859 71.7825 25.852 70.6952 26.2006C70.2039 26.3402 70.0986 26.8273 70.6952 26.8623C71.2918 26.8973 78.7078 27.0024 79.7604 27.0024C80.5773 27.0024 84.8235 26.9883 87.2771 26.5052C88.6058 26.2436 89.3186 25.4401 88.8461 25.083V25.083ZM86.4562 27.6624C85.193 27.6974 78.878 27.7324 78.1408 27.6974C77.4042 27.6624 71.6846 27.3493 71.018 27.3143C69.576 27.2392 69.1086 27.8765 70.632 28.2201C71.4034 28.3946 78.5268 29.1953 83.9298 29.0908C84.9471 29.1258 86.3156 28.6031 86.6669 28.1155C87.0181 27.6279 86.6321 27.6624 86.4562 27.6624V27.6624ZM84.0004 29.9615C83.1231 29.9615 72.7725 29.1953 70.5967 28.7427C68.7045 28.4568 69.1314 29.4219 69.8954 29.5784C70.5375 29.71 78.2108 31.1802 82.1058 31.2497C83.4038 31.2153 84.9124 29.9959 84.0004 29.9615V29.9615ZM81.3692 32.1204C80.1412 31.9809 71.9653 30.6926 69.7553 30.1005C67.756 29.5863 68.1591 30.9051 68.8781 31.1107C69.5174 31.2938 76.4848 32.977 78.0708 33.0612C78.7433 33.0963 79.4176 33.0512 80.0792 32.9267C82.3199 32.482 81.3692 32.1204 81.3692 32.1204V32.1204ZM78.0708 33.9313C77.1935 33.7573 70.0707 32.1549 68.0356 31.3893C67.0444 31.0463 66.7456 32.0131 67.3689 32.2945C67.7549 32.4685 73.2285 34.732 75.825 34.8715C76.7723 34.8715 78.5245 34.3653 78.0708 33.9313V33.9313ZM66.4564 32.4685C67.263 32.8516 72.1759 34.9066 74.0705 35.3247C74.3335 35.3942 74.6113 35.5095 74.5891 35.6547C74.4206 36.7666 70.9332 35.8208 70.6912 35.7439C69.3506 35.3174 66.6158 34.3212 65.4562 33.1996C65.7374 33.0606 66.3864 32.6081 66.4564 32.4685V32.4685ZM64.9825 33.6528C65.5085 34.0008 68.9475 35.7778 70.5261 36.2649C71.351 36.5378 70.4829 37.3797 68.8718 36.9237C67.0911 36.6497 64.4912 34.5585 64.07 34.1754C64.2812 34.0709 64.7372 33.7923 64.9825 33.6528V33.6528ZM63.3692 34.5936C64.0045 35.0252 65.229 35.8321 66.0061 36.3468C66.3266 36.5593 67.0917 36.9791 67.0752 37.3147C67.0672 37.4752 66.7598 37.7797 65.3554 37.2735C64.4821 36.9186 63.425 36.1971 62.5272 34.9071C62.702 34.854 63.158 34.6975 63.3692 34.5936V34.5936ZM61.7894 35.1156C62.1185 35.4422 62.5443 35.8886 62.9604 36.2999C63.3441 36.7904 64.1981 37.1435 63.9037 37.7102C63.5855 38.3239 62.5836 37.4407 62.2232 37.1028C61.7132 36.6243 61.2202 35.992 61.0351 35.3592C61.2811 35.2897 61.5617 35.2202 61.7894 35.1156Z" fill="white"></path> <path d="M74.0004 24.8073C73.0879 24.8073 70.0007 25.0163 68.8775 25.0163C65.6503 25.0163 61.2839 24.4513 58.2832 25.0632C56.4177 25.4435 56.1501 25.9797 56.1501 26.556C56.1501 27.3058 56.7809 27.7562 57.2284 28.0816C57.7549 28.4647 59.3694 29.4049 59.4394 31.843C59.8601 31.669 60.4567 31.5644 60.036 30.6937C59.3005 29.2343 57.6485 27.4567 60.4749 26.6996C60.9207 26.5803 61.47 26.5024 62.1418 26.4798C64.2117 26.4103 67.2135 26.395 68.2308 26.221C69.2481 26.047 73.089 25.1565 73.8957 25.0525C74.2463 25.0158 74.2463 24.8418 74.0004 24.8073V24.8073Z" fill="white"></path> <path d="M65.8882 26.9251C65.1516 26.9251 62.8955 26.9098 62.1389 26.9454C60.0463 27.0443 58.5519 28.0562 60.0633 29.9553C60.3594 30.3265 61.1507 31.1046 61.4666 31.3831C61.7473 31.5922 62.2738 31.2436 61.8173 30.7215C62.4145 31.0695 63.1511 31 62.8004 30.1994C63.3264 30.6175 64.2037 30.652 63.6777 29.5728C64.0284 29.8513 65.0109 29.8169 64.379 28.9806C64.9056 29.1547 65.5022 28.8411 65.1157 28.319C65.7829 28.4241 66.1689 27.9359 65.4664 27.5534C66.1341 27.7257 66.3095 26.9595 65.8882 26.9251V26.9251ZM67.9473 26.555C68.2314 26.5369 69.4638 26.338 69.4342 26.9974C69.4046 27.6573 68.0355 27.4082 67.7543 27.3562C67.2363 27.2607 66.8224 27.1036 66.8343 26.8906C66.8463 26.6719 67.386 26.59 67.9473 26.555ZM67.8978 27.6856C68.1966 27.7082 69.2737 27.6556 69.1052 28.2591C69.0522 28.4489 68.6572 28.8332 67.3336 28.5139C66.7529 28.3738 66.4529 28.0653 66.4529 27.8201C66.4529 27.6059 67.2323 27.6353 67.8978 27.6856V27.6856ZM67.0467 28.6653C67.2596 28.7004 68.4938 28.784 68.2871 29.4016C68.1425 29.8321 67.9205 29.6959 67.5442 29.7406C67.296 29.77 65.4573 29.2558 65.7447 28.6704C65.8307 28.4964 66.3715 28.5552 67.0467 28.6653V28.6653ZM66.437 29.5406C67.6604 30.0338 67.6444 30.3678 67.5892 30.548C67.5334 30.7288 66.9727 30.952 65.8113 30.3887C65.2233 30.1033 65.2153 29.779 65.3599 29.5496C65.5409 29.262 65.9975 29.3631 66.437 29.5406V29.5406ZM65.5797 30.37C66.8537 30.8107 66.7808 31.213 66.6801 31.4492C66.5691 31.7103 66.1666 31.9883 65.1026 31.3159C64.4604 30.9102 64.0426 30.57 64.1576 30.3C64.2618 30.0547 64.8686 30.1186 65.5797 30.37V30.37ZM65.081 31.6368C65.4151 31.838 65.5671 32.1103 65.3565 32.4205C64.9802 32.9765 63.8684 31.9956 63.5895 31.6956C63.3828 31.473 63.2496 31.239 63.3669 31.0678C63.4881 30.8915 63.8655 30.9051 65.081 31.6368V31.6368ZM63.0697 31.7312C64.5532 32.4821 64.4109 32.846 64.2043 33.0014C63.976 33.1731 63.438 33.3534 62.5386 32.3216C62.1441 31.8696 62.3609 31.3746 63.0697 31.7312V31.7312ZM62.3285 32.5188C62.6416 32.8663 63.3754 33.3901 62.8078 33.7805C62.3285 34.1094 62.0478 33.7483 61.8127 33.5246C60.4499 32.2233 60.9007 31.3995 62.3285 32.5188Z" fill="white"></path> <path d="M57.8523 25.6979C56.8105 26.2149 56.3796 26.7641 57.4498 27.5144C57.5802 27.606 57.4185 27.8337 57.2876 27.7421C56.1109 26.9172 56.3642 26.0612 57.727 25.4487C57.8699 25.3775 57.9952 25.6267 57.8523 25.6979V25.6979Z" fill="black"></path> <path d="M60.6009 34.0839C60.5041 33.6087 60.3504 33.1471 60.1437 32.7035C60.1557 32.686 60.5206 32.2227 61.4195 33.5121C61.9165 34.2235 61.0398 34.5099 60.6009 34.0839ZM60.6293 36.2739C60.9994 36.7005 61.3489 37.0588 61.5795 37.3447C62.0611 37.9425 60.8081 38.6793 60.1329 37.8295C60.3669 37.3317 60.5354 36.8107 60.6293 36.2739Z" fill="white"></path> </svg> 