<?xml version="1.0" encoding="UTF-8"?> <svg xmlns="http://www.w3.org/2000/svg" width="100" height="100" viewBox="0 0 100 100" fill="none"> <path d="M64.3739 63.635H61.3975V64.3646H64.3739V63.635Z" fill="white"></path> <path d="M11.8149 59.4033L11.5245 66.3346V66.4805C11.5245 67.0642 11.6697 67.2101 12.6134 67.2831V67.5749C11.9601 67.502 11.6697 67.502 11.3067 67.502C10.9437 67.502 10.6534 67.502 10 67.5749V67.2831C10.9437 67.2101 11.0889 67.1372 11.0889 66.4076L11.3793 59.8411V59.7681C11.3793 59.1844 11.1615 59.0385 10.2904 58.9656V58.6008C10.7985 58.6737 11.0163 58.6737 11.3793 58.6737C11.8875 58.6737 12.1053 58.6737 12.6134 58.6008L15.0817 65.3861L17.6225 58.6008C18.2033 58.6737 18.4936 58.6737 18.9292 58.6737C19.2922 58.6737 19.51 58.6737 20.0181 58.6008V58.9656C19.147 59.0385 18.9292 59.1844 18.9292 59.7681V59.8411L19.0744 66.4076C19.0744 67.1372 19.2196 67.2101 20.1633 67.2831V67.5749C19.2922 67.502 19.0018 67.502 18.4936 67.502C17.9855 67.502 17.6951 67.502 16.824 67.5749V67.2831C17.6951 67.2101 17.9129 67.0642 17.9129 66.4805V66.4076L17.7677 59.4763L15.5172 65.3861L15.3721 65.8239L15.1543 66.3346L15.0091 66.8453L14.8639 67.2831H14.6461L14.5009 66.8453L14.2831 66.3346L14.1379 65.8239L13.9927 65.3132L11.8149 59.4033ZM23.5753 67.2831C22.3412 67.2831 21.833 66.3346 21.833 64.2187H25.8258C25.8258 62.1758 24.9546 61.0814 23.3575 61.0814C21.7604 61.0814 20.7441 62.3947 20.7441 64.4376C20.7441 66.4805 21.7604 67.7209 23.4301 67.7209C24.7368 67.7209 25.608 66.9183 25.7532 65.532H25.245C25.0998 66.6265 24.5191 67.2831 23.5753 67.2831ZM21.833 63.708C21.9782 62.1758 22.4864 61.3733 23.3575 61.3733C24.2287 61.3733 24.6642 62.1029 24.7368 63.708H21.833ZM26.5517 61.5192V61.3003C27.2777 61.2273 27.7858 61.1544 28.294 61.0085C28.3666 61.5192 28.3666 61.7381 28.4392 62.1029V62.2488C28.7296 61.5192 29.3103 61.0085 29.9637 61.0085C30.6171 61.0085 31.1252 61.4462 31.1252 62.1029C31.1252 62.4677 30.9074 62.7595 30.5445 62.7595C30.2541 62.7595 29.9637 62.5406 29.9637 62.3218C29.9637 62.3218 29.9637 62.2488 29.9637 62.1758V62.0299V61.957C29.9637 61.7381 29.8185 61.6651 29.5281 61.6651C28.8022 61.6651 28.3666 62.5406 28.3666 63.8539V66.6265C28.3666 67.2101 28.5118 67.2831 29.3103 67.3561V67.6479C28.5844 67.5749 28.294 67.5749 27.8584 67.5749C27.3503 67.5749 27.1325 67.5749 26.3339 67.6479V67.3561C27.1325 67.2831 27.2777 67.2101 27.2777 66.6265V62.3947V62.1758C27.2777 61.5922 27.2051 61.5192 26.4791 61.5192H26.5517V61.5192ZM36.2795 60.9355V63.1243H35.9891C35.7713 61.957 35.2632 61.3733 34.4646 61.3733C33.4483 61.3733 32.8675 62.4677 32.8675 64.3647C32.8675 66.2616 33.3757 67.2101 34.392 67.2101C35.1906 67.2101 35.6987 66.6265 35.8439 65.4591H36.4247C36.2795 66.9183 35.4809 67.6479 34.3194 67.6479C32.7949 67.6479 31.706 66.3346 31.706 64.3647C31.706 62.3947 32.7949 61.0085 34.3194 61.0085C34.9002 61.0085 35.2632 61.1544 35.6987 61.5922L36.0617 60.9355H36.2795ZM40.1996 67.2831C38.9655 67.2831 38.4574 66.3346 38.4574 64.2187H42.4501C42.4501 62.1758 41.5789 61.0814 39.9819 61.0814C38.3848 61.0814 37.3684 62.3947 37.3684 64.4376C37.3684 66.4805 38.3848 67.7209 40.0544 67.7209C41.3612 67.7209 42.2323 66.9183 42.3775 65.532H41.8693C41.7241 66.6265 41.1434 67.2831 40.1996 67.2831ZM38.4574 63.708C38.6025 62.1758 39.1107 61.3733 39.9819 61.3733C40.853 61.3733 41.2886 62.1029 41.3612 63.708H38.4574ZM48.6207 66.1887V58.4548C47.9673 58.6008 47.3866 58.7467 46.588 58.8196V59.0385C47.4592 59.0385 47.5318 59.1115 47.5318 59.8411V62.1758C47.0236 61.3733 46.6606 61.1544 45.9347 61.1544C44.4828 61.1544 43.539 62.5406 43.539 64.4376C43.539 66.3346 44.5554 67.7209 46.0073 67.7209C46.7332 67.7209 47.314 67.3561 47.677 66.6265C47.7495 67.1372 47.7495 67.2101 47.8947 67.7209C48.4755 67.5749 48.6933 67.502 49.4192 67.429H49.637V67.2101C48.6933 67.0642 48.6207 66.9913 48.6207 66.1887ZM46.0799 67.3561C45.1361 67.3561 44.6279 66.3346 44.6279 64.4376C44.6279 62.4677 45.0635 61.5192 46.0799 61.5192C47.0962 61.5192 47.6044 62.5406 47.6044 64.5106C47.5318 66.3346 47.0236 67.3561 46.0799 67.3561ZM52.9038 67.2831C51.6697 67.2831 51.1615 66.3346 51.1615 64.2187H55.1543C55.1543 62.1758 54.2831 61.0814 52.686 61.0814C51.0889 61.0814 50.0726 62.3947 50.0726 64.4376C50.0726 66.4805 51.0889 67.7209 52.7586 67.7209C54.0653 67.7209 54.9365 66.9183 55.0817 65.532H54.5735C54.4283 66.6265 53.8475 67.2831 52.9038 67.2831ZM51.1615 63.708C51.3067 62.1758 51.8149 61.3733 52.686 61.3733C53.5572 61.3733 53.9927 62.1029 54.0653 63.708H51.1615ZM56.2432 67.7209V65.4591H56.5336C56.7514 66.6994 57.3321 67.2831 58.2759 67.2831C59.0744 67.2831 59.6552 66.7724 59.6552 66.0428C59.6552 65.605 59.4374 65.3132 58.784 64.9484L58.2759 64.7295L57.6225 64.5106C56.6788 64.0728 56.3158 63.708 56.3158 62.9054C56.3158 61.811 57.1143 61.1544 58.3485 61.1544C58.8566 61.1544 59.2196 61.3003 59.7278 61.5922L59.9456 61.0085H60.1633V63.0514H59.873C59.7278 61.957 59.2922 61.4462 58.4936 61.4462C57.7677 61.4462 57.2595 61.957 57.2595 62.5406C57.2595 63.0514 57.4773 63.2703 58.6388 63.781L59.2196 63.9999C60.2359 64.4376 60.5989 64.8754 60.5989 65.678C60.5989 66.7724 59.7278 67.5749 58.421 67.5749C57.8403 67.5749 57.3321 67.429 56.824 66.9913L56.5336 67.5749H56.2432V67.7209ZM70.6171 60.7896C70.6171 60.06 70.3267 59.4763 69.8185 59.1115C69.3829 58.7467 68.8748 58.6008 68.0036 58.6008H64.5191V58.9656C65.4628 59.0385 65.608 59.1115 65.608 59.8411V66.3346C65.608 67.0642 65.5354 67.1372 64.5191 67.2101V67.502H67.8584C68.8748 67.502 69.3829 67.3561 69.9637 67.0642C70.6171 66.6265 71.0526 65.8239 71.0526 64.9484C71.0526 64.2187 70.7622 63.5621 70.2541 63.1973C69.9637 62.9784 69.6733 62.8325 69.1652 62.7595C70.1089 62.3947 70.6171 61.7381 70.6171 60.7896ZM66.6969 59.0385H67.8584C68.9474 59.0385 69.4555 59.6222 69.4555 60.8625C69.4555 61.4462 69.3103 61.957 69.02 62.2488C68.7296 62.6136 68.3666 62.6866 67.6407 62.6866H66.6969V59.0385ZM68.0036 63.0514C68.7296 63.0514 69.0926 63.1973 69.3829 63.4891C69.6733 63.781 69.8911 64.3647 69.8911 65.0213C69.8911 66.3346 69.2377 67.1372 68.0036 67.1372H67.4955C66.7695 67.1372 66.6969 67.0642 66.6969 66.4076V63.0514H68.0036ZM74.9728 67.2831C73.7387 67.2831 73.2305 66.3346 73.2305 64.2187H77.2232C77.1506 62.1758 76.3521 61.0814 74.755 61.0814C73.1579 61.0814 72.1416 62.3947 72.1416 64.4376C72.1416 66.4805 73.1579 67.7209 74.8276 67.7209C76.1343 67.7209 77.0054 66.9183 77.1506 65.532H76.6425C76.4973 66.6265 75.9165 67.2831 74.9728 67.2831ZM73.2305 63.708C73.3757 62.1758 73.8838 61.3733 74.755 61.3733C75.6261 61.3733 76.0617 62.1029 76.1343 63.708H73.2305ZM77.8766 61.5922V61.3733C78.6751 61.3003 79.1107 61.1544 79.6189 60.9355C79.6915 61.2273 79.6915 61.5922 79.7641 62.1029C80.2722 61.3733 80.7804 61.0814 81.5789 61.0814C82.3775 61.0814 83.1034 61.5192 83.3212 62.1758C83.4664 62.4677 83.539 62.9054 83.539 63.4162V66.6265C83.539 67.2101 83.6842 67.2831 84.4828 67.3561V67.6479C83.7568 67.5749 83.539 67.5749 83.0309 67.5749C82.5227 67.5749 82.3049 67.5749 81.5789 67.6479V67.3561C82.3049 67.3561 82.4501 67.2101 82.4501 66.6265V63.3432C82.4501 62.1758 82.0871 61.7381 81.216 61.7381C80.3448 61.7381 79.8367 62.3218 79.8367 63.4162V66.6265C79.8367 67.1372 79.9819 67.2831 80.7078 67.3561V67.6479C79.9819 67.5749 79.7641 67.5749 79.2559 67.5749C78.8203 67.5749 78.5299 67.5749 77.804 67.6479V67.3561C78.6025 67.2831 78.7477 67.2101 78.7477 66.6265V62.4677V62.2488C78.7477 61.6651 78.6751 61.5922 78.0218 61.5922C78.0218 61.5922 77.9492 61.5922 77.8766 61.5922ZM84.9909 67.5749L88.6207 61.5922H86.951C86.0799 61.5922 85.8621 61.811 85.4265 62.9784H85.1361L85.4265 61.2273H90L86.3702 67.2101H87.8947C88.7659 67.2101 89.2014 66.8453 89.5644 65.605H89.8548L89.4918 67.502H84.9909V67.5749Z" fill="white"></path> <path d="M72.6498 26.3475C72.6498 38.9697 62.4865 49.1842 49.9275 49.1842C37.3685 49.1842 27.2052 38.9697 27.2052 26.3475C27.2052 13.7253 37.3685 3.51074 49.9275 3.51074C62.4865 3.51074 72.6498 13.7253 72.6498 26.3475ZM49.9275 4.897C38.0945 4.897 28.5845 14.4549 28.5845 26.3475C28.5845 38.2401 38.1671 47.798 49.9275 47.798C61.7605 47.798 71.2705 38.1672 71.2705 26.3475C71.2705 14.4549 61.7605 4.897 49.9275 4.897Z" fill="url(#paint0_linear)"></path> <path d="M49.9275 4.89697C38.0945 4.89697 28.5845 14.4548 28.5845 26.3475C28.5845 38.2401 38.167 47.798 49.9275 47.798C61.7605 47.798 71.2705 38.1671 71.2705 26.3475C71.2705 14.4548 61.7605 4.89697 49.9275 4.89697ZM49.9275 46.4117C38.893 46.4117 29.9638 37.4375 29.9638 26.3475C29.9638 15.2574 38.893 6.28323 49.9275 6.28323C60.962 6.28323 69.8912 15.2574 69.8912 26.3475C69.8912 37.4375 60.962 46.4117 49.9275 46.4117Z" fill="url(#paint1_linear)"></path> <path opacity="0.4" d="M49.9275 49.1842C62.4865 49.1842 72.6498 38.9697 72.6498 26.3475C72.6498 13.7252 62.4865 3.51073 49.9275 3.51073C37.3685 3.51073 27.2052 13.7252 27.2052 26.3475C27.2052 38.9697 37.3685 49.1842 49.9275 49.1842ZM49.9275 3C62.7043 3 73.158 13.5064 73.158 26.3475C73.158 39.1886 62.7043 49.695 49.9275 49.695C37.1507 49.695 26.697 39.1886 26.697 26.3475C26.697 13.5064 37.1507 3 49.9275 3Z" fill="url(#paint2_linear)"></path> <path d="M28.2942 26.4205C28.2942 14.4549 37.9494 4.60522 49.9276 4.60522C61.9058 4.60522 71.561 14.382 71.561 26.4205C71.561 38.3861 61.9058 48.0899 49.9276 48.0899C37.9494 48.0899 28.2942 38.3861 28.2942 26.4205ZM35.0456 11.3906C31.198 15.2575 28.8024 20.5837 28.8024 26.4205C28.8024 32.2574 31.198 37.5835 34.973 41.3775C38.8205 45.1715 44.12 47.5792 49.9276 47.5792C55.7352 47.5792 61.0347 45.2444 64.8096 41.3775C68.6572 37.5835 70.9802 32.2574 70.9802 26.4205C70.9802 20.5837 68.5846 15.2575 64.8096 11.3906C61.0347 7.52366 55.7352 5.11595 49.9276 5.11595C44.12 5.11595 38.8205 7.52366 35.0456 11.3906Z" fill="white"></path> <path opacity="0.4" d="M49.9275 46.4846C44.5555 46.4846 39.5464 44.3687 35.7715 40.5748C31.9965 36.7808 29.8912 31.7465 29.8912 26.3474C29.8912 20.9483 31.9965 15.914 35.7715 12.12C39.5464 8.32607 44.5555 6.21021 49.9275 6.21021C55.2996 6.21021 60.3087 8.32607 64.0836 12.12C67.8586 15.914 69.9638 20.9483 69.9638 26.3474C69.9638 31.7465 67.8586 36.7808 64.0836 40.5748C60.3087 44.3687 55.2996 46.4846 49.9275 46.4846ZM49.9275 45.9009C55.0818 45.9009 60.0183 43.858 63.648 40.21C67.3504 36.489 69.3105 31.6006 69.3105 26.4204C69.3105 21.2401 67.2778 16.2788 63.648 12.6308C59.9457 8.90976 55.0818 6.93981 49.9275 6.93981C44.7733 6.93981 39.8368 8.98272 36.207 12.6308C32.5047 16.2058 30.472 21.1672 30.472 26.3474C30.472 31.5276 32.5047 36.489 36.1344 40.137C39.8368 43.858 44.7733 45.9009 49.9275 45.9009Z" fill="url(#paint3_linear)"></path> <path d="M67.5682 35.8323C67.2052 35.5404 53.1943 24.3774 53.1943 24.3774L49.9275 5.62646C49.7097 5.69943 49.4193 5.91831 49.2741 6.21015L46.9511 24.4504L32.5046 35.6134C32.5046 35.6134 32.2142 35.9782 32.0691 36.1971C31.9965 36.343 31.9965 36.5619 31.9965 36.7808L49.8549 29.4117L67.7133 36.7808C67.8585 36.416 67.7133 36.0511 67.5682 35.8323Z" fill="white"></path> <path d="M50.0727 26.9311L49.9275 30.2873L66.334 36.9267C66.9148 37.2185 67.3504 37.0726 67.7859 36.7808L50.2905 26.8581C50.2179 26.7851 50.0727 26.8581 50.0727 26.9311Z" fill="#565F64"></path> <path d="M50.0728 26.9311C50.0728 26.9311 51.0165 28.6092 52.1054 29.7765C53.6299 31.4546 55.6626 32.622 55.6626 32.622L66.3341 36.9267C66.9149 37.2185 67.3504 37.0726 67.786 36.7808L50.2905 26.8581C50.2179 26.7851 50.0728 26.8581 50.0728 26.9311Z" fill="url(#paint4_linear)"></path> <path d="M67.7134 36.1244C67.7134 36.0514 67.6408 35.9784 67.5682 35.8325L52.6136 24.8154L50.5809 26.1287C50.5809 26.1287 50.7261 26.2017 50.7987 26.1287C51.0165 26.0558 51.4521 25.9828 51.8876 26.1287C52.2506 26.2746 67.7134 36.1973 67.7134 36.1973C67.7134 36.1973 67.7134 36.1973 67.7134 36.1244Z" fill="#A4AAAE" fill-opacity="0.6"></path> <path d="M67.2052 35.4675L53.2669 24.3774L52.6135 24.8152L67.5682 35.9053C67.4956 35.7593 67.3504 35.6134 67.2052 35.4675Z" fill="#333E46"></path> <path d="M50.2906 25.8367C50.218 25.9096 50.218 25.9096 50.218 25.9096C50.218 25.9096 50.218 26.0555 50.3631 25.9826C50.4357 25.9096 52.541 24.8152 53.267 24.3774L50.7261 6.86684C50.6535 6.21019 50.3631 5.91835 49.855 5.69946L50.1454 25.9826L50.2906 25.8367Z" fill="#565F64"></path> <path d="M49.0563 6.86702V7.81551L47.4592 23.9399C47.4592 24.1587 47.5318 24.3776 47.7496 24.5236L48.6933 25.2532L49.3467 7.45071L49.4193 6.06445C49.2015 6.21037 49.1289 6.50222 49.0563 6.86702Z" fill="#A4AAAE" fill-opacity="0.6"></path> <path d="M48.1852 25.545L47.3141 24.8154L32.5773 35.5407C32.5773 35.5407 32.1417 35.8325 32.0691 36.1244L32.5773 35.8325L48.0401 26.0558C48.3304 25.9098 48.403 25.7639 48.1852 25.545Z" fill="#A4AAAE" fill-opacity="0.6"></path> <path d="M49.7097 26.9311C49.7097 26.8581 49.6371 26.7851 49.5645 26.8581L31.9965 36.8537C32.432 37.1456 32.8676 37.2185 33.4484 36.9997L49.8549 30.3602L49.7097 26.9311Z" fill="#565F64"></path> <path d="M50.2179 25.9096L50.2905 25.8367C50.2179 25.9096 50.2179 25.9096 50.2179 25.9096C50.2179 25.9096 50.2179 25.9826 50.2905 25.9826H50.3631C50.4357 25.9096 52.5409 24.8152 53.2669 24.3775L52.9765 22.2616L50.7261 6.86685C50.7261 6.57501 50.6535 6.35613 50.5083 6.21021C50.5083 6.21021 51.5972 20.9483 51.5972 22.5534C51.5972 24.6693 50.2179 25.9096 50.2179 25.9096Z" fill="url(#paint5_linear)"></path> <path d="M49.7097 26.9311C49.7097 26.8581 49.6371 26.7851 49.5645 26.8581L31.9965 36.8537C32.432 37.1456 32.8676 37.2185 33.4484 36.9997L49.8549 30.3602L49.7097 26.9311Z" fill="url(#paint6_linear)" fill-opacity="0.8"></path> <path opacity="0.8" d="M33.4485 36.9269L49.855 30.2874L49.7098 27.0771C49.4194 27.9527 48.9112 28.9012 47.5319 29.6308C46.5156 30.2145 36.7878 35.0299 33.3033 36.708C33.0855 36.8539 32.7951 36.9269 32.6499 36.9998C32.9403 37.1457 33.1581 37.0728 33.4485 36.9269Z" fill="url(#paint7_linear)"></path> <path d="M50.2906 25.8367C50.218 25.9096 50.218 25.9096 50.218 25.9096C50.218 25.9096 50.218 26.0555 50.3631 25.9826C50.4357 25.9096 52.541 24.8152 53.267 24.3774L50.7261 6.86684C50.6535 6.21019 50.3631 5.91835 49.855 5.69946L50.1454 25.9826L50.2906 25.8367Z" fill="url(#paint8_linear)"></path> <path d="M50.2906 25.8367C50.218 25.9096 50.218 25.9096 50.218 25.9096C50.218 25.9096 50.218 26.0555 50.3631 25.9826C50.4357 25.9096 52.541 24.8152 53.267 24.3774L50.7261 6.86684C50.6535 6.21019 50.3631 5.91835 49.855 5.69946L50.1454 25.9826L50.2906 25.8367Z" fill="url(#paint9_linear)"></path> <path d="M30.3994 35.3947C29.8912 34.2274 26.9874 28.5364 30.1816 17.5923H28.9475C28.2941 19.7811 27.786 21.0944 27.4956 23.0644C27.4956 23.0644 27.3504 23.794 27.2778 24.5965C27.2052 25.3991 27.2052 25.8369 27.2052 26.3476C27.2052 30.7252 28.2941 33.2789 28.2941 33.2789C29.4557 36.9269 31.4883 40.2102 34.2469 42.6908C36.6426 44.8067 40.3449 46.4118 43.3939 46.9955C42.8858 46.9226 34.1743 43.2016 30.3994 35.3947Z" fill="url(#paint10_linear)"></path> <path d="M50.2179 26.7853H49.5646C49.6372 26.7853 49.7098 26.7853 49.7098 26.8583L49.855 30.2145H49.9276L50.0727 26.8583C50.0727 26.7853 50.1453 26.7124 50.2179 26.7853V26.7853Z" fill="url(#paint11_linear)"></path> <path d="M57.187 4.67822C64.8095 7.59666 71.9965 15.6224 71.9965 25.7639C71.9965 38.0213 62.2687 48.017 49.9275 48.017V49.1844C62.2687 49.1844 72.6498 38.9698 72.6498 26.3476C72.6498 16.279 66.2614 7.81554 57.187 4.67822Z" fill="url(#paint12_linear)"></path> <path d="M69.383 17.738C64.3014 5.99133 52.8313 5.33468 52.1779 5.26172C52.1779 5.26172 52.1779 5.26172 52.1053 5.26172C60.8894 6.86686 66.4792 12.6308 68.4393 18.6865V18.7595C69.3104 21.0942 69.746 23.5749 69.8186 26.2744C69.8912 28.8281 69.3104 31.6736 68.2215 34.3001C68.1489 34.665 68.0763 35.1027 68.0037 35.1027H69.1652C72.6498 28.5362 71.1253 21.8968 69.383 17.738Z" fill="url(#paint13_linear)"></path> <path d="M28.2942 26.4205C28.2942 14.4549 37.9494 4.60522 49.9276 4.60522C61.9058 4.60522 71.561 14.382 71.561 26.4205C71.561 38.3861 61.9058 48.0899 49.9276 48.0899C37.9494 48.0899 28.2942 38.3861 28.2942 26.4205ZM35.0456 11.3906C31.198 15.2575 28.8024 20.5837 28.8024 26.4205C28.8024 32.2574 31.198 37.5835 34.973 41.3775C38.8205 45.1715 44.12 47.5792 49.9276 47.5792C55.7352 47.5792 61.0347 45.2444 64.8096 41.3775C68.6572 37.5835 70.9802 32.2574 70.9802 26.4205C70.9802 20.5837 68.5846 15.2575 64.8096 11.3906C61.0347 7.52366 55.7352 5.11595 49.9276 5.11595C44.12 5.11595 38.8205 7.52366 35.0456 11.3906Z" fill="#FBFBFB"></path> <path d="M32.4321 35.6864L47.2416 24.9611C48.0401 25.3989 49.3468 25.9826 49.492 25.9826C49.6372 26.0556 49.6372 25.9096 49.6372 25.9096L47.8223 24.3775C47.6045 24.2315 47.5319 24.0127 47.5319 23.7938L49.2742 6.21021C49.2016 6.28317 49.2016 6.42909 49.129 6.50205C49.0564 6.64797 49.0564 6.72093 49.0564 6.86685L46.5156 24.4504L32.5773 35.4675C32.5047 35.5405 32.4321 35.6134 32.4321 35.6864Z" fill="#333F47"></path> <defs> <linearGradient id="paint0_linear" x1="32.5047" y1="11.6824" x2="67.4946" y2="40.8396" gradientUnits="userSpaceOnUse"> <stop stop-color="white"></stop> <stop offset="0.1" stop-color="#CDD0D0"></stop> <stop offset="0.2" stop-color="#A5ACAF"></stop> <stop offset="0.3" stop-color="#98A0A4"></stop> <stop offset="0.4" stop-color="#828A8F"></stop> <stop offset="0.5" stop-color="#667075"></stop> <stop offset="0.6" stop-color="#535C63"></stop> <stop offset="0.7" stop-color="#475158"></stop> <stop offset="0.8" stop-color="#434D54"></stop> <stop offset="1" stop-color="#475157"></stop> </linearGradient> <linearGradient id="paint1_linear" x1="33.5935" y1="12.5579" x2="66.3971" y2="39.9748" gradientUnits="userSpaceOnUse"> <stop stop-color="#0B1F2A"></stop> <stop offset="0.2" stop-color="#333F47"></stop> <stop offset="0.5" stop-color="#81898D"></stop> <stop offset="0.7" stop-color="#B3B8B8"></stop> <stop offset="0.8" stop-color="#DEE0DD"></stop> <stop offset="1" stop-color="#FBFBFB"></stop> </linearGradient> <linearGradient id="paint2_linear" x1="57.8931" y1="48.3139" x2="41.8531" y2="4.44321" gradientUnits="userSpaceOnUse"> <stop stop-color="#E1E3E1"></stop> <stop offset="0.1" stop-color="#C1C5C4"></stop> <stop offset="0.3" stop-color="#9BA1A2"></stop> <stop offset="0.5" stop-color="#7D8487"></stop> <stop offset="0.7" stop-color="#687074" stop-opacity="0"></stop> <stop offset="0.8" stop-color="#5B6469" stop-opacity="0"></stop> <stop offset="1" stop-color="#576065" stop-opacity="0"></stop> </linearGradient> <linearGradient id="paint3_linear" x1="39.9094" y1="8.90976" x2="60.097" y2="43.6972" gradientUnits="userSpaceOnUse"> <stop stop-color="#E1E3E1"></stop> <stop offset="0.1" stop-color="#C1C5C4"></stop> <stop offset="0.3" stop-color="#9BA1A2"></stop> <stop offset="0.5" stop-color="#7D8487"></stop> <stop offset="0.7" stop-color="#687074" stop-opacity="0"></stop> <stop offset="0.8" stop-color="#5B6469" stop-opacity="0"></stop> <stop offset="1" stop-color="#576065" stop-opacity="0"></stop> </linearGradient> <linearGradient id="paint4_linear" x1="59.002" y1="31.7465" x2="57.7588" y2="33.7838" gradientUnits="userSpaceOnUse"> <stop stop-color="#27343C"></stop> <stop offset="1" stop-color="#00111E" stop-opacity="0"></stop> </linearGradient> <linearGradient id="paint5_linear" x1="55.4448" y1="24.2315" x2="53.3973" y2="20.9575" gradientUnits="userSpaceOnUse"> <stop offset="0.1" stop-color="#02131F"></stop> <stop offset="0.9" stop-color="#02131F" stop-opacity="0"></stop> </linearGradient> <linearGradient id="paint6_linear" x1="49.9275" y1="29.5577" x2="46.8762" y2="30.4251" gradientUnits="userSpaceOnUse"> <stop offset="0.2" stop-color="#02131F"></stop> <stop offset="0.9" stop-color="#02131F" stop-opacity="0"></stop> </linearGradient> <linearGradient id="paint7_linear" x1="41.7969" y1="33.5707" x2="41.3576" y2="32.4778" gradientUnits="userSpaceOnUse"> <stop stop-color="#02131F"></stop> <stop offset="0.1" stop-color="#02131F"></stop> <stop offset="1" stop-color="#02131F" stop-opacity="0"></stop> </linearGradient> <linearGradient id="paint8_linear" x1="52.541" y1="15.5492" x2="50.0724" y2="15.8381" gradientUnits="userSpaceOnUse"> <stop offset="0.3" stop-color="#02131F"></stop> <stop offset="0.8" stop-color="#02131F" stop-opacity="0"></stop> </linearGradient> <linearGradient id="paint9_linear" x1="52.6136" y1="15.4762" x2="50.9436" y2="15.6929" gradientUnits="userSpaceOnUse"> <stop offset="0.4" stop-color="#27343C"></stop> <stop offset="1" stop-color="#3B474E" stop-opacity="0"></stop> </linearGradient> <linearGradient id="paint10_linear" x1="26.4067" y1="27.0042" x2="46.7114" y2="38.6626" gradientUnits="userSpaceOnUse"> <stop stop-color="#25323B" stop-opacity="0"></stop> <stop offset="0.1" stop-color="#27343C"></stop> </linearGradient> <linearGradient id="paint11_linear" x1="49.9276" y1="30.2875" x2="49.9276" y2="26.7853" gradientUnits="userSpaceOnUse"> <stop offset="0.3" stop-color="#A5ABAF"></stop> <stop offset="1" stop-color="#A5ABAF" stop-opacity="0"></stop> </linearGradient> <linearGradient id="paint12_linear" x1="61.3249" y1="4.67822" x2="61.3249" y2="49.1843" gradientUnits="userSpaceOnUse"> <stop stop-color="#6B7378"></stop> <stop offset="0.2" stop-color="#333F47"></stop> <stop offset="0.5" stop-color="#27343C"></stop> <stop offset="0.8" stop-color="#333F47"></stop> <stop offset="1" stop-color="#434D54"></stop> </linearGradient> <linearGradient id="paint13_linear" x1="68.2941" y1="8.90976" x2="58.4264" y2="23.3099" gradientUnits="userSpaceOnUse"> <stop offset="0.7" stop-color="#49545B"></stop> <stop offset="0.8" stop-color="white" stop-opacity="0"></stop> </linearGradient> </defs> </svg> 