<?xml version="1.0" encoding="UTF-8"?> <svg xmlns="http://www.w3.org/2000/svg" width="100" height="101" viewBox="0 0 100 101" fill="none"> <path fill-rule="evenodd" clip-rule="evenodd" d="M85 37.0003C85 17.6701 69.3306 2 50.0007 2C30.6711 2 15 17.6701 15 37.0003C15 56.3305 30.6711 72 50.0007 72C69.3306 72 85 56.3305 85 37.0003Z" fill="white"></path> <path d="M85 37.0003C85 17.6701 69.3306 2 50.0007 2C30.6711 2 15 17.6701 15 37.0003C15 56.3305 30.6711 72 50.0007 72C69.3306 72 85 56.3305 85 37.0003Z" stroke="#221F1F" stroke-width="2.66667" stroke-miterlimit="2.613" stroke-linecap="round" stroke-linejoin="round"></path> <path fill-rule="evenodd" clip-rule="evenodd" d="M84.1554 37.0003C84.1554 18.1358 68.8635 2.844 50.0007 2.844C31.137 2.844 15.8445 18.1358 15.8445 37.0003C15.8445 55.864 31.137 71.156 50.0007 71.156C68.8635 71.156 84.1554 55.864 84.1554 37.0003Z" fill="black"></path> <path fill-rule="evenodd" clip-rule="evenodd" d="M32.6043 19.4478C32.3501 19.7652 32.0968 20.0824 31.8432 20.3995C31.146 21.2708 30.4469 22.1423 29.7494 23.0135C29.7465 23.017 29.7277 23.0466 29.7228 23.0428C29.687 23.0141 29.651 22.9857 29.615 22.9567C29.4249 22.8044 29.236 22.653 29.046 22.501C28.7168 22.2375 28.3877 21.9736 28.0588 21.7109C28.6917 20.9202 29.3242 20.1298 29.957 19.3391C30.2654 18.954 30.5735 18.5686 30.8815 18.1841C31.1023 17.908 31.3808 17.7123 31.7475 17.7006C32.1873 17.6863 32.5703 17.9431 32.7572 18.3326C32.9136 18.7107 32.8608 19.1274 32.6043 19.4478ZM26.6696 20.5984C26.2684 20.2768 25.8663 19.955 25.4651 19.634C25.3117 19.5113 25.1591 19.3883 25.0054 19.2659C25.0016 19.2621 25.1626 19.0641 25.1743 19.0513C25.9223 18.1168 26.6708 17.1814 27.4187 16.2472C27.6158 16.0006 27.7926 15.7379 28.0957 15.6126C28.5095 15.4422 28.9953 15.5514 29.2958 15.8814C29.538 16.1491 29.6179 16.5128 29.54 16.861C29.4507 17.1706 29.2317 17.3984 29.0346 17.6441C28.641 18.1358 28.2468 18.6284 27.8533 19.1201C27.4588 19.6132 27.0643 20.1064 26.6696 20.5984V20.5984ZM35.2197 17.8014C35.0891 16.8891 34.5394 16.1228 33.6963 15.7391C32.8506 15.3549 31.8675 15.4996 31.1219 16.0273C31.061 16.0709 31.0048 16.1228 30.9474 16.1693C31.0707 15.747 31.1088 15.3215 31.0033 14.889C30.9011 14.4676 30.6795 14.0784 30.3688 13.7753C29.7362 13.1582 28.7769 12.9553 27.9475 13.2654C27.5575 13.411 27.2099 13.6613 26.9492 13.987C26.8014 14.1715 26.6532 14.3569 26.5053 14.5425C25.7307 15.5092 24.9576 16.4753 24.1842 17.442C23.5192 18.2717 22.855 19.1013 22.1909 19.931C22.1469 19.9857 22.1039 20.0408 22.0597 20.0956C22.0562 20.0988 22.1449 20.1661 22.151 20.1708C22.409 20.3776 22.6667 20.5834 22.9241 20.7902C23.899 21.5706 24.8742 22.3511 25.8493 23.1321C26.8134 23.905 27.7792 24.6778 28.7452 25.4512C28.9915 25.6477 29.2366 25.8445 29.4838 26.0416C29.4937 26.0504 29.5511 26.1078 29.5614 26.0958C29.61 26.034 29.6589 25.9731 29.7072 25.9127C30.3699 25.0843 31.0326 24.257 31.695 23.4297C32.4892 22.4381 33.2831 21.4465 34.0773 20.4546C34.4873 19.9427 34.9403 19.4601 35.1351 18.8181C35.2349 18.4878 35.2513 18.1425 35.2197 17.8014" fill="white"></path> <path fill-rule="evenodd" clip-rule="evenodd" d="M71.3478 37.0003C71.3478 25.2098 61.79 15.6527 50.0008 15.6527C38.211 15.6527 28.6532 25.2098 28.6532 37.0003C28.6532 48.7901 38.211 58.3479 50.0008 58.3479C61.79 58.3479 71.3478 48.7901 71.3478 37.0003Z" fill="white"></path> <path fill-rule="evenodd" clip-rule="evenodd" d="M50.0001 16.7345C38.9374 17.0218 30.0219 25.9373 29.7355 37H50.0001V16.7345Z" fill="#0499DB"></path> <path fill-rule="evenodd" clip-rule="evenodd" d="M50 57.2666C61.0641 56.9787 69.9785 48.0635 70.2664 36.9999H50V57.2666Z" fill="#0499DB"></path> <path fill-rule="evenodd" clip-rule="evenodd" d="M72.7725 13.6389L70.9934 11.9864L65.218 19.5738L66.9964 21.2252L73.3303 18.3204L69.1096 23.8647L70.3334 25.9626L78.9991 21.9854L77.7765 19.8883L72.7751 22.1828L76.3302 17.5133L74.774 15.5694L69.4399 18.0164L72.7725 13.6389Z" fill="white"></path> <path fill-rule="evenodd" clip-rule="evenodd" d="M46.8583 7.82407L49.1108 14.2287H50.8901L53.1427 7.82407L53.3802 14.2287L55.8711 14.5842L55.515 4.97815L52.3131 4.62176L50.0008 11.3822L47.6873 4.62176L44.4851 4.97815L44.1299 14.5842L46.6211 14.2287L46.8583 7.82407Z" fill="white"></path> </svg> 