<?xml version="1.0" encoding="UTF-8"?> <svg xmlns="http://www.w3.org/2000/svg" width="101" height="101" viewBox="0 0 101 101" fill="none"> <path d="M50.6901 20.2883C28.3954 20.2883 10.5238 26.974 10.5238 35.3562C10.5238 43.6875 28.5426 50.4247 50.6901 50.4247C72.8381 50.4247 90.8569 43.6648 90.8569 35.3562C90.8569 27.0476 72.8381 20.2883 50.6901 20.2883Z" fill="#003478"></path> <path d="M66.5112 38.5482C66.522 38.6172 66.6125 38.6833 66.7002 38.7146C66.7325 38.7254 66.7483 38.747 66.7146 38.8203C66.4645 39.3566 66.2345 39.6658 65.921 40.1318C65.6325 40.5624 65.3077 40.8983 64.9144 41.2214C64.3211 41.7126 63.4972 42.2472 62.8161 41.8878C62.5136 41.7307 62.3827 41.3071 62.3885 40.9642C62.4029 39.9998 62.8317 39.0097 63.6236 38.0367C64.5889 36.8477 65.6561 36.231 66.3565 36.5681C67.0811 36.9139 66.8499 37.7532 66.5253 38.412C66.5002 38.463 66.5002 38.5062 66.511 38.5479L66.5112 38.5482ZM74.2869 31.0337C74.339 30.9417 74.2842 30.8745 74.168 30.8745C73.5628 30.8745 72.7687 30.8759 72.1381 30.8759C71.9879 30.8759 71.9103 30.8938 71.8395 31.034C71.6067 31.4802 68.77 35.7335 68.242 36.5594C68.1529 36.6852 68.0444 36.6676 68.0318 36.5234C67.9783 36.0329 67.5548 35.469 66.8876 35.1991C66.3792 34.9928 65.8821 34.9554 65.3653 35.0241C64.4323 35.1495 63.6011 35.6419 62.8703 36.1972C61.7689 37.0349 60.8186 38.1207 59.5919 38.9229C58.9223 39.3596 58.0052 39.7405 57.3915 39.1719C56.8362 38.6568 56.899 37.5128 57.7487 36.6279C57.8381 36.5352 57.9455 36.6135 57.9286 36.6958C57.8485 37.096 57.9466 37.494 58.2505 37.773C58.6212 38.1055 59.1517 38.143 59.6058 37.9211C60.1416 37.6555 60.4565 37.1426 60.5483 36.5605C60.6902 35.6575 59.9955 34.8611 59.1261 34.7972C58.4199 34.7476 57.7426 34.9934 57.0827 35.5383C56.7518 35.8129 56.5639 36.0158 56.2777 36.4229C56.208 36.5232 56.1009 36.5332 56.1042 36.3851C56.1365 35.229 55.659 34.5786 54.7037 34.5574C53.9621 34.5394 53.1699 34.9421 52.5524 35.4347C51.8755 35.9786 51.2836 36.6993 50.6491 37.3766C50.57 37.46 50.5014 37.456 50.4791 37.2942C50.4612 36.5282 50.2675 35.7863 49.9132 35.2595C49.7878 35.0761 49.5238 34.9855 49.3021 35.1092C49.1997 35.1652 48.8436 35.3292 48.5842 35.5381C48.4555 35.6441 48.4052 35.7976 48.4623 35.9943C48.8044 37.1387 48.7293 38.4398 48.2651 39.5388C47.8389 40.5453 47.0108 41.453 46.0374 41.7602C45.3961 41.9637 44.7296 41.8641 44.317 41.2954C43.7505 40.5104 43.9793 39.1453 44.8238 38.0118C45.569 37.0137 46.6471 36.3797 47.7224 35.9714C47.8488 35.9225 47.8751 35.8413 47.8391 35.7338C47.7809 35.557 47.6875 35.3161 47.6498 35.2062C47.551 34.9434 47.2749 34.901 46.9377 34.9377C46.1564 35.0286 45.4516 35.2964 44.7554 35.6694C42.9324 36.646 42.0184 38.5363 41.6178 39.5475C41.4249 40.0334 41.26 40.3364 41.0469 40.6051C40.7595 40.9665 40.3987 41.2955 39.739 41.8751C39.6794 41.9283 39.6348 42.039 39.6851 42.1421C39.7523 42.2816 40.0954 42.7664 40.1922 42.8096C40.2996 42.8625 40.4243 42.788 40.4742 42.7528C40.9358 42.4397 41.4881 41.9435 41.7584 41.607C41.8532 41.4916 41.9506 41.5402 42.0009 41.7152C42.2531 42.6154 42.9135 43.3505 43.8267 43.658C45.4983 44.2219 47.232 43.4056 48.5407 41.9845C49.3725 41.0812 49.6726 40.5003 49.9914 40.1054C50.5317 39.4357 51.5974 37.9375 52.8668 36.9756C53.3323 36.6209 53.8831 36.3503 54.1602 36.53C54.3825 36.6742 54.4544 37.0091 54.0977 37.6581C52.8034 40.0225 50.8993 42.8004 50.5501 43.4741C50.4861 43.5909 50.5429 43.6829 50.6643 43.6829C51.3415 43.6795 52.0129 43.6812 52.6276 43.6812C52.73 43.6776 52.7757 43.6295 52.8271 43.5572C53.8203 42.0018 54.7549 40.5215 55.7568 38.9909C55.8129 38.9007 55.8646 38.9693 55.8667 39.0088C55.8883 39.364 55.9745 39.8496 56.1854 40.1686C56.5642 40.7582 57.1008 41.0116 57.696 41.0155C58.1696 41.0227 58.4093 40.949 58.92 40.7581C59.3355 40.6039 59.6691 40.4015 59.9252 40.2184C60.0746 40.1142 60.1008 40.2885 60.0973 40.3151C59.8673 41.5499 60.1512 43.013 61.3778 43.6196C62.8458 44.3437 64.4585 43.3259 65.3865 42.4071C65.4774 42.3187 65.5747 42.328 65.5841 42.5189C65.6056 42.8697 65.7623 43.286 66.0523 43.5773C66.83 44.3581 68.3992 44.0486 69.974 42.8292C70.9851 42.0484 72.043 40.9454 72.9986 39.7773C73.0345 39.732 73.0604 39.6594 72.9914 39.5857C72.8459 39.4333 72.6354 39.259 72.491 39.1247C72.4253 39.0687 72.3287 39.0848 72.2734 39.1266C71.2938 40.0587 70.412 41.1216 69.1377 42.0005C68.7078 42.3007 68.0228 42.5428 67.7152 42.126C67.5952 41.9643 67.6089 41.7406 67.726 41.447C68.0975 40.52 73.9802 31.5596 74.2856 31.0311" fill="white"></path> <path d="M46.6097 32.1149C46.6348 32.2479 46.6866 32.2738 46.747 32.2627C47.0466 32.2027 47.3745 31.9561 47.5687 31.6703C47.7454 31.4111 47.8284 31.0371 47.6527 30.8873C47.4961 30.7525 47.241 30.7906 47.0519 30.9577C46.6754 31.2905 46.561 31.7628 46.6096 32.1152L46.6097 32.1149ZM31.6162 43.6493C29.4227 43.6637 27.4903 42.3085 27.2686 39.9608C27.1454 38.6599 27.5129 37.5005 28.2488 36.5454C28.9017 35.6942 30.0065 34.9872 30.9417 34.8144C31.2461 34.7587 31.6549 34.7928 31.824 34.9956C32.0891 35.3043 32.0129 35.6435 31.7478 35.7788C31.0343 36.1433 30.1758 36.7672 29.751 37.6191C29.4064 38.3145 29.3368 39.1525 29.8631 39.9509C30.7439 41.2814 33.1993 41.3179 35.4822 39.1961C36.0476 38.6767 36.5536 38.1778 37.0679 37.5868C38.0734 36.4366 38.4078 36.0174 39.7444 34.1626C39.7588 34.1411 39.766 34.113 39.7588 34.0993C39.748 34.0742 39.7301 34.0706 39.6902 34.067C38.7979 34.0921 38.02 34.3578 37.2639 34.9231C37.0461 35.082 36.7327 35.0597 36.5955 34.8505C36.4428 34.614 36.5524 34.3061 36.8036 34.1322C38.0199 33.2859 39.3487 33.1324 40.7057 32.9033C40.7045 32.9033 40.7998 32.9069 40.8774 32.8048C41.4344 32.0896 41.855 31.4444 42.4489 30.7211C43.0472 29.9873 43.82 29.3134 44.4105 28.8072C45.2347 28.0982 45.7633 27.8596 46.3005 27.5671C46.4421 27.4931 46.2825 27.4047 46.2394 27.4047C43.2402 26.8407 40.1227 26.1109 37.1441 27.2141C35.0812 27.9843 34.1771 29.6209 34.612 30.7145C34.9213 31.4903 35.9411 31.6164 36.8958 31.1489C37.6888 30.7602 38.4226 30.1338 38.9428 29.3273C39.2338 28.8795 39.8471 29.2026 39.5158 29.9803C38.6441 32.0299 36.9789 33.6556 34.9506 33.7243C33.2244 33.7804 32.1106 32.5099 32.1143 30.9425C32.1214 27.8509 35.5615 25.8145 39.1768 25.51C43.5308 25.15 47.6546 26.3103 51.9776 26.8349C55.2898 27.2362 58.4653 27.2445 61.7946 26.4794C62.1881 26.3939 62.4643 26.6451 62.4386 27.0428C62.4063 27.6176 61.9611 28.1713 60.8646 28.7696C59.6176 29.4538 58.313 29.6614 56.9505 29.6725C53.6559 29.7013 50.5869 28.4152 47.4111 27.7248C47.4147 27.8639 47.4514 28.0296 47.335 28.1174C45.5758 29.4155 43.9858 30.7337 42.9208 32.5853C42.8849 32.628 42.9028 32.6687 42.9664 32.6643C43.8911 32.6151 44.7226 32.5914 45.5858 32.5223C45.7367 32.508 45.7424 32.472 45.7291 32.362C45.6526 31.7238 45.839 30.9961 46.4002 30.4955C46.9745 29.9804 47.6935 29.9218 48.1702 30.2928C48.7122 30.7153 48.6642 31.4751 48.3678 32.0449C48.066 32.6231 47.5676 32.9323 47.0893 33.0824C47.0893 33.0824 46.9887 33.104 47.0037 33.1953C47.0217 33.3412 47.6743 33.7026 47.7301 33.7988C47.784 33.8905 47.7552 34.0325 47.6572 34.1414C47.5882 34.2205 47.48 34.2945 47.3417 34.292C47.23 34.2898 47.1621 34.251 47.0191 34.1738C46.7266 34.0152 46.3611 33.7546 46.1173 33.4474C46.0343 33.3435 45.9919 33.3414 45.7846 33.3529C44.8505 33.4068 43.394 33.5477 42.4072 33.671C42.1679 33.6997 42.1327 33.7454 42.0835 33.8284C40.5101 36.4241 38.8301 39.2232 36.9856 41.0973C35.0072 43.1067 33.3627 43.6358 31.617 43.6495" fill="white"></path> <path d="M50.6892 22.7522C30.1787 22.7522 13.5534 28.4225 13.5534 35.361C13.5534 42.3 30.1787 47.9708 50.6892 47.9708C71.1994 47.9708 87.8236 42.3 87.8236 35.361C87.8236 28.4225 71.1994 22.7522 50.6892 22.7522ZM50.6892 49.1135C29.4321 49.1135 12.2001 42.9563 12.2001 35.361C12.2001 27.7645 29.4321 21.6085 50.6892 21.6085C71.9444 21.6085 89.1753 27.7645 89.1753 35.361C89.1753 42.9563 71.9444 49.1135 50.6892 49.1135" fill="white"></path> </svg> 